<?xml version="1.0" standalone="no"?>
<!DOCTYPE svg PUBLIC "-//W3C//DTD SVG 1.1//EN" "http://www.w3.org/Graphics/SVG/1.1/DTD/svg11.dtd" >
<svg xmlns="http://www.w3.org/2000/svg" xmlns:xlink="http://www.w3.org/1999/xlink" version="1.1">
<metadata></metadata>
<defs>
<font id="synthetique_otregular" horiz-adv-x="1329" >
<font-face units-per-em="2048" ascent="1638" descent="-410" />
<missing-glyph horiz-adv-x="604" />
<glyph unicode="&#xfb01;" horiz-adv-x="845" d="M354 1389q0 27 20 46t48 19t46.5 -18.5t18.5 -46.5t-19 -48t-46 -20q-28 0 -48 20t-20 48zM-8 -182q0 28 19.5 46.5t47.5 18.5t47 -18.5t19 -46.5t-19 -48t-47 -20t-47.5 20t-19.5 48zM596 59q0 28 20 47t48 19t46.5 -19t18.5 -47t-18.5 -47.5t-46.5 -19.5t-48 19.5 t-20 47.5zM113 59q0 28 19.5 47t47.5 19t47 -19t19 -47t-19 -47.5t-47 -19.5t-47.5 19.5t-19.5 47.5zM596 301q0 28 20 47t48 19t46.5 -19t18.5 -47t-19 -48t-46 -20q-28 0 -48 20t-20 48zM113 301q0 28 19.5 47t47.5 19t47 -19t19 -47t-19 -48t-47 -20t-47.5 20t-19.5 48z M596 543q0 27 20 46t48 19t46.5 -18.5t18.5 -46.5t-19 -48t-46 -20q-28 0 -48 20t-20 48zM113 543q0 28 19.5 46.5t47.5 18.5t47 -18.5t19 -46.5t-19 -48t-47 -20t-47.5 20t-19.5 48zM596 784q0 28 20 47t48 19t46.5 -19t18.5 -47t-18.5 -47.5t-46.5 -19.5t-48 19.5 t-20 47.5zM113 784q0 28 19.5 47t47.5 19t47 -19t19 -47t-19 -47.5t-47 -19.5t-47.5 19.5t-19.5 47.5zM596 1026q0 28 20 47t48 19t46.5 -19t18.5 -47t-19 -48t-46 -20q-28 0 -48 20t-20 48zM354 1026q0 28 20 47t48 19t46.5 -19t18.5 -47t-19 -48t-46 -20q-28 0 -48 20 t-20 48zM113 1026q0 28 19.5 47t47.5 19t47 -19t19 -47t-19 -48t-47 -20t-47.5 20t-19.5 48zM113 1268q0 28 19.5 46.5t47.5 18.5t47 -18.5t19 -46.5t-19 -48t-47 -20t-47.5 20t-19.5 48zM596 1389q0 27 20 46t48 19t46.5 -18.5t18.5 -46.5t-19 -48t-46 -20q-28 0 -48 20 t-20 48z" />
<glyph unicode="&#xfb02;" horiz-adv-x="845" d="M354 1389q0 27 20 46t48 19t46.5 -18.5t18.5 -46.5t-19 -48t-46 -20q-28 0 -48 20t-20 48zM-8 -182q0 28 19.5 46.5t47.5 18.5t47 -18.5t19 -46.5t-19 -48t-47 -20t-47.5 20t-19.5 48zM596 -61q0 27 20 46t48 19t46.5 -18.5t18.5 -46.5t-19 -48t-46 -20q-28 0 -48 20 t-20 48zM113 59q0 28 19.5 47t47.5 19t47 -19t19 -47t-19 -47.5t-47 -19.5t-47.5 19.5t-19.5 47.5zM596 180q0 28 20 47t48 19t46.5 -19t18.5 -47t-18.5 -47.5t-46.5 -19.5t-48 19.5t-20 47.5zM113 301q0 28 19.5 47t47.5 19t47 -19t19 -47t-19 -48t-47 -20t-47.5 20 t-19.5 48zM596 422q0 27 20 46t48 19t46.5 -18.5t18.5 -46.5t-19 -48t-46 -20q-28 0 -48 20t-20 48zM113 543q0 28 19.5 46.5t47.5 18.5t47 -18.5t19 -46.5t-19 -48t-47 -20t-47.5 20t-19.5 48zM596 664q0 27 20 46t48 19t46.5 -18.5t18.5 -46.5t-19 -48t-46 -20 q-28 0 -48 20t-20 48zM113 784q0 28 19.5 47t47.5 19t47 -19t19 -47t-19 -47.5t-47 -19.5t-47.5 19.5t-19.5 47.5zM596 905q0 28 20 47t48 19t46.5 -19t18.5 -47t-18.5 -47.5t-46.5 -19.5t-48 19.5t-20 47.5zM354 905q0 28 20 47t48 19t46.5 -19t18.5 -47t-18.5 -47.5 t-46.5 -19.5t-48 19.5t-20 47.5zM113 1026q0 28 19.5 47t47.5 19t47 -19t19 -47t-19 -48t-47 -20t-47.5 20t-19.5 48zM596 1147q0 27 20 46t48 19t46.5 -18.5t18.5 -46.5t-19 -48t-46 -20q-28 0 -48 20t-20 48zM113 1268q0 28 19.5 46.5t47.5 18.5t47 -18.5t19 -46.5 t-19 -48t-47 -20t-47.5 20t-19.5 48zM596 1389q0 27 20 46t48 19t46.5 -18.5t18.5 -46.5t-19 -48t-46 -20q-28 0 -48 20t-20 48z" />
<glyph horiz-adv-x="0" />
<glyph horiz-adv-x="682" />
<glyph unicode=" "  horiz-adv-x="604" />
<glyph unicode="&#x09;" horiz-adv-x="604" />
<glyph unicode="&#xa0;" horiz-adv-x="604" />
<glyph unicode="!" horiz-adv-x="362" d="M113 1026q0 28 19.5 47t47.5 19t47 -19t19 -47t-19 -48t-47 -20t-47.5 20t-19.5 48zM113 59q0 28 19.5 47t47.5 19t47 -19t19 -47t-19 -47.5t-47 -19.5t-47.5 19.5t-19.5 47.5zM113 543q0 28 19.5 46.5t47.5 18.5t47 -18.5t19 -46.5t-19 -48t-47 -20t-47.5 20t-19.5 48z M113 784q0 28 19.5 47t47.5 19t47 -19t19 -47t-19 -47.5t-47 -19.5t-47.5 19.5t-19.5 47.5z" />
<glyph unicode="&#x22;" horiz-adv-x="604" d="M113 1389q0 28 19.5 46.5t47.5 18.5t47 -18.5t19 -46.5t-19 -48t-47 -20t-47.5 20t-19.5 48zM354 1147q0 27 20 46t48 19t46.5 -18.5t18.5 -46.5t-19 -48t-46 -20q-28 0 -48 20t-20 48zM113 1147q0 28 19.5 46.5t47.5 18.5t47 -18.5t19 -46.5t-19 -48t-47 -20t-47.5 20 t-19.5 48zM354 1389q0 27 20 46t48 19t46.5 -18.5t18.5 -46.5t-19 -48t-46 -20q-28 0 -48 20t-20 48z" />
<glyph unicode="#" horiz-adv-x="1449" d="M596 1026q0 28 20 47t48 19t46.5 -19t18.5 -47t-19 -48t-46 -20q-28 0 -48 20t-20 48zM717 301q0 28 19.5 47t47.5 19t47 -19t19 -47t-19 -48t-47 -20t-47.5 20t-19.5 48zM233 301q0 28 20 47t48 19t47 -19t19 -47t-19 -48t-47 -20t-48 20t-20 48zM1079 543q0 27 20 46 t48 19t46.5 -18.5t18.5 -46.5t-19 -48t-46 -20q-28 0 -48 20t-20 48zM838 543q0 28 19.5 46.5t47.5 18.5t47 -18.5t19 -46.5t-19 -48t-47 -20t-47.5 20t-19.5 48zM596 543q0 27 20 46t48 19t46.5 -18.5t18.5 -46.5t-19 -48t-46 -20q-28 0 -48 20t-20 48zM354 543q0 27 20 46 t48 19t46.5 -18.5t18.5 -46.5t-19 -48t-46 -20q-28 0 -48 20t-20 48zM113 543q0 28 19.5 46.5t47.5 18.5t47 -18.5t19 -46.5t-19 -48t-47 -20t-47.5 20t-19.5 48zM1200 784q0 28 20 47t48 19t46.5 -19t18.5 -47t-18.5 -47.5t-46.5 -19.5t-48 19.5t-20 47.5zM958 784 q0 28 20 47t48 19t47 -19t19 -47t-19 -47.5t-47 -19.5t-48 19.5t-20 47.5zM717 784q0 28 19.5 47t47.5 19t47 -19t19 -47t-19 -47.5t-47 -19.5t-47.5 19.5t-19.5 47.5zM475 784q0 28 20 47t48 19t46.5 -19t18.5 -47t-18.5 -47.5t-46.5 -19.5t-48 19.5t-20 47.5zM233 784 q0 28 20 47t48 19t47 -19t19 -47t-19 -47.5t-47 -19.5t-48 19.5t-20 47.5zM1079 1026q0 28 20 47t48 19t46.5 -19t18.5 -47t-19 -48t-46 -20q-28 0 -48 20t-20 48z" />
<glyph unicode="$" horiz-adv-x="1087" d="M475 1268q0 27 20 46t48 19t46.5 -18.5t18.5 -46.5t-19 -48t-46 -20q-28 0 -48 20t-20 48zM475 -182q0 27 20 46t48 19t46.5 -18.5t18.5 -46.5t-19 -48t-46 -20q-28 0 -48 20t-20 48zM596 59q0 28 20 47t48 19t46.5 -19t18.5 -47t-18.5 -47.5t-46.5 -19.5t-48 19.5 t-20 47.5zM354 59q0 28 20 47t48 19t46.5 -19t18.5 -47t-18.5 -47.5t-46.5 -19.5t-48 19.5t-20 47.5zM113 59q0 28 19.5 47t47.5 19t47 -19t19 -47t-19 -47.5t-47 -19.5t-47.5 19.5t-19.5 47.5zM838 180q0 28 19.5 47t47.5 19t47 -19t19 -47t-19 -47.5t-47 -19.5t-47.5 19.5 t-19.5 47.5zM475 301q0 28 20 47t48 19t46.5 -19t18.5 -47t-19 -48t-46 -20q-28 0 -48 20t-20 48zM717 422q0 28 19.5 46.5t47.5 18.5t47 -18.5t19 -46.5t-19 -48t-47 -20t-47.5 20t-19.5 48zM475 543q0 27 20 46t48 19t46.5 -18.5t18.5 -46.5t-19 -48t-46 -20q-28 0 -48 20 t-20 48zM233 664q0 27 20 46t48 19t47 -18.5t19 -46.5t-19 -48t-47 -20t-48 20t-20 48zM475 784q0 28 20 47t48 19t46.5 -19t18.5 -47t-18.5 -47.5t-46.5 -19.5t-48 19.5t-20 47.5zM113 905q0 28 19.5 47t47.5 19t47 -19t19 -47t-19 -47.5t-47 -19.5t-47.5 19.5t-19.5 47.5z M838 1026q0 28 19.5 47t47.5 19t47 -19t19 -47t-19 -48t-47 -20t-47.5 20t-19.5 48zM596 1026q0 28 20 47t48 19t46.5 -19t18.5 -47t-19 -48t-46 -20q-28 0 -48 20t-20 48zM354 1026q0 28 20 47t48 19t46.5 -19t18.5 -47t-19 -48t-46 -20q-28 0 -48 20t-20 48z" />
<glyph unicode="%" d="M354 1026q0 28 20 47t48 19t46.5 -19t18.5 -47t-19 -48t-46 -20q-28 0 -48 20t-20 48zM838 59q0 28 19.5 47t47.5 19t47 -19t19 -47t-19 -47.5t-47 -19.5t-47.5 19.5t-19.5 47.5zM354 59q0 28 20 47t48 19t46.5 -19t18.5 -47t-18.5 -47.5t-46.5 -19.5t-48 19.5t-20 47.5z M1079 180q0 28 20 47t48 19t46.5 -19t18.5 -47t-18.5 -47.5t-46.5 -19.5t-48 19.5t-20 47.5zM717 301q0 28 19.5 47t47.5 19t47 -19t19 -47t-19 -48t-47 -20t-47.5 20t-19.5 48zM475 301q0 28 20 47t48 19t46.5 -19t18.5 -47t-19 -48t-46 -20q-28 0 -48 20t-20 48zM958 422 q0 27 20 46t48 19t47 -18.5t19 -46.5t-19 -48t-47 -20t-48 20t-20 48zM596 543q0 27 20 46t48 19t46.5 -18.5t18.5 -46.5t-19 -48t-46 -20q-28 0 -48 20t-20 48zM233 664q0 27 20 46t48 19t47 -18.5t19 -46.5t-19 -48t-47 -20t-48 20t-20 48zM717 784q0 28 19.5 47t47.5 19 t47 -19t19 -47t-19 -47.5t-47 -19.5t-47.5 19.5t-19.5 47.5zM475 784q0 28 20 47t48 19t46.5 -19t18.5 -47t-18.5 -47.5t-46.5 -19.5t-48 19.5t-20 47.5zM113 905q0 28 19.5 47t47.5 19t47 -19t19 -47t-19 -47.5t-47 -19.5t-47.5 19.5t-19.5 47.5zM838 1026q0 28 19.5 47 t47.5 19t47 -19t19 -47t-19 -48t-47 -20t-47.5 20t-19.5 48z" />
<glyph unicode="&#x26;" horiz-adv-x="1570" d="M596 1026q0 28 20 47t48 19t46.5 -19t18.5 -47t-19 -48t-46 -20q-28 0 -48 20t-20 48zM1321 59q0 28 20 47t48 19t46.5 -19t18.5 -47t-18.5 -47.5t-46.5 -19.5t-48 19.5t-20 47.5zM838 59q0 28 19.5 47t47.5 19t47 -19t19 -47t-19 -47.5t-47 -19.5t-47.5 19.5t-19.5 47.5 zM596 59q0 28 20 47t48 19t46.5 -19t18.5 -47t-18.5 -47.5t-46.5 -19.5t-48 19.5t-20 47.5zM354 59q0 28 20 47t48 19t46.5 -19t18.5 -47t-18.5 -47.5t-46.5 -19.5t-48 19.5t-20 47.5zM1079 180q0 28 20 47t48 19t46.5 -19t18.5 -47t-18.5 -47.5t-46.5 -19.5t-48 19.5 t-20 47.5zM113 301q0 28 19.5 47t47.5 19t47 -19t19 -47t-19 -48t-47 -20t-47.5 20t-19.5 48zM1321 422q0 27 20 46t48 19t46.5 -18.5t18.5 -46.5t-19 -48t-46 -20q-28 0 -48 20t-20 48zM838 422q0 28 19.5 46.5t47.5 18.5t47 -18.5t19 -46.5t-19 -48t-47 -20t-47.5 20 t-19.5 48zM354 422q0 27 20 46t48 19t46.5 -18.5t18.5 -46.5t-19 -48t-46 -20q-28 0 -48 20t-20 48zM596 543q0 27 20 46t48 19t46.5 -18.5t18.5 -46.5t-19 -48t-46 -20q-28 0 -48 20t-20 48zM838 664q0 28 19.5 46.5t47.5 18.5t47 -18.5t19 -46.5t-19 -48t-47 -20t-47.5 20 t-19.5 48zM354 664q0 27 20 46t48 19t46.5 -18.5t18.5 -46.5t-19 -48t-46 -20q-28 0 -48 20t-20 48zM1079 784q0 28 20 47t48 19t46.5 -19t18.5 -47t-18.5 -47.5t-46.5 -19.5t-48 19.5t-20 47.5zM354 905q0 28 20 47t48 19t46.5 -19t18.5 -47t-18.5 -47.5t-46.5 -19.5 t-48 19.5t-20 47.5zM838 1026q0 28 19.5 47t47.5 19t47 -19t19 -47t-19 -48t-47 -20t-47.5 20t-19.5 48z" />
<glyph unicode="'" horiz-adv-x="362" d="M113 1389q0 28 19.5 46.5t47.5 18.5t47 -18.5t19 -46.5t-19 -48t-47 -20t-47.5 20t-19.5 48zM113 1147q0 28 19.5 46.5t47.5 18.5t47 -18.5t19 -46.5t-19 -48t-47 -20t-47.5 20t-19.5 48z" />
<glyph unicode="(" horiz-adv-x="724" d="M475 1026q0 28 20 47t48 19t46.5 -19t18.5 -47t-19 -48t-46 -20q-28 0 -48 20t-20 48zM475 59q0 28 20 47t48 19t46.5 -19t18.5 -47t-18.5 -47.5t-46.5 -19.5t-48 19.5t-20 47.5zM233 180q0 28 20 47t48 19t47 -19t19 -47t-19 -47.5t-47 -19.5t-48 19.5t-20 47.5z M113 422q0 28 19.5 46.5t47.5 18.5t47 -18.5t19 -46.5t-19 -48t-47 -20t-47.5 20t-19.5 48zM113 664q0 28 19.5 46.5t47.5 18.5t47 -18.5t19 -46.5t-19 -48t-47 -20t-47.5 20t-19.5 48zM233 905q0 28 20 47t48 19t47 -19t19 -47t-19 -47.5t-47 -19.5t-48 19.5t-20 47.5z" />
<glyph unicode=")" horiz-adv-x="724" d="M113 1026q0 28 19.5 47t47.5 19t47 -19t19 -47t-19 -48t-47 -20t-47.5 20t-19.5 48zM113 59q0 28 19.5 47t47.5 19t47 -19t19 -47t-19 -47.5t-47 -19.5t-47.5 19.5t-19.5 47.5zM354 180q0 28 20 47t48 19t46.5 -19t18.5 -47t-18.5 -47.5t-46.5 -19.5t-48 19.5t-20 47.5z M475 422q0 27 20 46t48 19t46.5 -18.5t18.5 -46.5t-19 -48t-46 -20q-28 0 -48 20t-20 48zM475 664q0 27 20 46t48 19t46.5 -18.5t18.5 -46.5t-19 -48t-46 -20q-28 0 -48 20t-20 48zM354 905q0 28 20 47t48 19t46.5 -19t18.5 -47t-18.5 -47.5t-46.5 -19.5t-48 19.5t-20 47.5z " />
<glyph unicode="*" d="M113 1026q0 28 19.5 47t47.5 19t47 -19t19 -47t-19 -48t-47 -20t-47.5 20t-19.5 48zM1079 59q0 28 20 47t48 19t46.5 -19t18.5 -47t-18.5 -47.5t-46.5 -19.5t-48 19.5t-20 47.5zM596 59q0 28 20 47t48 19t46.5 -19t18.5 -47t-18.5 -47.5t-46.5 -19.5t-48 19.5t-20 47.5z M113 59q0 28 19.5 47t47.5 19t47 -19t19 -47t-19 -47.5t-47 -19.5t-47.5 19.5t-19.5 47.5zM838 301q0 28 19.5 47t47.5 19t47 -19t19 -47t-19 -48t-47 -20t-47.5 20t-19.5 48zM596 301q0 28 20 47t48 19t46.5 -19t18.5 -47t-19 -48t-46 -20q-28 0 -48 20t-20 48zM354 301 q0 28 20 47t48 19t46.5 -19t18.5 -47t-19 -48t-46 -20q-28 0 -48 20t-20 48zM1079 543q0 27 20 46t48 19t46.5 -18.5t18.5 -46.5t-19 -48t-46 -20q-28 0 -48 20t-20 48zM838 543q0 28 19.5 46.5t47.5 18.5t47 -18.5t19 -46.5t-19 -48t-47 -20t-47.5 20t-19.5 48zM596 543 q0 27 20 46t48 19t46.5 -18.5t18.5 -46.5t-19 -48t-46 -20q-28 0 -48 20t-20 48zM354 543q0 27 20 46t48 19t46.5 -18.5t18.5 -46.5t-19 -48t-46 -20q-28 0 -48 20t-20 48zM113 543q0 28 19.5 46.5t47.5 18.5t47 -18.5t19 -46.5t-19 -48t-47 -20t-47.5 20t-19.5 48zM838 784 q0 28 19.5 47t47.5 19t47 -19t19 -47t-19 -47.5t-47 -19.5t-47.5 19.5t-19.5 47.5zM596 784q0 28 20 47t48 19t46.5 -19t18.5 -47t-18.5 -47.5t-46.5 -19.5t-48 19.5t-20 47.5zM354 784q0 28 20 47t48 19t46.5 -19t18.5 -47t-18.5 -47.5t-46.5 -19.5t-48 19.5t-20 47.5z M1079 1026q0 28 20 47t48 19t46.5 -19t18.5 -47t-19 -48t-46 -20q-28 0 -48 20t-20 48zM596 1026q0 28 20 47t48 19t46.5 -19t18.5 -47t-19 -48t-46 -20q-28 0 -48 20t-20 48z" />
<glyph unicode="+" d="M596 1026q0 28 20 47t48 19t46.5 -19t18.5 -47t-19 -48t-46 -20q-28 0 -48 20t-20 48zM596 59q0 28 20 47t48 19t46.5 -19t18.5 -47t-18.5 -47.5t-46.5 -19.5t-48 19.5t-20 47.5zM596 301q0 28 20 47t48 19t46.5 -19t18.5 -47t-19 -48t-46 -20q-28 0 -48 20t-20 48z M1079 543q0 27 20 46t48 19t46.5 -18.5t18.5 -46.5t-19 -48t-46 -20q-28 0 -48 20t-20 48zM838 543q0 28 19.5 46.5t47.5 18.5t47 -18.5t19 -46.5t-19 -48t-47 -20t-47.5 20t-19.5 48zM596 543q0 27 20 46t48 19t46.5 -18.5t18.5 -46.5t-19 -48t-46 -20q-28 0 -48 20t-20 48 zM354 543q0 27 20 46t48 19t46.5 -18.5t18.5 -46.5t-19 -48t-46 -20q-28 0 -48 20t-20 48zM113 543q0 28 19.5 46.5t47.5 18.5t47 -18.5t19 -46.5t-19 -48t-47 -20t-47.5 20t-19.5 48zM596 784q0 28 20 47t48 19t46.5 -19t18.5 -47t-18.5 -47.5t-46.5 -19.5t-48 19.5 t-20 47.5z" />
<glyph unicode="," horiz-adv-x="362" d="M113 59q0 28 19.5 47t47.5 19t47 -19t19 -47t-19 -47.5t-47 -19.5t-47.5 19.5t-19.5 47.5zM-8 -182q0 28 19.5 46.5t47.5 18.5t47 -18.5t19 -46.5t-19 -48t-47 -20t-47.5 20t-19.5 48z" />
<glyph unicode="-" horiz-adv-x="1087" d="M113 543q0 28 19.5 46.5t47.5 18.5t47 -18.5t19 -46.5t-19 -48t-47 -20t-47.5 20t-19.5 48zM838 543q0 28 19.5 46.5t47.5 18.5t47 -18.5t19 -46.5t-19 -48t-47 -20t-47.5 20t-19.5 48zM596 543q0 27 20 46t48 19t46.5 -18.5t18.5 -46.5t-19 -48t-46 -20q-28 0 -48 20 t-20 48zM354 543q0 27 20 46t48 19t46.5 -18.5t18.5 -46.5t-19 -48t-46 -20q-28 0 -48 20t-20 48z" />
<glyph unicode="." horiz-adv-x="362" d="M113 59q0 28 19.5 47t47.5 19t47 -19t19 -47t-19 -47.5t-47 -19.5t-47.5 19.5t-19.5 47.5z" />
<glyph unicode="/" horiz-adv-x="845" d="M596 1026q0 28 20 47t48 19t46.5 -19t18.5 -47t-19 -48t-46 -20q-28 0 -48 20t-20 48zM113 59q0 28 19.5 47t47.5 19t47 -19t19 -47t-19 -47.5t-47 -19.5t-47.5 19.5t-19.5 47.5zM233 301q0 28 20 47t48 19t47 -19t19 -47t-19 -48t-47 -20t-48 20t-20 48zM354 543 q0 27 20 46t48 19t46.5 -18.5t18.5 -46.5t-19 -48t-46 -20q-28 0 -48 20t-20 48zM475 784q0 28 20 47t48 19t46.5 -19t18.5 -47t-18.5 -47.5t-46.5 -19.5t-48 19.5t-20 47.5z" />
<glyph unicode="0" d="M475 1026q0 28 20 47t48 19t46.5 -19t18.5 -47t-19 -48t-46 -20q-28 0 -48 20t-20 48zM717 59q0 28 19.5 47t47.5 19t47 -19t19 -47t-19 -47.5t-47 -19.5t-47.5 19.5t-19.5 47.5zM475 59q0 28 20 47t48 19t46.5 -19t18.5 -47t-18.5 -47.5t-46.5 -19.5t-48 19.5t-20 47.5z M958 180q0 28 20 47t48 19t47 -19t19 -47t-19 -47.5t-47 -19.5t-48 19.5t-20 47.5zM233 180q0 28 20 47t48 19t47 -19t19 -47t-19 -47.5t-47 -19.5t-48 19.5t-20 47.5zM1079 422q0 27 20 46t48 19t46.5 -18.5t18.5 -46.5t-19 -48t-46 -20q-28 0 -48 20t-20 48zM113 422 q0 28 19.5 46.5t47.5 18.5t47 -18.5t19 -46.5t-19 -48t-47 -20t-47.5 20t-19.5 48zM1079 664q0 27 20 46t48 19t46.5 -18.5t18.5 -46.5t-19 -48t-46 -20q-28 0 -48 20t-20 48zM113 664q0 28 19.5 46.5t47.5 18.5t47 -18.5t19 -46.5t-19 -48t-47 -20t-47.5 20t-19.5 48z M958 905q0 28 20 47t48 19t47 -19t19 -47t-19 -47.5t-47 -19.5t-48 19.5t-20 47.5zM233 905q0 28 20 47t48 19t47 -19t19 -47t-19 -47.5t-47 -19.5t-48 19.5t-20 47.5zM717 1026q0 28 19.5 47t47.5 19t47 -19t19 -47t-19 -48t-47 -20t-47.5 20t-19.5 48z" />
<glyph unicode="1" horiz-adv-x="845" d="M354 1026q0 28 20 47t48 19t46.5 -19t18.5 -47t-19 -48t-46 -20q-28 0 -48 20t-20 48zM596 59q0 28 20 47t48 19t46.5 -19t18.5 -47t-18.5 -47.5t-46.5 -19.5t-48 19.5t-20 47.5zM354 59q0 28 20 47t48 19t46.5 -19t18.5 -47t-18.5 -47.5t-46.5 -19.5t-48 19.5t-20 47.5z M113 59q0 28 19.5 47t47.5 19t47 -19t19 -47t-19 -47.5t-47 -19.5t-47.5 19.5t-19.5 47.5zM354 301q0 28 20 47t48 19t46.5 -19t18.5 -47t-19 -48t-46 -20q-28 0 -48 20t-20 48zM354 543q0 27 20 46t48 19t46.5 -18.5t18.5 -46.5t-19 -48t-46 -20q-28 0 -48 20t-20 48z M354 784q0 28 20 47t48 19t46.5 -19t18.5 -47t-18.5 -47.5t-46.5 -19.5t-48 19.5t-20 47.5zM113 905q0 28 19.5 47t47.5 19t47 -19t19 -47t-19 -47.5t-47 -19.5t-47.5 19.5t-19.5 47.5z" />
<glyph unicode="2" horiz-adv-x="1087" d="M113 1026q0 28 19.5 47t47.5 19t47 -19t19 -47t-19 -48t-47 -20t-47.5 20t-19.5 48zM838 59q0 28 19.5 47t47.5 19t47 -19t19 -47t-19 -47.5t-47 -19.5t-47.5 19.5t-19.5 47.5zM596 59q0 28 20 47t48 19t46.5 -19t18.5 -47t-18.5 -47.5t-46.5 -19.5t-48 19.5t-20 47.5z M354 59q0 28 20 47t48 19t46.5 -19t18.5 -47t-18.5 -47.5t-46.5 -19.5t-48 19.5t-20 47.5zM113 59q0 28 19.5 47t47.5 19t47 -19t19 -47t-19 -47.5t-47 -19.5t-47.5 19.5t-19.5 47.5zM113 301q0 28 19.5 47t47.5 19t47 -19t19 -47t-19 -48t-47 -20t-47.5 20t-19.5 48z M354 422q0 27 20 46t48 19t46.5 -18.5t18.5 -46.5t-19 -48t-46 -20q-28 0 -48 20t-20 48zM596 543q0 27 20 46t48 19t46.5 -18.5t18.5 -46.5t-19 -48t-46 -20q-28 0 -48 20t-20 48zM838 784q0 28 19.5 47t47.5 19t47 -19t19 -47t-19 -47.5t-47 -19.5t-47.5 19.5t-19.5 47.5z M596 1026q0 28 20 47t48 19t46.5 -19t18.5 -47t-19 -48t-46 -20q-28 0 -48 20t-20 48zM354 1026q0 28 20 47t48 19t46.5 -19t18.5 -47t-19 -48t-46 -20q-28 0 -48 20t-20 48z" />
<glyph unicode="3" d="M113 1026q0 28 19.5 47t47.5 19t47 -19t19 -47t-19 -48t-47 -20t-47.5 20t-19.5 48zM838 59q0 28 19.5 47t47.5 19t47 -19t19 -47t-19 -47.5t-47 -19.5t-47.5 19.5t-19.5 47.5zM596 59q0 28 20 47t48 19t46.5 -19t18.5 -47t-18.5 -47.5t-46.5 -19.5t-48 19.5t-20 47.5z M354 59q0 28 20 47t48 19t46.5 -19t18.5 -47t-18.5 -47.5t-46.5 -19.5t-48 19.5t-20 47.5zM113 59q0 28 19.5 47t47.5 19t47 -19t19 -47t-19 -47.5t-47 -19.5t-47.5 19.5t-19.5 47.5zM1079 301q0 28 20 47t48 19t46.5 -19t18.5 -47t-19 -48t-46 -20q-28 0 -48 20t-20 48z M1079 543q0 27 20 46t48 19t46.5 -18.5t18.5 -46.5t-19 -48t-46 -20q-28 0 -48 20t-20 48zM838 543q0 28 19.5 46.5t47.5 18.5t47 -18.5t19 -46.5t-19 -48t-47 -20t-47.5 20t-19.5 48zM596 543q0 27 20 46t48 19t46.5 -18.5t18.5 -46.5t-19 -48t-46 -20q-28 0 -48 20t-20 48 zM354 543q0 27 20 46t48 19t46.5 -18.5t18.5 -46.5t-19 -48t-46 -20q-28 0 -48 20t-20 48zM958 784q0 28 20 47t48 19t47 -19t19 -47t-19 -47.5t-47 -19.5t-48 19.5t-20 47.5zM838 1026q0 28 19.5 47t47.5 19t47 -19t19 -47t-19 -48t-47 -20t-47.5 20t-19.5 48zM596 1026 q0 28 20 47t48 19t46.5 -19t18.5 -47t-19 -48t-46 -20q-28 0 -48 20t-20 48zM354 1026q0 28 20 47t48 19t46.5 -19t18.5 -47t-19 -48t-46 -20q-28 0 -48 20t-20 48z" />
<glyph unicode="4" d="M838 1147q0 28 19.5 46.5t47.5 18.5t47 -18.5t19 -46.5t-19 -48t-47 -20t-47.5 20t-19.5 48zM838 -61q0 28 19.5 46.5t47.5 18.5t47 -18.5t19 -46.5t-19 -48t-47 -20t-47.5 20t-19.5 48zM838 180q0 28 19.5 47t47.5 19t47 -19t19 -47t-19 -47.5t-47 -19.5t-47.5 19.5 t-19.5 47.5zM1079 301q0 28 20 47t48 19t46.5 -19t18.5 -47t-19 -48t-46 -20q-28 0 -48 20t-20 48zM596 301q0 28 20 47t48 19t46.5 -19t18.5 -47t-19 -48t-46 -20q-28 0 -48 20t-20 48zM354 301q0 28 20 47t48 19t46.5 -19t18.5 -47t-19 -48t-46 -20q-28 0 -48 20t-20 48z M113 301q0 28 19.5 47t47.5 19t47 -19t19 -47t-19 -48t-47 -20t-47.5 20t-19.5 48zM838 422q0 28 19.5 46.5t47.5 18.5t47 -18.5t19 -46.5t-19 -48t-47 -20t-47.5 20t-19.5 48zM113 543q0 28 19.5 46.5t47.5 18.5t47 -18.5t19 -46.5t-19 -48t-47 -20t-47.5 20t-19.5 48z M838 664q0 28 19.5 46.5t47.5 18.5t47 -18.5t19 -46.5t-19 -48t-47 -20t-47.5 20t-19.5 48zM354 784q0 28 20 47t48 19t46.5 -19t18.5 -47t-18.5 -47.5t-46.5 -19.5t-48 19.5t-20 47.5zM838 905q0 28 19.5 47t47.5 19t47 -19t19 -47t-19 -47.5t-47 -19.5t-47.5 19.5 t-19.5 47.5zM596 905q0 28 20 47t48 19t46.5 -19t18.5 -47t-18.5 -47.5t-46.5 -19.5t-48 19.5t-20 47.5z" />
<glyph unicode="5" horiz-adv-x="1087" d="M113 1026q0 28 19.5 47t47.5 19t47 -19t19 -47t-19 -48t-47 -20t-47.5 20t-19.5 48zM596 59q0 28 20 47t48 19t46.5 -19t18.5 -47t-18.5 -47.5t-46.5 -19.5t-48 19.5t-20 47.5zM354 59q0 28 20 47t48 19t46.5 -19t18.5 -47t-18.5 -47.5t-46.5 -19.5t-48 19.5t-20 47.5z M838 180q0 28 19.5 47t47.5 19t47 -19t19 -47t-19 -47.5t-47 -19.5t-47.5 19.5t-19.5 47.5zM113 180q0 28 19.5 47t47.5 19t47 -19t19 -47t-19 -47.5t-47 -19.5t-47.5 19.5t-19.5 47.5zM838 543q0 28 19.5 46.5t47.5 18.5t47 -18.5t19 -46.5t-19 -48t-47 -20t-47.5 20 t-19.5 48zM113 543q0 28 19.5 46.5t47.5 18.5t47 -18.5t19 -46.5t-19 -48t-47 -20t-47.5 20t-19.5 48zM596 664q0 27 20 46t48 19t46.5 -18.5t18.5 -46.5t-19 -48t-46 -20q-28 0 -48 20t-20 48zM354 664q0 27 20 46t48 19t46.5 -18.5t18.5 -46.5t-19 -48t-46 -20 q-28 0 -48 20t-20 48zM113 784q0 28 19.5 47t47.5 19t47 -19t19 -47t-19 -47.5t-47 -19.5t-47.5 19.5t-19.5 47.5zM838 1026q0 28 19.5 47t47.5 19t47 -19t19 -47t-19 -48t-47 -20t-47.5 20t-19.5 48zM596 1026q0 28 20 47t48 19t46.5 -19t18.5 -47t-19 -48t-46 -20 q-28 0 -48 20t-20 48zM354 1026q0 28 20 47t48 19t46.5 -19t18.5 -47t-19 -48t-46 -20q-28 0 -48 20t-20 48z" />
<glyph unicode="6" d="M475 1026q0 28 20 47t48 19t46.5 -19t18.5 -47t-19 -48t-46 -20q-28 0 -48 20t-20 48zM838 59q0 28 19.5 47t47.5 19t47 -19t19 -47t-19 -47.5t-47 -19.5t-47.5 19.5t-19.5 47.5zM596 59q0 28 20 47t48 19t46.5 -19t18.5 -47t-18.5 -47.5t-46.5 -19.5t-48 19.5t-20 47.5z M354 59q0 28 20 47t48 19t46.5 -19t18.5 -47t-18.5 -47.5t-46.5 -19.5t-48 19.5t-20 47.5zM1079 301q0 28 20 47t48 19t46.5 -19t18.5 -47t-19 -48t-46 -20q-28 0 -48 20t-20 48zM113 301q0 28 19.5 47t47.5 19t47 -19t19 -47t-19 -48t-47 -20t-47.5 20t-19.5 48zM838 543 q0 28 19.5 46.5t47.5 18.5t47 -18.5t19 -46.5t-19 -48t-47 -20t-47.5 20t-19.5 48zM596 543q0 27 20 46t48 19t46.5 -18.5t18.5 -46.5t-19 -48t-46 -20q-28 0 -48 20t-20 48zM354 543q0 27 20 46t48 19t46.5 -18.5t18.5 -46.5t-19 -48t-46 -20q-28 0 -48 20t-20 48zM113 543 q0 28 19.5 46.5t47.5 18.5t47 -18.5t19 -46.5t-19 -48t-47 -20t-47.5 20t-19.5 48zM233 784q0 28 20 47t48 19t47 -19t19 -47t-19 -47.5t-47 -19.5t-48 19.5t-20 47.5zM717 1026q0 28 19.5 47t47.5 19t47 -19t19 -47t-19 -48t-47 -20t-47.5 20t-19.5 48z" />
<glyph unicode="7" d="M113 1026q0 28 19.5 47t47.5 19t47 -19t19 -47t-19 -48t-47 -20t-47.5 20t-19.5 48zM354 59q0 28 20 47t48 19t46.5 -19t18.5 -47t-18.5 -47.5t-46.5 -19.5t-48 19.5t-20 47.5zM475 301q0 28 20 47t48 19t46.5 -19t18.5 -47t-19 -48t-46 -20q-28 0 -48 20t-20 48z M717 543q0 28 19.5 46.5t47.5 18.5t47 -18.5t19 -46.5t-19 -48t-47 -20t-47.5 20t-19.5 48zM958 784q0 28 20 47t48 19t47 -19t19 -47t-19 -47.5t-47 -19.5t-48 19.5t-20 47.5zM838 1026q0 28 19.5 47t47.5 19t47 -19t19 -47t-19 -48t-47 -20t-47.5 20t-19.5 48zM596 1026 q0 28 20 47t48 19t46.5 -19t18.5 -47t-19 -48t-46 -20q-28 0 -48 20t-20 48zM354 1026q0 28 20 47t48 19t46.5 -19t18.5 -47t-19 -48t-46 -20q-28 0 -48 20t-20 48z" />
<glyph unicode="8" d="M354 1026q0 28 20 47t48 19t46.5 -19t18.5 -47t-19 -48t-46 -20q-28 0 -48 20t-20 48zM838 59q0 28 19.5 47t47.5 19t47 -19t19 -47t-19 -47.5t-47 -19.5t-47.5 19.5t-19.5 47.5zM596 59q0 28 20 47t48 19t46.5 -19t18.5 -47t-18.5 -47.5t-46.5 -19.5t-48 19.5t-20 47.5z M354 59q0 28 20 47t48 19t46.5 -19t18.5 -47t-18.5 -47.5t-46.5 -19.5t-48 19.5t-20 47.5zM1079 301q0 28 20 47t48 19t46.5 -19t18.5 -47t-19 -48t-46 -20q-28 0 -48 20t-20 48zM113 301q0 28 19.5 47t47.5 19t47 -19t19 -47t-19 -48t-47 -20t-47.5 20t-19.5 48zM838 543 q0 28 19.5 46.5t47.5 18.5t47 -18.5t19 -46.5t-19 -48t-47 -20t-47.5 20t-19.5 48zM596 543q0 27 20 46t48 19t46.5 -18.5t18.5 -46.5t-19 -48t-46 -20q-28 0 -48 20t-20 48zM354 543q0 27 20 46t48 19t46.5 -18.5t18.5 -46.5t-19 -48t-46 -20q-28 0 -48 20t-20 48zM958 784 q0 28 20 47t48 19t47 -19t19 -47t-19 -47.5t-47 -19.5t-48 19.5t-20 47.5zM233 784q0 28 20 47t48 19t47 -19t19 -47t-19 -47.5t-47 -19.5t-48 19.5t-20 47.5zM838 1026q0 28 19.5 47t47.5 19t47 -19t19 -47t-19 -48t-47 -20t-47.5 20t-19.5 48zM596 1026q0 28 20 47t48 19 t46.5 -19t18.5 -47t-19 -48t-46 -20q-28 0 -48 20t-20 48z" />
<glyph unicode="9" d="M354 1026q0 28 20 47t48 19t46.5 -19t18.5 -47t-19 -48t-46 -20q-28 0 -48 20t-20 48zM717 59q0 28 19.5 47t47.5 19t47 -19t19 -47t-19 -47.5t-47 -19.5t-47.5 19.5t-19.5 47.5zM475 59q0 28 20 47t48 19t46.5 -19t18.5 -47t-18.5 -47.5t-46.5 -19.5t-48 19.5t-20 47.5z M958 301q0 28 20 47t48 19t47 -19t19 -47t-19 -48t-47 -20t-48 20t-20 48zM1079 543q0 27 20 46t48 19t46.5 -18.5t18.5 -46.5t-19 -48t-46 -20q-28 0 -48 20t-20 48zM838 543q0 28 19.5 46.5t47.5 18.5t47 -18.5t19 -46.5t-19 -48t-47 -20t-47.5 20t-19.5 48zM596 543 q0 27 20 46t48 19t46.5 -18.5t18.5 -46.5t-19 -48t-46 -20q-28 0 -48 20t-20 48zM354 543q0 27 20 46t48 19t46.5 -18.5t18.5 -46.5t-19 -48t-46 -20q-28 0 -48 20t-20 48zM1079 784q0 28 20 47t48 19t46.5 -19t18.5 -47t-18.5 -47.5t-46.5 -19.5t-48 19.5t-20 47.5z M113 784q0 28 19.5 47t47.5 19t47 -19t19 -47t-19 -47.5t-47 -19.5t-47.5 19.5t-19.5 47.5zM838 1026q0 28 19.5 47t47.5 19t47 -19t19 -47t-19 -48t-47 -20t-47.5 20t-19.5 48zM596 1026q0 28 20 47t48 19t46.5 -19t18.5 -47t-19 -48t-46 -20q-28 0 -48 20t-20 48z" />
<glyph unicode=":" horiz-adv-x="362" d="M113 784q0 28 19.5 47t47.5 19t47 -19t19 -47t-19 -47.5t-47 -19.5t-47.5 19.5t-19.5 47.5zM113 59q0 28 19.5 47t47.5 19t47 -19t19 -47t-19 -47.5t-47 -19.5t-47.5 19.5t-19.5 47.5z" />
<glyph unicode=";" horiz-adv-x="483" d="M233 784q0 28 20 47t48 19t47 -19t19 -47t-19 -47.5t-47 -19.5t-48 19.5t-20 47.5zM113 -182q0 28 19.5 46.5t47.5 18.5t47 -18.5t19 -46.5t-19 -48t-47 -20t-47.5 20t-19.5 48zM233 59q0 28 20 47t48 19t47 -19t19 -47t-19 -47.5t-47 -19.5t-48 19.5t-20 47.5z" />
<glyph unicode="&#x3c;" horiz-adv-x="845" d="M596 1026q0 28 20 47t48 19t46.5 -19t18.5 -47t-19 -48t-46 -20q-28 0 -48 20t-20 48zM596 59q0 28 20 47t48 19t46.5 -19t18.5 -47t-18.5 -47.5t-46.5 -19.5t-48 19.5t-20 47.5zM354 301q0 28 20 47t48 19t46.5 -19t18.5 -47t-19 -48t-46 -20q-28 0 -48 20t-20 48z M113 543q0 28 19.5 46.5t47.5 18.5t47 -18.5t19 -46.5t-19 -48t-47 -20t-47.5 20t-19.5 48zM354 784q0 28 20 47t48 19t46.5 -19t18.5 -47t-18.5 -47.5t-46.5 -19.5t-48 19.5t-20 47.5z" />
<glyph unicode="=" horiz-adv-x="1087" d="M113 784q0 28 19.5 47t47.5 19t47 -19t19 -47t-19 -47.5t-47 -19.5t-47.5 19.5t-19.5 47.5zM838 422q0 28 19.5 46.5t47.5 18.5t47 -18.5t19 -46.5t-19 -48t-47 -20t-47.5 20t-19.5 48zM596 422q0 27 20 46t48 19t46.5 -18.5t18.5 -46.5t-19 -48t-46 -20q-28 0 -48 20 t-20 48zM354 422q0 27 20 46t48 19t46.5 -18.5t18.5 -46.5t-19 -48t-46 -20q-28 0 -48 20t-20 48zM113 422q0 28 19.5 46.5t47.5 18.5t47 -18.5t19 -46.5t-19 -48t-47 -20t-47.5 20t-19.5 48zM838 784q0 28 19.5 47t47.5 19t47 -19t19 -47t-19 -47.5t-47 -19.5t-47.5 19.5 t-19.5 47.5zM596 784q0 28 20 47t48 19t46.5 -19t18.5 -47t-18.5 -47.5t-46.5 -19.5t-48 19.5t-20 47.5zM354 784q0 28 20 47t48 19t46.5 -19t18.5 -47t-18.5 -47.5t-46.5 -19.5t-48 19.5t-20 47.5z" />
<glyph unicode="&#x3e;" horiz-adv-x="845" d="M113 1026q0 28 19.5 47t47.5 19t47 -19t19 -47t-19 -48t-47 -20t-47.5 20t-19.5 48zM113 59q0 28 19.5 47t47.5 19t47 -19t19 -47t-19 -47.5t-47 -19.5t-47.5 19.5t-19.5 47.5zM354 301q0 28 20 47t48 19t46.5 -19t18.5 -47t-19 -48t-46 -20q-28 0 -48 20t-20 48z M596 543q0 27 20 46t48 19t46.5 -18.5t18.5 -46.5t-19 -48t-46 -20q-28 0 -48 20t-20 48zM354 784q0 28 20 47t48 19t46.5 -19t18.5 -47t-18.5 -47.5t-46.5 -19.5t-48 19.5t-20 47.5z" />
<glyph unicode="?" horiz-adv-x="845" d="M354 1026q0 28 20 47t48 19t46.5 -19t18.5 -47t-19 -48t-46 -20q-28 0 -48 20t-20 48zM354 59q0 28 20 47t48 19t46.5 -19t18.5 -47t-18.5 -47.5t-46.5 -19.5t-48 19.5t-20 47.5zM354 422q0 27 20 46t48 19t46.5 -18.5t18.5 -46.5t-19 -48t-46 -20q-28 0 -48 20t-20 48z M596 664q0 27 20 46t48 19t46.5 -18.5t18.5 -46.5t-19 -48t-46 -20q-28 0 -48 20t-20 48zM596 905q0 28 20 47t48 19t46.5 -19t18.5 -47t-18.5 -47.5t-46.5 -19.5t-48 19.5t-20 47.5zM113 905q0 28 19.5 47t47.5 19t47 -19t19 -47t-19 -47.5t-47 -19.5t-47.5 19.5 t-19.5 47.5z" />
<glyph unicode="@" d="M475 1026q0 28 20 47t48 19t46.5 -19t18.5 -47t-19 -48t-46 -20q-28 0 -48 20t-20 48zM596 -182q0 27 20 46t48 19t46.5 -18.5t18.5 -46.5t-19 -48t-46 -20q-28 0 -48 20t-20 48zM354 -61q0 27 20 46t48 19t46.5 -18.5t18.5 -46.5t-19 -48t-46 -20q-28 0 -48 20t-20 48z M717 59q0 28 19.5 47t47.5 19t47 -19t19 -47t-19 -47.5t-47 -19.5t-47.5 19.5t-19.5 47.5zM958 180q0 28 20 47t48 19t47 -19t19 -47t-19 -47.5t-47 -19.5t-48 19.5t-20 47.5zM233 180q0 28 20 47t48 19t47 -19t19 -47t-19 -47.5t-47 -19.5t-48 19.5t-20 47.5zM717 301 q0 28 19.5 47t47.5 19t47 -19t19 -47t-19 -48t-47 -20t-47.5 20t-19.5 48zM475 301q0 28 20 47t48 19t46.5 -19t18.5 -47t-19 -48t-46 -20q-28 0 -48 20t-20 48zM1079 422q0 27 20 46t48 19t46.5 -18.5t18.5 -46.5t-19 -48t-46 -20q-28 0 -48 20t-20 48zM113 422 q0 28 19.5 46.5t47.5 18.5t47 -18.5t19 -46.5t-19 -48t-47 -20t-47.5 20t-19.5 48zM717 543q0 28 19.5 46.5t47.5 18.5t47 -18.5t19 -46.5t-19 -48t-47 -20t-47.5 20t-19.5 48zM475 543q0 27 20 46t48 19t46.5 -18.5t18.5 -46.5t-19 -48t-46 -20q-28 0 -48 20t-20 48z M1079 664q0 27 20 46t48 19t46.5 -18.5t18.5 -46.5t-19 -48t-46 -20q-28 0 -48 20t-20 48zM113 664q0 28 19.5 46.5t47.5 18.5t47 -18.5t19 -46.5t-19 -48t-47 -20t-47.5 20t-19.5 48zM958 905q0 28 20 47t48 19t47 -19t19 -47t-19 -47.5t-47 -19.5t-48 19.5t-20 47.5z M233 905q0 28 20 47t48 19t47 -19t19 -47t-19 -47.5t-47 -19.5t-48 19.5t-20 47.5zM717 1026q0 28 19.5 47t47.5 19t47 -19t19 -47t-19 -48t-47 -20t-47.5 20t-19.5 48z" />
<glyph unicode="A" d="M354 1026q0 28 20 47t48 19t46.5 -19t18.5 -47t-19 -48t-46 -20q-28 0 -48 20t-20 48zM1079 59q0 28 20 47t48 19t46.5 -19t18.5 -47t-18.5 -47.5t-46.5 -19.5t-48 19.5t-20 47.5zM113 59q0 28 19.5 47t47.5 19t47 -19t19 -47t-19 -47.5t-47 -19.5t-47.5 19.5t-19.5 47.5 zM1079 301q0 28 20 47t48 19t46.5 -19t18.5 -47t-19 -48t-46 -20q-28 0 -48 20t-20 48zM113 301q0 28 19.5 47t47.5 19t47 -19t19 -47t-19 -48t-47 -20t-47.5 20t-19.5 48zM838 422q0 28 19.5 46.5t47.5 18.5t47 -18.5t19 -46.5t-19 -48t-47 -20t-47.5 20t-19.5 48zM596 422 q0 27 20 46t48 19t46.5 -18.5t18.5 -46.5t-19 -48t-46 -20q-28 0 -48 20t-20 48zM354 422q0 27 20 46t48 19t46.5 -18.5t18.5 -46.5t-19 -48t-46 -20q-28 0 -48 20t-20 48zM1079 543q0 27 20 46t48 19t46.5 -18.5t18.5 -46.5t-19 -48t-46 -20q-28 0 -48 20t-20 48zM113 543 q0 28 19.5 46.5t47.5 18.5t47 -18.5t19 -46.5t-19 -48t-47 -20t-47.5 20t-19.5 48zM1079 784q0 28 20 47t48 19t46.5 -19t18.5 -47t-18.5 -47.5t-46.5 -19.5t-48 19.5t-20 47.5zM113 784q0 28 19.5 47t47.5 19t47 -19t19 -47t-19 -47.5t-47 -19.5t-47.5 19.5t-19.5 47.5z M838 1026q0 28 19.5 47t47.5 19t47 -19t19 -47t-19 -48t-47 -20t-47.5 20t-19.5 48zM596 1026q0 28 20 47t48 19t46.5 -19t18.5 -47t-19 -48t-46 -20q-28 0 -48 20t-20 48z" />
<glyph unicode="B" d="M354 1026q0 28 20 47t48 19t46.5 -19t18.5 -47t-19 -48t-46 -20q-28 0 -48 20t-20 48zM838 59q0 28 19.5 47t47.5 19t47 -19t19 -47t-19 -47.5t-47 -19.5t-47.5 19.5t-19.5 47.5zM596 59q0 28 20 47t48 19t46.5 -19t18.5 -47t-18.5 -47.5t-46.5 -19.5t-48 19.5t-20 47.5z M354 59q0 28 20 47t48 19t46.5 -19t18.5 -47t-18.5 -47.5t-46.5 -19.5t-48 19.5t-20 47.5zM113 59q0 28 19.5 47t47.5 19t47 -19t19 -47t-19 -47.5t-47 -19.5t-47.5 19.5t-19.5 47.5zM1079 301q0 28 20 47t48 19t46.5 -19t18.5 -47t-19 -48t-46 -20q-28 0 -48 20t-20 48z M113 301q0 28 19.5 47t47.5 19t47 -19t19 -47t-19 -48t-47 -20t-47.5 20t-19.5 48zM1079 543q0 27 20 46t48 19t46.5 -18.5t18.5 -46.5t-19 -48t-46 -20q-28 0 -48 20t-20 48zM838 543q0 28 19.5 46.5t47.5 18.5t47 -18.5t19 -46.5t-19 -48t-47 -20t-47.5 20t-19.5 48z M596 543q0 27 20 46t48 19t46.5 -18.5t18.5 -46.5t-19 -48t-46 -20q-28 0 -48 20t-20 48zM354 543q0 27 20 46t48 19t46.5 -18.5t18.5 -46.5t-19 -48t-46 -20q-28 0 -48 20t-20 48zM113 543q0 28 19.5 46.5t47.5 18.5t47 -18.5t19 -46.5t-19 -48t-47 -20t-47.5 20t-19.5 48z M958 784q0 28 20 47t48 19t47 -19t19 -47t-19 -47.5t-47 -19.5t-48 19.5t-20 47.5zM113 784q0 28 19.5 47t47.5 19t47 -19t19 -47t-19 -47.5t-47 -19.5t-47.5 19.5t-19.5 47.5zM838 1026q0 28 19.5 47t47.5 19t47 -19t19 -47t-19 -48t-47 -20t-47.5 20t-19.5 48zM596 1026 q0 28 20 47t48 19t46.5 -19t18.5 -47t-19 -48t-46 -20q-28 0 -48 20t-20 48z" />
<glyph unicode="C" horiz-adv-x="1208" d="M475 1026q0 28 20 47t48 19t46.5 -19t18.5 -47t-19 -48t-46 -20q-28 0 -48 20t-20 48zM717 59q0 28 19.5 47t47.5 19t47 -19t19 -47t-19 -47.5t-47 -19.5t-47.5 19.5t-19.5 47.5zM475 59q0 28 20 47t48 19t46.5 -19t18.5 -47t-18.5 -47.5t-46.5 -19.5t-48 19.5t-20 47.5z M958 180q0 28 20 47t48 19t47 -19t19 -47t-19 -47.5t-47 -19.5t-48 19.5t-20 47.5zM233 180q0 28 20 47t48 19t47 -19t19 -47t-19 -47.5t-47 -19.5t-48 19.5t-20 47.5zM113 422q0 28 19.5 46.5t47.5 18.5t47 -18.5t19 -46.5t-19 -48t-47 -20t-47.5 20t-19.5 48zM113 664 q0 28 19.5 46.5t47.5 18.5t47 -18.5t19 -46.5t-19 -48t-47 -20t-47.5 20t-19.5 48zM958 905q0 28 20 47t48 19t47 -19t19 -47t-19 -47.5t-47 -19.5t-48 19.5t-20 47.5zM233 905q0 28 20 47t48 19t47 -19t19 -47t-19 -47.5t-47 -19.5t-48 19.5t-20 47.5zM717 1026 q0 28 19.5 47t47.5 19t47 -19t19 -47t-19 -48t-47 -20t-47.5 20t-19.5 48z" />
<glyph unicode="D" horiz-adv-x="1208" d="M354 1026q0 28 20 47t48 19t46.5 -19t18.5 -47t-19 -48t-46 -20q-28 0 -48 20t-20 48zM596 59q0 28 20 47t48 19t46.5 -19t18.5 -47t-18.5 -47.5t-46.5 -19.5t-48 19.5t-20 47.5zM354 59q0 28 20 47t48 19t46.5 -19t18.5 -47t-18.5 -47.5t-46.5 -19.5t-48 19.5t-20 47.5z M113 59q0 28 19.5 47t47.5 19t47 -19t19 -47t-19 -47.5t-47 -19.5t-47.5 19.5t-19.5 47.5zM838 180q0 28 19.5 47t47.5 19t47 -19t19 -47t-19 -47.5t-47 -19.5t-47.5 19.5t-19.5 47.5zM113 301q0 28 19.5 47t47.5 19t47 -19t19 -47t-19 -48t-47 -20t-47.5 20t-19.5 48z M958 422q0 27 20 46t48 19t47 -18.5t19 -46.5t-19 -48t-47 -20t-48 20t-20 48zM113 543q0 28 19.5 46.5t47.5 18.5t47 -18.5t19 -46.5t-19 -48t-47 -20t-47.5 20t-19.5 48zM958 664q0 27 20 46t48 19t47 -18.5t19 -46.5t-19 -48t-47 -20t-48 20t-20 48zM113 784 q0 28 19.5 47t47.5 19t47 -19t19 -47t-19 -47.5t-47 -19.5t-47.5 19.5t-19.5 47.5zM838 905q0 28 19.5 47t47.5 19t47 -19t19 -47t-19 -47.5t-47 -19.5t-47.5 19.5t-19.5 47.5zM596 1026q0 28 20 47t48 19t46.5 -19t18.5 -47t-19 -48t-46 -20q-28 0 -48 20t-20 48z" />
<glyph unicode="E" d="M354 1026q0 28 20 47t48 19t46.5 -19t18.5 -47t-19 -48t-46 -20q-28 0 -48 20t-20 48zM1079 59q0 28 20 47t48 19t46.5 -19t18.5 -47t-18.5 -47.5t-46.5 -19.5t-48 19.5t-20 47.5zM838 59q0 28 19.5 47t47.5 19t47 -19t19 -47t-19 -47.5t-47 -19.5t-47.5 19.5t-19.5 47.5 zM596 59q0 28 20 47t48 19t46.5 -19t18.5 -47t-18.5 -47.5t-46.5 -19.5t-48 19.5t-20 47.5zM354 59q0 28 20 47t48 19t46.5 -19t18.5 -47t-18.5 -47.5t-46.5 -19.5t-48 19.5t-20 47.5zM113 301q0 28 19.5 47t47.5 19t47 -19t19 -47t-19 -48t-47 -20t-47.5 20t-19.5 48z M838 543q0 28 19.5 46.5t47.5 18.5t47 -18.5t19 -46.5t-19 -48t-47 -20t-47.5 20t-19.5 48zM596 543q0 27 20 46t48 19t46.5 -18.5t18.5 -46.5t-19 -48t-46 -20q-28 0 -48 20t-20 48zM354 543q0 27 20 46t48 19t46.5 -18.5t18.5 -46.5t-19 -48t-46 -20q-28 0 -48 20t-20 48z M113 543q0 28 19.5 46.5t47.5 18.5t47 -18.5t19 -46.5t-19 -48t-47 -20t-47.5 20t-19.5 48zM113 784q0 28 19.5 47t47.5 19t47 -19t19 -47t-19 -47.5t-47 -19.5t-47.5 19.5t-19.5 47.5zM1079 1026q0 28 20 47t48 19t46.5 -19t18.5 -47t-19 -48t-46 -20q-28 0 -48 20t-20 48z M838 1026q0 28 19.5 47t47.5 19t47 -19t19 -47t-19 -48t-47 -20t-47.5 20t-19.5 48zM596 1026q0 28 20 47t48 19t46.5 -19t18.5 -47t-19 -48t-46 -20q-28 0 -48 20t-20 48z" />
<glyph unicode="F" horiz-adv-x="1087" d="M354 1026q0 28 20 47t48 19t46.5 -19t18.5 -47t-19 -48t-46 -20q-28 0 -48 20t-20 48zM113 59q0 28 19.5 47t47.5 19t47 -19t19 -47t-19 -47.5t-47 -19.5t-47.5 19.5t-19.5 47.5zM113 301q0 28 19.5 47t47.5 19t47 -19t19 -47t-19 -48t-47 -20t-47.5 20t-19.5 48z M596 422q0 27 20 46t48 19t46.5 -18.5t18.5 -46.5t-19 -48t-46 -20q-28 0 -48 20t-20 48zM354 422q0 27 20 46t48 19t46.5 -18.5t18.5 -46.5t-19 -48t-46 -20q-28 0 -48 20t-20 48zM113 543q0 28 19.5 46.5t47.5 18.5t47 -18.5t19 -46.5t-19 -48t-47 -20t-47.5 20t-19.5 48z M113 784q0 28 19.5 47t47.5 19t47 -19t19 -47t-19 -47.5t-47 -19.5t-47.5 19.5t-19.5 47.5zM838 1026q0 28 19.5 47t47.5 19t47 -19t19 -47t-19 -48t-47 -20t-47.5 20t-19.5 48zM596 1026q0 28 20 47t48 19t46.5 -19t18.5 -47t-19 -48t-46 -20q-28 0 -48 20t-20 48z" />
<glyph unicode="G" d="M475 1026q0 28 20 47t48 19t46.5 -19t18.5 -47t-19 -48t-46 -20q-28 0 -48 20t-20 48zM958 59q0 28 20 47t48 19t47 -19t19 -47t-19 -47.5t-47 -19.5t-48 19.5t-20 47.5zM717 59q0 28 19.5 47t47.5 19t47 -19t19 -47t-19 -47.5t-47 -19.5t-47.5 19.5t-19.5 47.5zM475 59 q0 28 20 47t48 19t46.5 -19t18.5 -47t-18.5 -47.5t-46.5 -19.5t-48 19.5t-20 47.5zM233 180q0 28 20 47t48 19t47 -19t19 -47t-19 -47.5t-47 -19.5t-48 19.5t-20 47.5zM1079 301q0 28 20 47t48 19t46.5 -19t18.5 -47t-19 -48t-46 -20q-28 0 -48 20t-20 48zM113 422 q0 28 19.5 46.5t47.5 18.5t47 -18.5t19 -46.5t-19 -48t-47 -20t-47.5 20t-19.5 48zM1079 543q0 27 20 46t48 19t46.5 -18.5t18.5 -46.5t-19 -48t-46 -20q-28 0 -48 20t-20 48zM838 543q0 28 19.5 46.5t47.5 18.5t47 -18.5t19 -46.5t-19 -48t-47 -20t-47.5 20t-19.5 48z M596 543q0 27 20 46t48 19t46.5 -18.5t18.5 -46.5t-19 -48t-46 -20q-28 0 -48 20t-20 48zM113 664q0 28 19.5 46.5t47.5 18.5t47 -18.5t19 -46.5t-19 -48t-47 -20t-47.5 20t-19.5 48zM233 905q0 28 20 47t48 19t47 -19t19 -47t-19 -47.5t-47 -19.5t-48 19.5t-20 47.5z M958 1026q0 28 20 47t48 19t47 -19t19 -47t-19 -48t-47 -20t-48 20t-20 48zM717 1026q0 28 19.5 47t47.5 19t47 -19t19 -47t-19 -48t-47 -20t-47.5 20t-19.5 48z" />
<glyph unicode="H" d="M113 1026q0 28 19.5 47t47.5 19t47 -19t19 -47t-19 -48t-47 -20t-47.5 20t-19.5 48zM1079 59q0 28 20 47t48 19t46.5 -19t18.5 -47t-18.5 -47.5t-46.5 -19.5t-48 19.5t-20 47.5zM113 59q0 28 19.5 47t47.5 19t47 -19t19 -47t-19 -47.5t-47 -19.5t-47.5 19.5t-19.5 47.5z M1079 301q0 28 20 47t48 19t46.5 -19t18.5 -47t-19 -48t-46 -20q-28 0 -48 20t-20 48zM113 301q0 28 19.5 47t47.5 19t47 -19t19 -47t-19 -48t-47 -20t-47.5 20t-19.5 48zM1079 543q0 27 20 46t48 19t46.5 -18.5t18.5 -46.5t-19 -48t-46 -20q-28 0 -48 20t-20 48zM838 543 q0 28 19.5 46.5t47.5 18.5t47 -18.5t19 -46.5t-19 -48t-47 -20t-47.5 20t-19.5 48zM596 543q0 27 20 46t48 19t46.5 -18.5t18.5 -46.5t-19 -48t-46 -20q-28 0 -48 20t-20 48zM354 543q0 27 20 46t48 19t46.5 -18.5t18.5 -46.5t-19 -48t-46 -20q-28 0 -48 20t-20 48zM113 543 q0 28 19.5 46.5t47.5 18.5t47 -18.5t19 -46.5t-19 -48t-47 -20t-47.5 20t-19.5 48zM1079 784q0 28 20 47t48 19t46.5 -19t18.5 -47t-18.5 -47.5t-46.5 -19.5t-48 19.5t-20 47.5zM113 784q0 28 19.5 47t47.5 19t47 -19t19 -47t-19 -47.5t-47 -19.5t-47.5 19.5t-19.5 47.5z M1079 1026q0 28 20 47t48 19t46.5 -19t18.5 -47t-19 -48t-46 -20q-28 0 -48 20t-20 48z" />
<glyph unicode="I" horiz-adv-x="362" d="M113 1026q0 28 19.5 47t47.5 19t47 -19t19 -47t-19 -48t-47 -20t-47.5 20t-19.5 48zM113 59q0 28 19.5 47t47.5 19t47 -19t19 -47t-19 -47.5t-47 -19.5t-47.5 19.5t-19.5 47.5zM113 301q0 28 19.5 47t47.5 19t47 -19t19 -47t-19 -48t-47 -20t-47.5 20t-19.5 48zM113 543 q0 28 19.5 46.5t47.5 18.5t47 -18.5t19 -46.5t-19 -48t-47 -20t-47.5 20t-19.5 48zM113 784q0 28 19.5 47t47.5 19t47 -19t19 -47t-19 -47.5t-47 -19.5t-47.5 19.5t-19.5 47.5z" />
<glyph unicode="J" horiz-adv-x="362" d="M113 1026q0 28 19.5 47t47.5 19t47 -19t19 -47t-19 -48t-47 -20t-47.5 20t-19.5 48zM-8 -182q0 28 19.5 46.5t47.5 18.5t47 -18.5t19 -46.5t-19 -48t-47 -20t-47.5 20t-19.5 48zM113 59q0 28 19.5 47t47.5 19t47 -19t19 -47t-19 -47.5t-47 -19.5t-47.5 19.5t-19.5 47.5z M113 301q0 28 19.5 47t47.5 19t47 -19t19 -47t-19 -48t-47 -20t-47.5 20t-19.5 48zM113 543q0 28 19.5 46.5t47.5 18.5t47 -18.5t19 -46.5t-19 -48t-47 -20t-47.5 20t-19.5 48zM113 784q0 28 19.5 47t47.5 19t47 -19t19 -47t-19 -47.5t-47 -19.5t-47.5 19.5t-19.5 47.5z" />
<glyph unicode="K" d="M113 1026q0 28 19.5 47t47.5 19t47 -19t19 -47t-19 -48t-47 -20t-47.5 20t-19.5 48zM1079 59q0 28 20 47t48 19t46.5 -19t18.5 -47t-18.5 -47.5t-46.5 -19.5t-48 19.5t-20 47.5zM113 59q0 28 19.5 47t47.5 19t47 -19t19 -47t-19 -47.5t-47 -19.5t-47.5 19.5t-19.5 47.5z M838 301q0 28 19.5 47t47.5 19t47 -19t19 -47t-19 -48t-47 -20t-47.5 20t-19.5 48zM113 301q0 28 19.5 47t47.5 19t47 -19t19 -47t-19 -48t-47 -20t-47.5 20t-19.5 48zM596 543q0 27 20 46t48 19t46.5 -18.5t18.5 -46.5t-19 -48t-46 -20q-28 0 -48 20t-20 48zM354 543 q0 27 20 46t48 19t46.5 -18.5t18.5 -46.5t-19 -48t-46 -20q-28 0 -48 20t-20 48zM113 543q0 28 19.5 46.5t47.5 18.5t47 -18.5t19 -46.5t-19 -48t-47 -20t-47.5 20t-19.5 48zM838 784q0 28 19.5 47t47.5 19t47 -19t19 -47t-19 -47.5t-47 -19.5t-47.5 19.5t-19.5 47.5z M113 784q0 28 19.5 47t47.5 19t47 -19t19 -47t-19 -47.5t-47 -19.5t-47.5 19.5t-19.5 47.5zM1079 1026q0 28 20 47t48 19t46.5 -19t18.5 -47t-19 -48t-46 -20q-28 0 -48 20t-20 48z" />
<glyph unicode="L" horiz-adv-x="1208" d="M113 1026q0 28 19.5 47t47.5 19t47 -19t19 -47t-19 -48t-47 -20t-47.5 20t-19.5 48zM958 59q0 28 20 47t48 19t47 -19t19 -47t-19 -47.5t-47 -19.5t-48 19.5t-20 47.5zM717 59q0 28 19.5 47t47.5 19t47 -19t19 -47t-19 -47.5t-47 -19.5t-47.5 19.5t-19.5 47.5zM475 59 q0 28 20 47t48 19t46.5 -19t18.5 -47t-18.5 -47.5t-46.5 -19.5t-48 19.5t-20 47.5zM233 59q0 28 20 47t48 19t47 -19t19 -47t-19 -47.5t-47 -19.5t-48 19.5t-20 47.5zM113 301q0 28 19.5 47t47.5 19t47 -19t19 -47t-19 -48t-47 -20t-47.5 20t-19.5 48zM113 543 q0 28 19.5 46.5t47.5 18.5t47 -18.5t19 -46.5t-19 -48t-47 -20t-47.5 20t-19.5 48zM113 784q0 28 19.5 47t47.5 19t47 -19t19 -47t-19 -47.5t-47 -19.5t-47.5 19.5t-19.5 47.5z" />
<glyph unicode="M" horiz-adv-x="1812" d="M354 1026q0 28 20 47t48 19t46.5 -19t18.5 -47t-19 -48t-46 -20q-28 0 -48 20t-20 48zM1563 59q0 28 19.5 47t47.5 19t47 -19t19 -47t-19 -47.5t-47 -19.5t-47.5 19.5t-19.5 47.5zM838 59q0 28 19.5 47t47.5 19t47 -19t19 -47t-19 -47.5t-47 -19.5t-47.5 19.5t-19.5 47.5 zM113 59q0 28 19.5 47t47.5 19t47 -19t19 -47t-19 -47.5t-47 -19.5t-47.5 19.5t-19.5 47.5zM1563 301q0 28 19.5 47t47.5 19t47 -19t19 -47t-19 -48t-47 -20t-47.5 20t-19.5 48zM838 301q0 28 19.5 47t47.5 19t47 -19t19 -47t-19 -48t-47 -20t-47.5 20t-19.5 48zM113 301 q0 28 19.5 47t47.5 19t47 -19t19 -47t-19 -48t-47 -20t-47.5 20t-19.5 48zM1563 543q0 28 19.5 46.5t47.5 18.5t47 -18.5t19 -46.5t-19 -48t-47 -20t-47.5 20t-19.5 48zM838 543q0 28 19.5 46.5t47.5 18.5t47 -18.5t19 -46.5t-19 -48t-47 -20t-47.5 20t-19.5 48zM113 543 q0 28 19.5 46.5t47.5 18.5t47 -18.5t19 -46.5t-19 -48t-47 -20t-47.5 20t-19.5 48zM1563 784q0 28 19.5 47t47.5 19t47 -19t19 -47t-19 -47.5t-47 -19.5t-47.5 19.5t-19.5 47.5zM838 784q0 28 19.5 47t47.5 19t47 -19t19 -47t-19 -47.5t-47 -19.5t-47.5 19.5t-19.5 47.5z M113 784q0 28 19.5 47t47.5 19t47 -19t19 -47t-19 -47.5t-47 -19.5t-47.5 19.5t-19.5 47.5zM1321 1026q0 28 20 47t48 19t46.5 -19t18.5 -47t-19 -48t-46 -20q-28 0 -48 20t-20 48zM1079 1026q0 28 20 47t48 19t46.5 -19t18.5 -47t-19 -48t-46 -20q-28 0 -48 20t-20 48z M596 1026q0 28 20 47t48 19t46.5 -19t18.5 -47t-19 -48t-46 -20q-28 0 -48 20t-20 48z" />
<glyph unicode="N" d="M354 1026q0 28 20 47t48 19t46.5 -19t18.5 -47t-19 -48t-46 -20q-28 0 -48 20t-20 48zM1079 59q0 28 20 47t48 19t46.5 -19t18.5 -47t-18.5 -47.5t-46.5 -19.5t-48 19.5t-20 47.5zM113 59q0 28 19.5 47t47.5 19t47 -19t19 -47t-19 -47.5t-47 -19.5t-47.5 19.5t-19.5 47.5 zM1079 301q0 28 20 47t48 19t46.5 -19t18.5 -47t-19 -48t-46 -20q-28 0 -48 20t-20 48zM113 301q0 28 19.5 47t47.5 19t47 -19t19 -47t-19 -48t-47 -20t-47.5 20t-19.5 48zM1079 543q0 27 20 46t48 19t46.5 -18.5t18.5 -46.5t-19 -48t-46 -20q-28 0 -48 20t-20 48zM113 543 q0 28 19.5 46.5t47.5 18.5t47 -18.5t19 -46.5t-19 -48t-47 -20t-47.5 20t-19.5 48zM1079 784q0 28 20 47t48 19t46.5 -19t18.5 -47t-18.5 -47.5t-46.5 -19.5t-48 19.5t-20 47.5zM113 784q0 28 19.5 47t47.5 19t47 -19t19 -47t-19 -47.5t-47 -19.5t-47.5 19.5t-19.5 47.5z M838 1026q0 28 19.5 47t47.5 19t47 -19t19 -47t-19 -48t-47 -20t-47.5 20t-19.5 48zM596 1026q0 28 20 47t48 19t46.5 -19t18.5 -47t-19 -48t-46 -20q-28 0 -48 20t-20 48z" />
<glyph unicode="O" d="M475 1026q0 28 20 47t48 19t46.5 -19t18.5 -47t-19 -48t-46 -20q-28 0 -48 20t-20 48zM717 59q0 28 19.5 47t47.5 19t47 -19t19 -47t-19 -47.5t-47 -19.5t-47.5 19.5t-19.5 47.5zM475 59q0 28 20 47t48 19t46.5 -19t18.5 -47t-18.5 -47.5t-46.5 -19.5t-48 19.5t-20 47.5z M958 180q0 28 20 47t48 19t47 -19t19 -47t-19 -47.5t-47 -19.5t-48 19.5t-20 47.5zM233 180q0 28 20 47t48 19t47 -19t19 -47t-19 -47.5t-47 -19.5t-48 19.5t-20 47.5zM1079 422q0 27 20 46t48 19t46.5 -18.5t18.5 -46.5t-19 -48t-46 -20q-28 0 -48 20t-20 48zM113 422 q0 28 19.5 46.5t47.5 18.5t47 -18.5t19 -46.5t-19 -48t-47 -20t-47.5 20t-19.5 48zM1079 664q0 27 20 46t48 19t46.5 -18.5t18.5 -46.5t-19 -48t-46 -20q-28 0 -48 20t-20 48zM113 664q0 28 19.5 46.5t47.5 18.5t47 -18.5t19 -46.5t-19 -48t-47 -20t-47.5 20t-19.5 48z M958 905q0 28 20 47t48 19t47 -19t19 -47t-19 -47.5t-47 -19.5t-48 19.5t-20 47.5zM233 905q0 28 20 47t48 19t47 -19t19 -47t-19 -47.5t-47 -19.5t-48 19.5t-20 47.5zM717 1026q0 28 19.5 47t47.5 19t47 -19t19 -47t-19 -48t-47 -20t-47.5 20t-19.5 48z" />
<glyph unicode="P" d="M354 1026q0 28 20 47t48 19t46.5 -19t18.5 -47t-19 -48t-46 -20q-28 0 -48 20t-20 48zM113 59q0 28 19.5 47t47.5 19t47 -19t19 -47t-19 -47.5t-47 -19.5t-47.5 19.5t-19.5 47.5zM838 301q0 28 19.5 47t47.5 19t47 -19t19 -47t-19 -48t-47 -20t-47.5 20t-19.5 48z M596 301q0 28 20 47t48 19t46.5 -19t18.5 -47t-19 -48t-46 -20q-28 0 -48 20t-20 48zM354 301q0 28 20 47t48 19t46.5 -19t18.5 -47t-19 -48t-46 -20q-28 0 -48 20t-20 48zM113 301q0 28 19.5 47t47.5 19t47 -19t19 -47t-19 -48t-47 -20t-47.5 20t-19.5 48zM1079 543 q0 27 20 46t48 19t46.5 -18.5t18.5 -46.5t-19 -48t-46 -20q-28 0 -48 20t-20 48zM113 543q0 28 19.5 46.5t47.5 18.5t47 -18.5t19 -46.5t-19 -48t-47 -20t-47.5 20t-19.5 48zM1079 784q0 28 20 47t48 19t46.5 -19t18.5 -47t-18.5 -47.5t-46.5 -19.5t-48 19.5t-20 47.5z M113 784q0 28 19.5 47t47.5 19t47 -19t19 -47t-19 -47.5t-47 -19.5t-47.5 19.5t-19.5 47.5zM838 1026q0 28 19.5 47t47.5 19t47 -19t19 -47t-19 -48t-47 -20t-47.5 20t-19.5 48zM596 1026q0 28 20 47t48 19t46.5 -19t18.5 -47t-19 -48t-46 -20q-28 0 -48 20t-20 48z" />
<glyph unicode="Q" d="M475 1026q0 28 20 47t48 19t46.5 -19t18.5 -47t-19 -48t-46 -20q-28 0 -48 20t-20 48zM1200 -303q0 27 20 46t48 19t46.5 -18.5t18.5 -46.5t-19 -48t-46 -20q-28 0 -48 20t-20 48zM958 -61q0 27 20 46t48 19t47 -18.5t19 -46.5t-19 -48t-47 -20t-48 20t-20 48zM717 59 q0 28 19.5 47t47.5 19t47 -19t19 -47t-19 -47.5t-47 -19.5t-47.5 19.5t-19.5 47.5zM475 59q0 28 20 47t48 19t46.5 -19t18.5 -47t-18.5 -47.5t-46.5 -19.5t-48 19.5t-20 47.5zM958 180q0 28 20 47t48 19t47 -19t19 -47t-19 -47.5t-47 -19.5t-48 19.5t-20 47.5zM233 180 q0 28 20 47t48 19t47 -19t19 -47t-19 -47.5t-47 -19.5t-48 19.5t-20 47.5zM1079 422q0 27 20 46t48 19t46.5 -18.5t18.5 -46.5t-19 -48t-46 -20q-28 0 -48 20t-20 48zM113 422q0 28 19.5 46.5t47.5 18.5t47 -18.5t19 -46.5t-19 -48t-47 -20t-47.5 20t-19.5 48zM1079 664 q0 27 20 46t48 19t46.5 -18.5t18.5 -46.5t-19 -48t-46 -20q-28 0 -48 20t-20 48zM113 664q0 28 19.5 46.5t47.5 18.5t47 -18.5t19 -46.5t-19 -48t-47 -20t-47.5 20t-19.5 48zM958 905q0 28 20 47t48 19t47 -19t19 -47t-19 -47.5t-47 -19.5t-48 19.5t-20 47.5zM233 905 q0 28 20 47t48 19t47 -19t19 -47t-19 -47.5t-47 -19.5t-48 19.5t-20 47.5zM717 1026q0 28 19.5 47t47.5 19t47 -19t19 -47t-19 -48t-47 -20t-47.5 20t-19.5 48z" />
<glyph unicode="R" d="M354 1026q0 28 20 47t48 19t46.5 -19t18.5 -47t-19 -48t-46 -20q-28 0 -48 20t-20 48zM1079 59q0 28 20 47t48 19t46.5 -19t18.5 -47t-18.5 -47.5t-46.5 -19.5t-48 19.5t-20 47.5zM113 59q0 28 19.5 47t47.5 19t47 -19t19 -47t-19 -47.5t-47 -19.5t-47.5 19.5t-19.5 47.5 zM838 301q0 28 19.5 47t47.5 19t47 -19t19 -47t-19 -48t-47 -20t-47.5 20t-19.5 48zM596 301q0 28 20 47t48 19t46.5 -19t18.5 -47t-19 -48t-46 -20q-28 0 -48 20t-20 48zM354 301q0 28 20 47t48 19t46.5 -19t18.5 -47t-19 -48t-46 -20q-28 0 -48 20t-20 48zM113 301 q0 28 19.5 47t47.5 19t47 -19t19 -47t-19 -48t-47 -20t-47.5 20t-19.5 48zM1079 543q0 27 20 46t48 19t46.5 -18.5t18.5 -46.5t-19 -48t-46 -20q-28 0 -48 20t-20 48zM113 543q0 28 19.5 46.5t47.5 18.5t47 -18.5t19 -46.5t-19 -48t-47 -20t-47.5 20t-19.5 48zM1079 784 q0 28 20 47t48 19t46.5 -19t18.5 -47t-18.5 -47.5t-46.5 -19.5t-48 19.5t-20 47.5zM113 784q0 28 19.5 47t47.5 19t47 -19t19 -47t-19 -47.5t-47 -19.5t-47.5 19.5t-19.5 47.5zM838 1026q0 28 19.5 47t47.5 19t47 -19t19 -47t-19 -48t-47 -20t-47.5 20t-19.5 48zM596 1026 q0 28 20 47t48 19t46.5 -19t18.5 -47t-19 -48t-46 -20q-28 0 -48 20t-20 48z" />
<glyph unicode="S" horiz-adv-x="1087" d="M596 1026q0 28 20 47t48 19t46.5 -19t18.5 -47t-19 -48t-46 -20q-28 0 -48 20t-20 48zM354 59q0 28 20 47t48 19t46.5 -19t18.5 -47t-18.5 -47.5t-46.5 -19.5t-48 19.5t-20 47.5zM113 59q0 28 19.5 47t47.5 19t47 -19t19 -47t-19 -47.5t-47 -19.5t-47.5 19.5t-19.5 47.5z M475 301q0 28 20 47t48 19t46.5 -19t18.5 -47t-19 -48t-46 -20q-28 0 -48 20t-20 48zM475 543q0 27 20 46t48 19t46.5 -18.5t18.5 -46.5t-19 -48t-46 -20q-28 0 -48 20t-20 48zM475 784q0 28 20 47t48 19t46.5 -19t18.5 -47t-18.5 -47.5t-46.5 -19.5t-48 19.5t-20 47.5z M838 1026q0 28 19.5 47t47.5 19t47 -19t19 -47t-19 -48t-47 -20t-47.5 20t-19.5 48z" />
<glyph unicode="T" horiz-adv-x="1087" d="M113 1026q0 28 19.5 47t47.5 19t47 -19t19 -47t-19 -48t-47 -20t-47.5 20t-19.5 48zM475 59q0 28 20 47t48 19t46.5 -19t18.5 -47t-18.5 -47.5t-46.5 -19.5t-48 19.5t-20 47.5zM475 301q0 28 20 47t48 19t46.5 -19t18.5 -47t-19 -48t-46 -20q-28 0 -48 20t-20 48z M475 543q0 27 20 46t48 19t46.5 -18.5t18.5 -46.5t-19 -48t-46 -20q-28 0 -48 20t-20 48zM475 784q0 28 20 47t48 19t46.5 -19t18.5 -47t-18.5 -47.5t-46.5 -19.5t-48 19.5t-20 47.5zM838 1026q0 28 19.5 47t47.5 19t47 -19t19 -47t-19 -48t-47 -20t-47.5 20t-19.5 48z M596 1026q0 28 20 47t48 19t46.5 -19t18.5 -47t-19 -48t-46 -20q-28 0 -48 20t-20 48zM354 1026q0 28 20 47t48 19t46.5 -19t18.5 -47t-19 -48t-46 -20q-28 0 -48 20t-20 48z" />
<glyph unicode="U" d="M113 1026q0 28 19.5 47t47.5 19t47 -19t19 -47t-19 -48t-47 -20t-47.5 20t-19.5 48zM838 59q0 28 19.5 47t47.5 19t47 -19t19 -47t-19 -47.5t-47 -19.5t-47.5 19.5t-19.5 47.5zM596 59q0 28 20 47t48 19t46.5 -19t18.5 -47t-18.5 -47.5t-46.5 -19.5t-48 19.5t-20 47.5z M354 59q0 28 20 47t48 19t46.5 -19t18.5 -47t-18.5 -47.5t-46.5 -19.5t-48 19.5t-20 47.5zM1079 301q0 28 20 47t48 19t46.5 -19t18.5 -47t-19 -48t-46 -20q-28 0 -48 20t-20 48zM113 301q0 28 19.5 47t47.5 19t47 -19t19 -47t-19 -48t-47 -20t-47.5 20t-19.5 48zM1079 543 q0 27 20 46t48 19t46.5 -18.5t18.5 -46.5t-19 -48t-46 -20q-28 0 -48 20t-20 48zM113 543q0 28 19.5 46.5t47.5 18.5t47 -18.5t19 -46.5t-19 -48t-47 -20t-47.5 20t-19.5 48zM1079 784q0 28 20 47t48 19t46.5 -19t18.5 -47t-18.5 -47.5t-46.5 -19.5t-48 19.5t-20 47.5z M113 784q0 28 19.5 47t47.5 19t47 -19t19 -47t-19 -47.5t-47 -19.5t-47.5 19.5t-19.5 47.5zM1079 1026q0 28 20 47t48 19t46.5 -19t18.5 -47t-19 -48t-46 -20q-28 0 -48 20t-20 48z" />
<glyph unicode="V" d="M113 1026q0 28 19.5 47t47.5 19t47 -19t19 -47t-19 -48t-47 -20t-47.5 20t-19.5 48zM596 59q0 28 20 47t48 19t46.5 -19t18.5 -47t-18.5 -47.5t-46.5 -19.5t-48 19.5t-20 47.5zM958 301q0 28 20 47t48 19t47 -19t19 -47t-19 -48t-47 -20t-48 20t-20 48zM233 301 q0 28 20 47t48 19t47 -19t19 -47t-19 -48t-47 -20t-48 20t-20 48zM1079 543q0 27 20 46t48 19t46.5 -18.5t18.5 -46.5t-19 -48t-46 -20q-28 0 -48 20t-20 48zM113 543q0 28 19.5 46.5t47.5 18.5t47 -18.5t19 -46.5t-19 -48t-47 -20t-47.5 20t-19.5 48zM1079 784q0 28 20 47 t48 19t46.5 -19t18.5 -47t-18.5 -47.5t-46.5 -19.5t-48 19.5t-20 47.5zM113 784q0 28 19.5 47t47.5 19t47 -19t19 -47t-19 -47.5t-47 -19.5t-47.5 19.5t-19.5 47.5zM1079 1026q0 28 20 47t48 19t46.5 -19t18.5 -47t-19 -48t-46 -20q-28 0 -48 20t-20 48z" />
<glyph unicode="W" horiz-adv-x="1812" d="M113 1026q0 28 19.5 47t47.5 19t47 -19t19 -47t-19 -48t-47 -20t-47.5 20t-19.5 48zM1321 59q0 28 20 47t48 19t46.5 -19t18.5 -47t-18.5 -47.5t-46.5 -19.5t-48 19.5t-20 47.5zM1079 59q0 28 20 47t48 19t46.5 -19t18.5 -47t-18.5 -47.5t-46.5 -19.5t-48 19.5t-20 47.5z M596 59q0 28 20 47t48 19t46.5 -19t18.5 -47t-18.5 -47.5t-46.5 -19.5t-48 19.5t-20 47.5zM354 59q0 28 20 47t48 19t46.5 -19t18.5 -47t-18.5 -47.5t-46.5 -19.5t-48 19.5t-20 47.5zM1563 301q0 28 19.5 47t47.5 19t47 -19t19 -47t-19 -48t-47 -20t-47.5 20t-19.5 48z M838 301q0 28 19.5 47t47.5 19t47 -19t19 -47t-19 -48t-47 -20t-47.5 20t-19.5 48zM113 301q0 28 19.5 47t47.5 19t47 -19t19 -47t-19 -48t-47 -20t-47.5 20t-19.5 48zM1563 543q0 28 19.5 46.5t47.5 18.5t47 -18.5t19 -46.5t-19 -48t-47 -20t-47.5 20t-19.5 48zM838 543 q0 28 19.5 46.5t47.5 18.5t47 -18.5t19 -46.5t-19 -48t-47 -20t-47.5 20t-19.5 48zM113 543q0 28 19.5 46.5t47.5 18.5t47 -18.5t19 -46.5t-19 -48t-47 -20t-47.5 20t-19.5 48zM1563 784q0 28 19.5 47t47.5 19t47 -19t19 -47t-19 -47.5t-47 -19.5t-47.5 19.5t-19.5 47.5z M838 784q0 28 19.5 47t47.5 19t47 -19t19 -47t-19 -47.5t-47 -19.5t-47.5 19.5t-19.5 47.5zM113 784q0 28 19.5 47t47.5 19t47 -19t19 -47t-19 -47.5t-47 -19.5t-47.5 19.5t-19.5 47.5zM1563 1026q0 28 19.5 47t47.5 19t47 -19t19 -47t-19 -48t-47 -20t-47.5 20t-19.5 48z M838 1026q0 28 19.5 47t47.5 19t47 -19t19 -47t-19 -48t-47 -20t-47.5 20t-19.5 48z" />
<glyph unicode="X" d="M113 1026q0 28 19.5 47t47.5 19t47 -19t19 -47t-19 -48t-47 -20t-47.5 20t-19.5 48zM1079 59q0 28 20 47t48 19t46.5 -19t18.5 -47t-18.5 -47.5t-46.5 -19.5t-48 19.5t-20 47.5zM113 59q0 28 19.5 47t47.5 19t47 -19t19 -47t-19 -47.5t-47 -19.5t-47.5 19.5t-19.5 47.5z M838 301q0 28 19.5 47t47.5 19t47 -19t19 -47t-19 -48t-47 -20t-47.5 20t-19.5 48zM354 301q0 28 20 47t48 19t46.5 -19t18.5 -47t-19 -48t-46 -20q-28 0 -48 20t-20 48zM596 543q0 27 20 46t48 19t46.5 -18.5t18.5 -46.5t-19 -48t-46 -20q-28 0 -48 20t-20 48zM838 784 q0 28 19.5 47t47.5 19t47 -19t19 -47t-19 -47.5t-47 -19.5t-47.5 19.5t-19.5 47.5zM354 784q0 28 20 47t48 19t46.5 -19t18.5 -47t-18.5 -47.5t-46.5 -19.5t-48 19.5t-20 47.5zM1079 1026q0 28 20 47t48 19t46.5 -19t18.5 -47t-19 -48t-46 -20q-28 0 -48 20t-20 48z" />
<glyph unicode="Y" d="M113 1026q0 28 19.5 47t47.5 19t47 -19t19 -47t-19 -48t-47 -20t-47.5 20t-19.5 48zM596 59q0 28 20 47t48 19t46.5 -19t18.5 -47t-18.5 -47.5t-46.5 -19.5t-48 19.5t-20 47.5zM596 301q0 28 20 47t48 19t46.5 -19t18.5 -47t-19 -48t-46 -20q-28 0 -48 20t-20 48z M596 543q0 27 20 46t48 19t46.5 -18.5t18.5 -46.5t-19 -48t-46 -20q-28 0 -48 20t-20 48zM838 784q0 28 19.5 47t47.5 19t47 -19t19 -47t-19 -47.5t-47 -19.5t-47.5 19.5t-19.5 47.5zM354 784q0 28 20 47t48 19t46.5 -19t18.5 -47t-18.5 -47.5t-46.5 -19.5t-48 19.5 t-20 47.5zM1079 1026q0 28 20 47t48 19t46.5 -19t18.5 -47t-19 -48t-46 -20q-28 0 -48 20t-20 48z" />
<glyph unicode="Z" horiz-adv-x="1087" d="M113 1026q0 28 19.5 47t47.5 19t47 -19t19 -47t-19 -48t-47 -20t-47.5 20t-19.5 48zM838 59q0 28 19.5 47t47.5 19t47 -19t19 -47t-19 -47.5t-47 -19.5t-47.5 19.5t-19.5 47.5zM596 59q0 28 20 47t48 19t46.5 -19t18.5 -47t-18.5 -47.5t-46.5 -19.5t-48 19.5t-20 47.5z M354 59q0 28 20 47t48 19t46.5 -19t18.5 -47t-18.5 -47.5t-46.5 -19.5t-48 19.5t-20 47.5zM113 59q0 28 19.5 47t47.5 19t47 -19t19 -47t-19 -47.5t-47 -19.5t-47.5 19.5t-19.5 47.5zM354 422q0 27 20 46t48 19t46.5 -18.5t18.5 -46.5t-19 -48t-46 -20q-28 0 -48 20t-20 48z M596 664q0 27 20 46t48 19t46.5 -18.5t18.5 -46.5t-19 -48t-46 -20q-28 0 -48 20t-20 48zM838 1026q0 28 19.5 47t47.5 19t47 -19t19 -47t-19 -48t-47 -20t-47.5 20t-19.5 48zM596 1026q0 28 20 47t48 19t46.5 -19t18.5 -47t-19 -48t-46 -20q-28 0 -48 20t-20 48zM354 1026 q0 28 20 47t48 19t46.5 -19t18.5 -47t-19 -48t-46 -20q-28 0 -48 20t-20 48z" />
<glyph unicode="[" horiz-adv-x="604" d="M113 1026q0 28 19.5 47t47.5 19t47 -19t19 -47t-19 -48t-47 -20t-47.5 20t-19.5 48zM354 59q0 28 20 47t48 19t46.5 -19t18.5 -47t-18.5 -47.5t-46.5 -19.5t-48 19.5t-20 47.5zM113 59q0 28 19.5 47t47.5 19t47 -19t19 -47t-19 -47.5t-47 -19.5t-47.5 19.5t-19.5 47.5z M113 301q0 28 19.5 47t47.5 19t47 -19t19 -47t-19 -48t-47 -20t-47.5 20t-19.5 48zM113 543q0 28 19.5 46.5t47.5 18.5t47 -18.5t19 -46.5t-19 -48t-47 -20t-47.5 20t-19.5 48zM113 784q0 28 19.5 47t47.5 19t47 -19t19 -47t-19 -47.5t-47 -19.5t-47.5 19.5t-19.5 47.5z M354 1026q0 28 20 47t48 19t46.5 -19t18.5 -47t-19 -48t-46 -20q-28 0 -48 20t-20 48z" />
<glyph unicode="\" horiz-adv-x="845" d="M113 1026q0 28 19.5 47t47.5 19t47 -19t19 -47t-19 -48t-47 -20t-47.5 20t-19.5 48zM596 59q0 28 20 47t48 19t46.5 -19t18.5 -47t-18.5 -47.5t-46.5 -19.5t-48 19.5t-20 47.5zM475 301q0 28 20 47t48 19t46.5 -19t18.5 -47t-19 -48t-46 -20q-28 0 -48 20t-20 48z M354 543q0 27 20 46t48 19t46.5 -18.5t18.5 -46.5t-19 -48t-46 -20q-28 0 -48 20t-20 48zM233 784q0 28 20 47t48 19t47 -19t19 -47t-19 -47.5t-47 -19.5t-48 19.5t-20 47.5z" />
<glyph unicode="]" horiz-adv-x="604" d="M113 1026q0 28 19.5 47t47.5 19t47 -19t19 -47t-19 -48t-47 -20t-47.5 20t-19.5 48zM354 59q0 28 20 47t48 19t46.5 -19t18.5 -47t-18.5 -47.5t-46.5 -19.5t-48 19.5t-20 47.5zM113 59q0 28 19.5 47t47.5 19t47 -19t19 -47t-19 -47.5t-47 -19.5t-47.5 19.5t-19.5 47.5z M354 301q0 28 20 47t48 19t46.5 -19t18.5 -47t-19 -48t-46 -20q-28 0 -48 20t-20 48zM354 543q0 27 20 46t48 19t46.5 -18.5t18.5 -46.5t-19 -48t-46 -20q-28 0 -48 20t-20 48zM354 784q0 28 20 47t48 19t46.5 -19t18.5 -47t-18.5 -47.5t-46.5 -19.5t-48 19.5t-20 47.5z M354 1026q0 28 20 47t48 19t46.5 -19t18.5 -47t-19 -48t-46 -20q-28 0 -48 20t-20 48z" />
<glyph unicode="^" d="M596 1026q0 28 20 47t48 19t46.5 -19t18.5 -47t-19 -48t-46 -20q-28 0 -48 20t-20 48zM1079 543q0 27 20 46t48 19t46.5 -18.5t18.5 -46.5t-19 -48t-46 -20q-28 0 -48 20t-20 48zM113 543q0 28 19.5 46.5t47.5 18.5t47 -18.5t19 -46.5t-19 -48t-47 -20t-47.5 20t-19.5 48 zM838 784q0 28 19.5 47t47.5 19t47 -19t19 -47t-19 -47.5t-47 -19.5t-47.5 19.5t-19.5 47.5zM354 784q0 28 20 47t48 19t46.5 -19t18.5 -47t-18.5 -47.5t-46.5 -19.5t-48 19.5t-20 47.5z" />
<glyph unicode="_" horiz-adv-x="966" d="M-8 -182q0 28 19.5 46.5t47.5 18.5t47 -18.5t19 -46.5t-19 -48t-47 -20t-47.5 20t-19.5 48zM717 -182q0 28 19.5 46.5t47.5 18.5t47 -18.5t19 -46.5t-19 -48t-47 -20t-47.5 20t-19.5 48zM475 -182q0 27 20 46t48 19t46.5 -18.5t18.5 -46.5t-19 -48t-46 -20q-28 0 -48 20 t-20 48zM233 -182q0 27 20 46t48 19t47 -18.5t19 -46.5t-19 -48t-47 -20t-48 20t-20 48z" />
<glyph unicode="`" horiz-adv-x="604" d="M113 1026q0 28 19.5 47t47.5 19t47 -19t19 -47t-19 -48t-47 -20t-47.5 20t-19.5 48zM354 905q0 28 20 47t48 19t46.5 -19t18.5 -47t-18.5 -47.5t-46.5 -19.5t-48 19.5t-20 47.5z" />
<glyph unicode="a" horiz-adv-x="1449" d="M475 1026q0 28 20 47t48 19t46.5 -19t18.5 -47t-19 -48t-46 -20q-28 0 -48 20t-20 48zM1200 59q0 28 20 47t48 19t46.5 -19t18.5 -47t-18.5 -47.5t-46.5 -19.5t-48 19.5t-20 47.5zM717 59q0 28 19.5 47t47.5 19t47 -19t19 -47t-19 -47.5t-47 -19.5t-47.5 19.5t-19.5 47.5 zM475 59q0 28 20 47t48 19t46.5 -19t18.5 -47t-18.5 -47.5t-46.5 -19.5t-48 19.5t-20 47.5zM233 180q0 28 20 47t48 19t47 -19t19 -47t-19 -47.5t-47 -19.5t-48 19.5t-20 47.5zM1079 301q0 28 20 47t48 19t46.5 -19t18.5 -47t-19 -48t-46 -20q-28 0 -48 20t-20 48zM113 422 q0 28 19.5 46.5t47.5 18.5t47 -18.5t19 -46.5t-19 -48t-47 -20t-47.5 20t-19.5 48zM1079 543q0 27 20 46t48 19t46.5 -18.5t18.5 -46.5t-19 -48t-46 -20q-28 0 -48 20t-20 48zM113 664q0 28 19.5 46.5t47.5 18.5t47 -18.5t19 -46.5t-19 -48t-47 -20t-47.5 20t-19.5 48z M1079 784q0 28 20 47t48 19t46.5 -19t18.5 -47t-18.5 -47.5t-46.5 -19.5t-48 19.5t-20 47.5zM233 905q0 28 20 47t48 19t47 -19t19 -47t-19 -47.5t-47 -19.5t-48 19.5t-20 47.5zM958 1026q0 28 20 47t48 19t47 -19t19 -47t-19 -48t-47 -20t-48 20t-20 48zM717 1026 q0 28 19.5 47t47.5 19t47 -19t19 -47t-19 -48t-47 -20t-47.5 20t-19.5 48z" />
<glyph unicode="b" horiz-adv-x="1380" d="M164 1389q0 28 19.5 46.5t47.5 18.5t47 -18.5t19 -46.5t-19 -48t-47 -20t-47.5 20t-19.5 48zM768 59q0 28 20 47t48 19t46.5 -19t18.5 -47t-18.5 -47.5t-46.5 -19.5t-48 19.5t-20 47.5zM526 59q0 28 20 47t48 19t46.5 -19t18.5 -47t-18.5 -47.5t-46.5 -19.5t-48 19.5 t-20 47.5zM43 59q0 28 20 47t48 19t46.5 -19t18.5 -47t-18.5 -47.5t-46.5 -19.5t-48 19.5t-20 47.5zM1010 180q0 28 19.5 47t47.5 19t47 -19t19 -47t-19 -47.5t-47 -19.5t-47.5 19.5t-19.5 47.5zM285 180q0 28 19.5 47t47.5 19t47 -19t19 -47t-19 -47.5t-47 -19.5 t-47.5 19.5t-19.5 47.5zM1130 422q0 27 20 46t48 19t47 -18.5t19 -46.5t-19 -48t-47 -20t-48 20t-20 48zM164 422q0 28 19.5 46.5t47.5 18.5t47 -18.5t19 -46.5t-19 -48t-47 -20t-47.5 20t-19.5 48zM1130 664q0 27 20 46t48 19t47 -18.5t19 -46.5t-19 -48t-47 -20t-48 20 t-20 48zM164 664q0 28 19.5 46.5t47.5 18.5t47 -18.5t19 -46.5t-19 -48t-47 -20t-47.5 20t-19.5 48zM1010 905q0 28 19.5 47t47.5 19t47 -19t19 -47t-19 -47.5t-47 -19.5t-47.5 19.5t-19.5 47.5zM285 905q0 28 19.5 47t47.5 19t47 -19t19 -47t-19 -47.5t-47 -19.5 t-47.5 19.5t-19.5 47.5zM768 1026q0 28 20 47t48 19t46.5 -19t18.5 -47t-19 -48t-46 -20q-28 0 -48 20t-20 48zM526 1026q0 28 20 47t48 19t46.5 -19t18.5 -47t-19 -48t-46 -20q-28 0 -48 20t-20 48zM164 1147q0 28 19.5 46.5t47.5 18.5t47 -18.5t19 -46.5t-19 -48t-47 -20 t-47.5 20t-19.5 48z" />
<glyph unicode="c" horiz-adv-x="1208" d="M475 1026q0 28 20 47t48 19t46.5 -19t18.5 -47t-19 -48t-46 -20q-28 0 -48 20t-20 48zM717 59q0 28 19.5 47t47.5 19t47 -19t19 -47t-19 -47.5t-47 -19.5t-47.5 19.5t-19.5 47.5zM475 59q0 28 20 47t48 19t46.5 -19t18.5 -47t-18.5 -47.5t-46.5 -19.5t-48 19.5t-20 47.5z M958 180q0 28 20 47t48 19t47 -19t19 -47t-19 -47.5t-47 -19.5t-48 19.5t-20 47.5zM233 180q0 28 20 47t48 19t47 -19t19 -47t-19 -47.5t-47 -19.5t-48 19.5t-20 47.5zM113 422q0 28 19.5 46.5t47.5 18.5t47 -18.5t19 -46.5t-19 -48t-47 -20t-47.5 20t-19.5 48zM113 664 q0 28 19.5 46.5t47.5 18.5t47 -18.5t19 -46.5t-19 -48t-47 -20t-47.5 20t-19.5 48zM958 905q0 28 20 47t48 19t47 -19t19 -47t-19 -47.5t-47 -19.5t-48 19.5t-20 47.5zM233 905q0 28 20 47t48 19t47 -19t19 -47t-19 -47.5t-47 -19.5t-48 19.5t-20 47.5zM717 1026 q0 28 19.5 47t47.5 19t47 -19t19 -47t-19 -48t-47 -20t-47.5 20t-19.5 48z" />
<glyph unicode="d" horiz-adv-x="1449" d="M1079 1389q0 27 20 46t48 19t46.5 -18.5t18.5 -46.5t-19 -48t-46 -20q-28 0 -48 20t-20 48zM1200 59q0 28 20 47t48 19t46.5 -19t18.5 -47t-18.5 -47.5t-46.5 -19.5t-48 19.5t-20 47.5zM717 59q0 28 19.5 47t47.5 19t47 -19t19 -47t-19 -47.5t-47 -19.5t-47.5 19.5 t-19.5 47.5zM475 59q0 28 20 47t48 19t46.5 -19t18.5 -47t-18.5 -47.5t-46.5 -19.5t-48 19.5t-20 47.5zM958 180q0 28 20 47t48 19t47 -19t19 -47t-19 -47.5t-47 -19.5t-48 19.5t-20 47.5zM233 180q0 28 20 47t48 19t47 -19t19 -47t-19 -47.5t-47 -19.5t-48 19.5t-20 47.5z M1079 422q0 27 20 46t48 19t46.5 -18.5t18.5 -46.5t-19 -48t-46 -20q-28 0 -48 20t-20 48zM113 422q0 28 19.5 46.5t47.5 18.5t47 -18.5t19 -46.5t-19 -48t-47 -20t-47.5 20t-19.5 48zM1079 664q0 27 20 46t48 19t46.5 -18.5t18.5 -46.5t-19 -48t-46 -20q-28 0 -48 20 t-20 48zM113 664q0 28 19.5 46.5t47.5 18.5t47 -18.5t19 -46.5t-19 -48t-47 -20t-47.5 20t-19.5 48zM958 905q0 28 20 47t48 19t47 -19t19 -47t-19 -47.5t-47 -19.5t-48 19.5t-20 47.5zM233 905q0 28 20 47t48 19t47 -19t19 -47t-19 -47.5t-47 -19.5t-48 19.5t-20 47.5z M717 1026q0 28 19.5 47t47.5 19t47 -19t19 -47t-19 -48t-47 -20t-47.5 20t-19.5 48zM475 1026q0 28 20 47t48 19t46.5 -19t18.5 -47t-19 -48t-46 -20q-28 0 -48 20t-20 48zM1079 1147q0 27 20 46t48 19t46.5 -18.5t18.5 -46.5t-19 -48t-46 -20q-28 0 -48 20t-20 48z" />
<glyph unicode="e" d="M475 1026q0 28 20 47t48 19t46.5 -19t18.5 -47t-19 -48t-46 -20q-28 0 -48 20t-20 48zM717 59q0 28 19.5 47t47.5 19t47 -19t19 -47t-19 -47.5t-47 -19.5t-47.5 19.5t-19.5 47.5zM475 59q0 28 20 47t48 19t46.5 -19t18.5 -47t-18.5 -47.5t-46.5 -19.5t-48 19.5t-20 47.5z M958 180q0 28 20 47t48 19t47 -19t19 -47t-19 -47.5t-47 -19.5t-48 19.5t-20 47.5zM233 180q0 28 20 47t48 19t47 -19t19 -47t-19 -47.5t-47 -19.5t-48 19.5t-20 47.5zM113 422q0 28 19.5 46.5t47.5 18.5t47 -18.5t19 -46.5t-19 -48t-47 -20t-47.5 20t-19.5 48zM838 543 q0 28 19.5 46.5t47.5 18.5t47 -18.5t19 -46.5t-19 -48t-47 -20t-47.5 20t-19.5 48zM596 543q0 27 20 46t48 19t46.5 -18.5t18.5 -46.5t-19 -48t-46 -20q-28 0 -48 20t-20 48zM354 543q0 27 20 46t48 19t46.5 -18.5t18.5 -46.5t-19 -48t-46 -20q-28 0 -48 20t-20 48z M1079 664q0 27 20 46t48 19t46.5 -18.5t18.5 -46.5t-19 -48t-46 -20q-28 0 -48 20t-20 48zM113 664q0 28 19.5 46.5t47.5 18.5t47 -18.5t19 -46.5t-19 -48t-47 -20t-47.5 20t-19.5 48zM958 905q0 28 20 47t48 19t47 -19t19 -47t-19 -47.5t-47 -19.5t-48 19.5t-20 47.5z M233 905q0 28 20 47t48 19t47 -19t19 -47t-19 -47.5t-47 -19.5t-48 19.5t-20 47.5zM717 1026q0 28 19.5 47t47.5 19t47 -19t19 -47t-19 -48t-47 -20t-47.5 20t-19.5 48z" />
<glyph unicode="f" horiz-adv-x="724" d="M475 1389q0 27 20 46t48 19t46.5 -18.5t18.5 -46.5t-19 -48t-46 -20q-28 0 -48 20t-20 48zM113 -182q0 28 19.5 46.5t47.5 18.5t47 -18.5t19 -46.5t-19 -48t-47 -20t-47.5 20t-19.5 48zM233 59q0 28 20 47t48 19t47 -19t19 -47t-19 -47.5t-47 -19.5t-48 19.5t-20 47.5z M233 301q0 28 20 47t48 19t47 -19t19 -47t-19 -48t-47 -20t-48 20t-20 48zM233 543q0 27 20 46t48 19t47 -18.5t19 -46.5t-19 -48t-47 -20t-48 20t-20 48zM233 784q0 28 20 47t48 19t47 -19t19 -47t-19 -47.5t-47 -19.5t-48 19.5t-20 47.5zM475 1026q0 28 20 47t48 19 t46.5 -19t18.5 -47t-19 -48t-46 -20q-28 0 -48 20t-20 48zM233 1026q0 28 20 47t48 19t47 -19t19 -47t-19 -48t-47 -20t-48 20t-20 48zM233 1268q0 27 20 46t48 19t47 -18.5t19 -46.5t-19 -48t-47 -20t-48 20t-20 48z" />
<glyph unicode="g" d="M1079 1147q0 27 20 46t48 19t46.5 -18.5t18.5 -46.5t-19 -48t-46 -20q-28 0 -48 20t-20 48zM838 -303q0 28 19.5 46.5t47.5 18.5t47 -18.5t19 -46.5t-19 -48t-47 -20t-47.5 20t-19.5 48zM596 -303q0 27 20 46t48 19t46.5 -18.5t18.5 -46.5t-19 -48t-46 -20q-28 0 -48 20 t-20 48zM354 -303q0 27 20 46t48 19t46.5 -18.5t18.5 -46.5t-19 -48t-46 -20q-28 0 -48 20t-20 48zM1079 -61q0 27 20 46t48 19t46.5 -18.5t18.5 -46.5t-19 -48t-46 -20q-28 0 -48 20t-20 48zM717 59q0 28 19.5 47t47.5 19t47 -19t19 -47t-19 -47.5t-47 -19.5t-47.5 19.5 t-19.5 47.5zM475 59q0 28 20 47t48 19t46.5 -19t18.5 -47t-18.5 -47.5t-46.5 -19.5t-48 19.5t-20 47.5zM1079 180q0 28 20 47t48 19t46.5 -19t18.5 -47t-18.5 -47.5t-46.5 -19.5t-48 19.5t-20 47.5zM233 180q0 28 20 47t48 19t47 -19t19 -47t-19 -47.5t-47 -19.5t-48 19.5 t-20 47.5zM1079 422q0 27 20 46t48 19t46.5 -18.5t18.5 -46.5t-19 -48t-46 -20q-28 0 -48 20t-20 48zM113 422q0 28 19.5 46.5t47.5 18.5t47 -18.5t19 -46.5t-19 -48t-47 -20t-47.5 20t-19.5 48zM1079 664q0 27 20 46t48 19t46.5 -18.5t18.5 -46.5t-19 -48t-46 -20 q-28 0 -48 20t-20 48zM113 664q0 28 19.5 46.5t47.5 18.5t47 -18.5t19 -46.5t-19 -48t-47 -20t-47.5 20t-19.5 48zM958 905q0 28 20 47t48 19t47 -19t19 -47t-19 -47.5t-47 -19.5t-48 19.5t-20 47.5zM233 905q0 28 20 47t48 19t47 -19t19 -47t-19 -47.5t-47 -19.5t-48 19.5 t-20 47.5zM717 1026q0 28 19.5 47t47.5 19t47 -19t19 -47t-19 -48t-47 -20t-47.5 20t-19.5 48zM475 1026q0 28 20 47t48 19t46.5 -19t18.5 -47t-19 -48t-46 -20q-28 0 -48 20t-20 48z" />
<glyph unicode="h" d="M113 1389q0 28 19.5 46.5t47.5 18.5t47 -18.5t19 -46.5t-19 -48t-47 -20t-47.5 20t-19.5 48zM1079 59q0 28 20 47t48 19t46.5 -19t18.5 -47t-18.5 -47.5t-46.5 -19.5t-48 19.5t-20 47.5zM113 59q0 28 19.5 47t47.5 19t47 -19t19 -47t-19 -47.5t-47 -19.5t-47.5 19.5 t-19.5 47.5zM1079 301q0 28 20 47t48 19t46.5 -19t18.5 -47t-19 -48t-46 -20q-28 0 -48 20t-20 48zM113 301q0 28 19.5 47t47.5 19t47 -19t19 -47t-19 -48t-47 -20t-47.5 20t-19.5 48zM1079 543q0 27 20 46t48 19t46.5 -18.5t18.5 -46.5t-19 -48t-46 -20q-28 0 -48 20 t-20 48zM113 543q0 28 19.5 46.5t47.5 18.5t47 -18.5t19 -46.5t-19 -48t-47 -20t-47.5 20t-19.5 48zM1079 784q0 28 20 47t48 19t46.5 -19t18.5 -47t-18.5 -47.5t-46.5 -19.5t-48 19.5t-20 47.5zM113 784q0 28 19.5 47t47.5 19t47 -19t19 -47t-19 -47.5t-47 -19.5 t-47.5 19.5t-19.5 47.5zM838 1026q0 28 19.5 47t47.5 19t47 -19t19 -47t-19 -48t-47 -20t-47.5 20t-19.5 48zM596 1026q0 28 20 47t48 19t46.5 -19t18.5 -47t-19 -48t-46 -20q-28 0 -48 20t-20 48zM354 1026q0 28 20 47t48 19t46.5 -19t18.5 -47t-19 -48t-46 -20 q-28 0 -48 20t-20 48zM113 1147q0 28 19.5 46.5t47.5 18.5t47 -18.5t19 -46.5t-19 -48t-47 -20t-47.5 20t-19.5 48z" />
<glyph unicode="i" horiz-adv-x="362" d="M113 1389q0 28 19.5 46.5t47.5 18.5t47 -18.5t19 -46.5t-19 -48t-47 -20t-47.5 20t-19.5 48zM113 59q0 28 19.5 47t47.5 19t47 -19t19 -47t-19 -47.5t-47 -19.5t-47.5 19.5t-19.5 47.5zM113 301q0 28 19.5 47t47.5 19t47 -19t19 -47t-19 -48t-47 -20t-47.5 20t-19.5 48z M113 543q0 28 19.5 46.5t47.5 18.5t47 -18.5t19 -46.5t-19 -48t-47 -20t-47.5 20t-19.5 48zM113 784q0 28 19.5 47t47.5 19t47 -19t19 -47t-19 -47.5t-47 -19.5t-47.5 19.5t-19.5 47.5zM113 1026q0 28 19.5 47t47.5 19t47 -19t19 -47t-19 -48t-47 -20t-47.5 20t-19.5 48z " />
<glyph unicode="j" horiz-adv-x="362" d="M113 1389q0 28 19.5 46.5t47.5 18.5t47 -18.5t19 -46.5t-19 -48t-47 -20t-47.5 20t-19.5 48zM-8 -182q0 28 19.5 46.5t47.5 18.5t47 -18.5t19 -46.5t-19 -48t-47 -20t-47.5 20t-19.5 48zM113 59q0 28 19.5 47t47.5 19t47 -19t19 -47t-19 -47.5t-47 -19.5t-47.5 19.5 t-19.5 47.5zM113 301q0 28 19.5 47t47.5 19t47 -19t19 -47t-19 -48t-47 -20t-47.5 20t-19.5 48zM113 543q0 28 19.5 46.5t47.5 18.5t47 -18.5t19 -46.5t-19 -48t-47 -20t-47.5 20t-19.5 48zM113 784q0 28 19.5 47t47.5 19t47 -19t19 -47t-19 -47.5t-47 -19.5t-47.5 19.5 t-19.5 47.5zM113 1026q0 28 19.5 47t47.5 19t47 -19t19 -47t-19 -48t-47 -20t-47.5 20t-19.5 48z" />
<glyph unicode="k" d="M113 1026q0 28 19.5 47t47.5 19t47 -19t19 -47t-19 -48t-47 -20t-47.5 20t-19.5 48zM1079 59q0 28 20 47t48 19t46.5 -19t18.5 -47t-18.5 -47.5t-46.5 -19.5t-48 19.5t-20 47.5zM113 59q0 28 19.5 47t47.5 19t47 -19t19 -47t-19 -47.5t-47 -19.5t-47.5 19.5t-19.5 47.5z M838 301q0 28 19.5 47t47.5 19t47 -19t19 -47t-19 -48t-47 -20t-47.5 20t-19.5 48zM113 301q0 28 19.5 47t47.5 19t47 -19t19 -47t-19 -48t-47 -20t-47.5 20t-19.5 48zM596 543q0 27 20 46t48 19t46.5 -18.5t18.5 -46.5t-19 -48t-46 -20q-28 0 -48 20t-20 48zM354 543 q0 27 20 46t48 19t46.5 -18.5t18.5 -46.5t-19 -48t-46 -20q-28 0 -48 20t-20 48zM113 543q0 28 19.5 46.5t47.5 18.5t47 -18.5t19 -46.5t-19 -48t-47 -20t-47.5 20t-19.5 48zM838 784q0 28 19.5 47t47.5 19t47 -19t19 -47t-19 -47.5t-47 -19.5t-47.5 19.5t-19.5 47.5z M113 784q0 28 19.5 47t47.5 19t47 -19t19 -47t-19 -47.5t-47 -19.5t-47.5 19.5t-19.5 47.5zM1079 1026q0 28 20 47t48 19t46.5 -19t18.5 -47t-19 -48t-46 -20q-28 0 -48 20t-20 48z" />
<glyph unicode="l" horiz-adv-x="604" d="M113 1389q0 28 19.5 46.5t47.5 18.5t47 -18.5t19 -46.5t-19 -48t-47 -20t-47.5 20t-19.5 48zM354 59q0 28 20 47t48 19t46.5 -19t18.5 -47t-18.5 -47.5t-46.5 -19.5t-48 19.5t-20 47.5zM113 180q0 28 19.5 47t47.5 19t47 -19t19 -47t-19 -47.5t-47 -19.5t-47.5 19.5 t-19.5 47.5zM113 422q0 28 19.5 46.5t47.5 18.5t47 -18.5t19 -46.5t-19 -48t-47 -20t-47.5 20t-19.5 48zM113 664q0 28 19.5 46.5t47.5 18.5t47 -18.5t19 -46.5t-19 -48t-47 -20t-47.5 20t-19.5 48zM113 905q0 28 19.5 47t47.5 19t47 -19t19 -47t-19 -47.5t-47 -19.5 t-47.5 19.5t-19.5 47.5zM113 1147q0 28 19.5 46.5t47.5 18.5t47 -18.5t19 -46.5t-19 -48t-47 -20t-47.5 20t-19.5 48z" />
<glyph unicode="m" horiz-adv-x="1812" d="M354 1026q0 28 20 47t48 19t46.5 -19t18.5 -47t-19 -48t-46 -20q-28 0 -48 20t-20 48zM1563 59q0 28 19.5 47t47.5 19t47 -19t19 -47t-19 -47.5t-47 -19.5t-47.5 19.5t-19.5 47.5zM838 59q0 28 19.5 47t47.5 19t47 -19t19 -47t-19 -47.5t-47 -19.5t-47.5 19.5t-19.5 47.5 zM113 59q0 28 19.5 47t47.5 19t47 -19t19 -47t-19 -47.5t-47 -19.5t-47.5 19.5t-19.5 47.5zM1563 301q0 28 19.5 47t47.5 19t47 -19t19 -47t-19 -48t-47 -20t-47.5 20t-19.5 48zM838 301q0 28 19.5 47t47.5 19t47 -19t19 -47t-19 -48t-47 -20t-47.5 20t-19.5 48zM113 301 q0 28 19.5 47t47.5 19t47 -19t19 -47t-19 -48t-47 -20t-47.5 20t-19.5 48zM1563 543q0 28 19.5 46.5t47.5 18.5t47 -18.5t19 -46.5t-19 -48t-47 -20t-47.5 20t-19.5 48zM838 543q0 28 19.5 46.5t47.5 18.5t47 -18.5t19 -46.5t-19 -48t-47 -20t-47.5 20t-19.5 48zM113 543 q0 28 19.5 46.5t47.5 18.5t47 -18.5t19 -46.5t-19 -48t-47 -20t-47.5 20t-19.5 48zM1563 784q0 28 19.5 47t47.5 19t47 -19t19 -47t-19 -47.5t-47 -19.5t-47.5 19.5t-19.5 47.5zM838 784q0 28 19.5 47t47.5 19t47 -19t19 -47t-19 -47.5t-47 -19.5t-47.5 19.5t-19.5 47.5z M113 784q0 28 19.5 47t47.5 19t47 -19t19 -47t-19 -47.5t-47 -19.5t-47.5 19.5t-19.5 47.5zM1321 1026q0 28 20 47t48 19t46.5 -19t18.5 -47t-19 -48t-46 -20q-28 0 -48 20t-20 48zM1079 1026q0 28 20 47t48 19t46.5 -19t18.5 -47t-19 -48t-46 -20q-28 0 -48 20t-20 48z M596 1026q0 28 20 47t48 19t46.5 -19t18.5 -47t-19 -48t-46 -20q-28 0 -48 20t-20 48z" />
<glyph unicode="n" d="M354 1026q0 28 20 47t48 19t46.5 -19t18.5 -47t-19 -48t-46 -20q-28 0 -48 20t-20 48zM1079 59q0 28 20 47t48 19t46.5 -19t18.5 -47t-18.5 -47.5t-46.5 -19.5t-48 19.5t-20 47.5zM113 59q0 28 19.5 47t47.5 19t47 -19t19 -47t-19 -47.5t-47 -19.5t-47.5 19.5t-19.5 47.5 zM1079 301q0 28 20 47t48 19t46.5 -19t18.5 -47t-19 -48t-46 -20q-28 0 -48 20t-20 48zM113 301q0 28 19.5 47t47.5 19t47 -19t19 -47t-19 -48t-47 -20t-47.5 20t-19.5 48zM1079 543q0 27 20 46t48 19t46.5 -18.5t18.5 -46.5t-19 -48t-46 -20q-28 0 -48 20t-20 48zM113 543 q0 28 19.5 46.5t47.5 18.5t47 -18.5t19 -46.5t-19 -48t-47 -20t-47.5 20t-19.5 48zM1079 784q0 28 20 47t48 19t46.5 -19t18.5 -47t-18.5 -47.5t-46.5 -19.5t-48 19.5t-20 47.5zM113 784q0 28 19.5 47t47.5 19t47 -19t19 -47t-19 -47.5t-47 -19.5t-47.5 19.5t-19.5 47.5z M838 1026q0 28 19.5 47t47.5 19t47 -19t19 -47t-19 -48t-47 -20t-47.5 20t-19.5 48zM596 1026q0 28 20 47t48 19t46.5 -19t18.5 -47t-19 -48t-46 -20q-28 0 -48 20t-20 48z" />
<glyph unicode="o" d="M475 1026q0 28 20 47t48 19t46.5 -19t18.5 -47t-19 -48t-46 -20q-28 0 -48 20t-20 48zM717 59q0 28 19.5 47t47.5 19t47 -19t19 -47t-19 -47.5t-47 -19.5t-47.5 19.5t-19.5 47.5zM475 59q0 28 20 47t48 19t46.5 -19t18.5 -47t-18.5 -47.5t-46.5 -19.5t-48 19.5t-20 47.5z M958 180q0 28 20 47t48 19t47 -19t19 -47t-19 -47.5t-47 -19.5t-48 19.5t-20 47.5zM233 180q0 28 20 47t48 19t47 -19t19 -47t-19 -47.5t-47 -19.5t-48 19.5t-20 47.5zM1079 422q0 27 20 46t48 19t46.5 -18.5t18.5 -46.5t-19 -48t-46 -20q-28 0 -48 20t-20 48zM113 422 q0 28 19.5 46.5t47.5 18.5t47 -18.5t19 -46.5t-19 -48t-47 -20t-47.5 20t-19.5 48zM1079 664q0 27 20 46t48 19t46.5 -18.5t18.5 -46.5t-19 -48t-46 -20q-28 0 -48 20t-20 48zM113 664q0 28 19.5 46.5t47.5 18.5t47 -18.5t19 -46.5t-19 -48t-47 -20t-47.5 20t-19.5 48z M958 905q0 28 20 47t48 19t47 -19t19 -47t-19 -47.5t-47 -19.5t-48 19.5t-20 47.5zM233 905q0 28 20 47t48 19t47 -19t19 -47t-19 -47.5t-47 -19.5t-48 19.5t-20 47.5zM717 1026q0 28 19.5 47t47.5 19t47 -19t19 -47t-19 -48t-47 -20t-47.5 20t-19.5 48z" />
<glyph unicode="p" d="M354 1026q0 28 20 47t48 19t46.5 -19t18.5 -47t-19 -48t-46 -20q-28 0 -48 20t-20 48zM113 59q0 28 19.5 47t47.5 19t47 -19t19 -47t-19 -47.5t-47 -19.5t-47.5 19.5t-19.5 47.5zM838 301q0 28 19.5 47t47.5 19t47 -19t19 -47t-19 -48t-47 -20t-47.5 20t-19.5 48z M596 301q0 28 20 47t48 19t46.5 -19t18.5 -47t-19 -48t-46 -20q-28 0 -48 20t-20 48zM354 301q0 28 20 47t48 19t46.5 -19t18.5 -47t-19 -48t-46 -20q-28 0 -48 20t-20 48zM113 301q0 28 19.5 47t47.5 19t47 -19t19 -47t-19 -48t-47 -20t-47.5 20t-19.5 48zM1079 543 q0 27 20 46t48 19t46.5 -18.5t18.5 -46.5t-19 -48t-46 -20q-28 0 -48 20t-20 48zM113 543q0 28 19.5 46.5t47.5 18.5t47 -18.5t19 -46.5t-19 -48t-47 -20t-47.5 20t-19.5 48zM1079 784q0 28 20 47t48 19t46.5 -19t18.5 -47t-18.5 -47.5t-46.5 -19.5t-48 19.5t-20 47.5z M113 784q0 28 19.5 47t47.5 19t47 -19t19 -47t-19 -47.5t-47 -19.5t-47.5 19.5t-19.5 47.5zM838 1026q0 28 19.5 47t47.5 19t47 -19t19 -47t-19 -48t-47 -20t-47.5 20t-19.5 48zM596 1026q0 28 20 47t48 19t46.5 -19t18.5 -47t-19 -48t-46 -20q-28 0 -48 20t-20 48z" />
<glyph unicode="q" horiz-adv-x="1449" d="M475 1026q0 28 20 47t48 19t46.5 -19t18.5 -47t-19 -48t-46 -20q-28 0 -48 20t-20 48zM1079 -303q0 27 20 46t48 19t46.5 -18.5t18.5 -46.5t-19 -48t-46 -20q-28 0 -48 20t-20 48zM1079 -61q0 27 20 46t48 19t46.5 -18.5t18.5 -46.5t-19 -48t-46 -20q-28 0 -48 20t-20 48 zM717 59q0 28 19.5 47t47.5 19t47 -19t19 -47t-19 -47.5t-47 -19.5t-47.5 19.5t-19.5 47.5zM475 59q0 28 20 47t48 19t46.5 -19t18.5 -47t-18.5 -47.5t-46.5 -19.5t-48 19.5t-20 47.5zM958 180q0 28 20 47t48 19t47 -19t19 -47t-19 -47.5t-47 -19.5t-48 19.5t-20 47.5z M233 180q0 28 20 47t48 19t47 -19t19 -47t-19 -47.5t-47 -19.5t-48 19.5t-20 47.5zM1079 422q0 27 20 46t48 19t46.5 -18.5t18.5 -46.5t-19 -48t-46 -20q-28 0 -48 20t-20 48zM113 422q0 28 19.5 46.5t47.5 18.5t47 -18.5t19 -46.5t-19 -48t-47 -20t-47.5 20t-19.5 48z M1079 664q0 27 20 46t48 19t46.5 -18.5t18.5 -46.5t-19 -48t-46 -20q-28 0 -48 20t-20 48zM113 664q0 28 19.5 46.5t47.5 18.5t47 -18.5t19 -46.5t-19 -48t-47 -20t-47.5 20t-19.5 48zM958 905q0 28 20 47t48 19t47 -19t19 -47t-19 -47.5t-47 -19.5t-48 19.5t-20 47.5z M233 905q0 28 20 47t48 19t47 -19t19 -47t-19 -47.5t-47 -19.5t-48 19.5t-20 47.5zM1200 1026q0 28 20 47t48 19t46.5 -19t18.5 -47t-19 -48t-46 -20q-28 0 -48 20t-20 48zM717 1026q0 28 19.5 47t47.5 19t47 -19t19 -47t-19 -48t-47 -20t-47.5 20t-19.5 48z" />
<glyph unicode="r" horiz-adv-x="845" d="M354 1026q0 28 20 47t48 19t46.5 -19t18.5 -47t-19 -48t-46 -20q-28 0 -48 20t-20 48zM113 59q0 28 19.5 47t47.5 19t47 -19t19 -47t-19 -47.5t-47 -19.5t-47.5 19.5t-19.5 47.5zM113 301q0 28 19.5 47t47.5 19t47 -19t19 -47t-19 -48t-47 -20t-47.5 20t-19.5 48z M113 543q0 28 19.5 46.5t47.5 18.5t47 -18.5t19 -46.5t-19 -48t-47 -20t-47.5 20t-19.5 48zM113 784q0 28 19.5 47t47.5 19t47 -19t19 -47t-19 -47.5t-47 -19.5t-47.5 19.5t-19.5 47.5zM596 1026q0 28 20 47t48 19t46.5 -19t18.5 -47t-19 -48t-46 -20q-28 0 -48 20t-20 48z " />
<glyph unicode="s" horiz-adv-x="1087" d="M596 1026q0 28 20 47t48 19t46.5 -19t18.5 -47t-19 -48t-46 -20q-28 0 -48 20t-20 48zM354 59q0 28 20 47t48 19t46.5 -19t18.5 -47t-18.5 -47.5t-46.5 -19.5t-48 19.5t-20 47.5zM113 59q0 28 19.5 47t47.5 19t47 -19t19 -47t-19 -47.5t-47 -19.5t-47.5 19.5t-19.5 47.5z M475 301q0 28 20 47t48 19t46.5 -19t18.5 -47t-19 -48t-46 -20q-28 0 -48 20t-20 48zM475 543q0 27 20 46t48 19t46.5 -18.5t18.5 -46.5t-19 -48t-46 -20q-28 0 -48 20t-20 48zM475 784q0 28 20 47t48 19t46.5 -19t18.5 -47t-18.5 -47.5t-46.5 -19.5t-48 19.5t-20 47.5z M838 1026q0 28 19.5 47t47.5 19t47 -19t19 -47t-19 -48t-47 -20t-47.5 20t-19.5 48z" />
<glyph unicode="t" horiz-adv-x="604" d="M113 1389q0 28 19.5 46.5t47.5 18.5t47 -18.5t19 -46.5t-19 -48t-47 -20t-47.5 20t-19.5 48zM354 59q0 28 20 47t48 19t46.5 -19t18.5 -47t-18.5 -47.5t-46.5 -19.5t-48 19.5t-20 47.5zM113 180q0 28 19.5 47t47.5 19t47 -19t19 -47t-19 -47.5t-47 -19.5t-47.5 19.5 t-19.5 47.5zM113 422q0 28 19.5 46.5t47.5 18.5t47 -18.5t19 -46.5t-19 -48t-47 -20t-47.5 20t-19.5 48zM113 664q0 28 19.5 46.5t47.5 18.5t47 -18.5t19 -46.5t-19 -48t-47 -20t-47.5 20t-19.5 48zM113 905q0 28 19.5 47t47.5 19t47 -19t19 -47t-19 -47.5t-47 -19.5 t-47.5 19.5t-19.5 47.5zM354 1026q0 28 20 47t48 19t46.5 -19t18.5 -47t-19 -48t-46 -20q-28 0 -48 20t-20 48zM113 1147q0 28 19.5 46.5t47.5 18.5t47 -18.5t19 -46.5t-19 -48t-47 -20t-47.5 20t-19.5 48z" />
<glyph unicode="u" d="M113 1026q0 28 19.5 47t47.5 19t47 -19t19 -47t-19 -48t-47 -20t-47.5 20t-19.5 48zM838 59q0 28 19.5 47t47.5 19t47 -19t19 -47t-19 -47.5t-47 -19.5t-47.5 19.5t-19.5 47.5zM596 59q0 28 20 47t48 19t46.5 -19t18.5 -47t-18.5 -47.5t-46.5 -19.5t-48 19.5t-20 47.5z M354 59q0 28 20 47t48 19t46.5 -19t18.5 -47t-18.5 -47.5t-46.5 -19.5t-48 19.5t-20 47.5zM1079 301q0 28 20 47t48 19t46.5 -19t18.5 -47t-19 -48t-46 -20q-28 0 -48 20t-20 48zM113 301q0 28 19.5 47t47.5 19t47 -19t19 -47t-19 -48t-47 -20t-47.5 20t-19.5 48zM1079 543 q0 27 20 46t48 19t46.5 -18.5t18.5 -46.5t-19 -48t-46 -20q-28 0 -48 20t-20 48zM113 543q0 28 19.5 46.5t47.5 18.5t47 -18.5t19 -46.5t-19 -48t-47 -20t-47.5 20t-19.5 48zM1079 784q0 28 20 47t48 19t46.5 -19t18.5 -47t-18.5 -47.5t-46.5 -19.5t-48 19.5t-20 47.5z M113 784q0 28 19.5 47t47.5 19t47 -19t19 -47t-19 -47.5t-47 -19.5t-47.5 19.5t-19.5 47.5zM1079 1026q0 28 20 47t48 19t46.5 -19t18.5 -47t-19 -48t-46 -20q-28 0 -48 20t-20 48z" />
<glyph unicode="v" d="M113 1026q0 28 19.5 47t47.5 19t47 -19t19 -47t-19 -48t-47 -20t-47.5 20t-19.5 48zM596 59q0 28 20 47t48 19t46.5 -19t18.5 -47t-18.5 -47.5t-46.5 -19.5t-48 19.5t-20 47.5zM838 301q0 28 19.5 47t47.5 19t47 -19t19 -47t-19 -48t-47 -20t-47.5 20t-19.5 48zM354 301 q0 28 20 47t48 19t46.5 -19t18.5 -47t-19 -48t-46 -20q-28 0 -48 20t-20 48zM1079 543q0 27 20 46t48 19t46.5 -18.5t18.5 -46.5t-19 -48t-46 -20q-28 0 -48 20t-20 48zM113 543q0 28 19.5 46.5t47.5 18.5t47 -18.5t19 -46.5t-19 -48t-47 -20t-47.5 20t-19.5 48zM1079 784 q0 28 20 47t48 19t46.5 -19t18.5 -47t-18.5 -47.5t-46.5 -19.5t-48 19.5t-20 47.5zM113 784q0 28 19.5 47t47.5 19t47 -19t19 -47t-19 -47.5t-47 -19.5t-47.5 19.5t-19.5 47.5zM1079 1026q0 28 20 47t48 19t46.5 -19t18.5 -47t-19 -48t-46 -20q-28 0 -48 20t-20 48z" />
<glyph unicode="w" horiz-adv-x="1812" d="M113 1026q0 28 19.5 47t47.5 19t47 -19t19 -47t-19 -48t-47 -20t-47.5 20t-19.5 48zM1321 59q0 28 20 47t48 19t46.5 -19t18.5 -47t-18.5 -47.5t-46.5 -19.5t-48 19.5t-20 47.5zM1079 59q0 28 20 47t48 19t46.5 -19t18.5 -47t-18.5 -47.5t-46.5 -19.5t-48 19.5t-20 47.5z M596 59q0 28 20 47t48 19t46.5 -19t18.5 -47t-18.5 -47.5t-46.5 -19.5t-48 19.5t-20 47.5zM354 59q0 28 20 47t48 19t46.5 -19t18.5 -47t-18.5 -47.5t-46.5 -19.5t-48 19.5t-20 47.5zM1563 301q0 28 19.5 47t47.5 19t47 -19t19 -47t-19 -48t-47 -20t-47.5 20t-19.5 48z M838 301q0 28 19.5 47t47.5 19t47 -19t19 -47t-19 -48t-47 -20t-47.5 20t-19.5 48zM113 301q0 28 19.5 47t47.5 19t47 -19t19 -47t-19 -48t-47 -20t-47.5 20t-19.5 48zM1563 543q0 28 19.5 46.5t47.5 18.5t47 -18.5t19 -46.5t-19 -48t-47 -20t-47.5 20t-19.5 48zM838 543 q0 28 19.5 46.5t47.5 18.5t47 -18.5t19 -46.5t-19 -48t-47 -20t-47.5 20t-19.5 48zM113 543q0 28 19.5 46.5t47.5 18.5t47 -18.5t19 -46.5t-19 -48t-47 -20t-47.5 20t-19.5 48zM1563 784q0 28 19.5 47t47.5 19t47 -19t19 -47t-19 -47.5t-47 -19.5t-47.5 19.5t-19.5 47.5z M838 784q0 28 19.5 47t47.5 19t47 -19t19 -47t-19 -47.5t-47 -19.5t-47.5 19.5t-19.5 47.5zM113 784q0 28 19.5 47t47.5 19t47 -19t19 -47t-19 -47.5t-47 -19.5t-47.5 19.5t-19.5 47.5zM1563 1026q0 28 19.5 47t47.5 19t47 -19t19 -47t-19 -48t-47 -20t-47.5 20t-19.5 48z M838 1026q0 28 19.5 47t47.5 19t47 -19t19 -47t-19 -48t-47 -20t-47.5 20t-19.5 48z" />
<glyph unicode="x" d="M113 1026q0 28 19.5 47t47.5 19t47 -19t19 -47t-19 -48t-47 -20t-47.5 20t-19.5 48zM1079 59q0 28 20 47t48 19t46.5 -19t18.5 -47t-18.5 -47.5t-46.5 -19.5t-48 19.5t-20 47.5zM113 59q0 28 19.5 47t47.5 19t47 -19t19 -47t-19 -47.5t-47 -19.5t-47.5 19.5t-19.5 47.5z M838 301q0 28 19.5 47t47.5 19t47 -19t19 -47t-19 -48t-47 -20t-47.5 20t-19.5 48zM354 301q0 28 20 47t48 19t46.5 -19t18.5 -47t-19 -48t-46 -20q-28 0 -48 20t-20 48zM596 543q0 27 20 46t48 19t46.5 -18.5t18.5 -46.5t-19 -48t-46 -20q-28 0 -48 20t-20 48zM838 784 q0 28 19.5 47t47.5 19t47 -19t19 -47t-19 -47.5t-47 -19.5t-47.5 19.5t-19.5 47.5zM354 784q0 28 20 47t48 19t46.5 -19t18.5 -47t-18.5 -47.5t-46.5 -19.5t-48 19.5t-20 47.5zM1079 1026q0 28 20 47t48 19t46.5 -19t18.5 -47t-19 -48t-46 -20q-28 0 -48 20t-20 48z" />
<glyph unicode="y" d="M113 1026q0 28 19.5 47t47.5 19t47 -19t19 -47t-19 -48t-47 -20t-47.5 20t-19.5 48zM596 -182q0 27 20 46t48 19t46.5 -18.5t18.5 -46.5t-19 -48t-46 -20q-28 0 -48 20t-20 48zM596 59q0 28 20 47t48 19t46.5 -19t18.5 -47t-18.5 -47.5t-46.5 -19.5t-48 19.5t-20 47.5z M838 301q0 28 19.5 47t47.5 19t47 -19t19 -47t-19 -48t-47 -20t-47.5 20t-19.5 48zM354 301q0 28 20 47t48 19t46.5 -19t18.5 -47t-19 -48t-46 -20q-28 0 -48 20t-20 48zM1079 543q0 27 20 46t48 19t46.5 -18.5t18.5 -46.5t-19 -48t-46 -20q-28 0 -48 20t-20 48zM113 543 q0 28 19.5 46.5t47.5 18.5t47 -18.5t19 -46.5t-19 -48t-47 -20t-47.5 20t-19.5 48zM1079 784q0 28 20 47t48 19t46.5 -19t18.5 -47t-18.5 -47.5t-46.5 -19.5t-48 19.5t-20 47.5zM113 784q0 28 19.5 47t47.5 19t47 -19t19 -47t-19 -47.5t-47 -19.5t-47.5 19.5t-19.5 47.5z M1079 1026q0 28 20 47t48 19t46.5 -19t18.5 -47t-19 -48t-46 -20q-28 0 -48 20t-20 48z" />
<glyph unicode="z" horiz-adv-x="1087" d="M113 1026q0 28 19.5 47t47.5 19t47 -19t19 -47t-19 -48t-47 -20t-47.5 20t-19.5 48zM838 59q0 28 19.5 47t47.5 19t47 -19t19 -47t-19 -47.5t-47 -19.5t-47.5 19.5t-19.5 47.5zM596 59q0 28 20 47t48 19t46.5 -19t18.5 -47t-18.5 -47.5t-46.5 -19.5t-48 19.5t-20 47.5z M354 59q0 28 20 47t48 19t46.5 -19t18.5 -47t-18.5 -47.5t-46.5 -19.5t-48 19.5t-20 47.5zM113 59q0 28 19.5 47t47.5 19t47 -19t19 -47t-19 -47.5t-47 -19.5t-47.5 19.5t-19.5 47.5zM354 422q0 27 20 46t48 19t46.5 -18.5t18.5 -46.5t-19 -48t-46 -20q-28 0 -48 20t-20 48z M596 664q0 27 20 46t48 19t46.5 -18.5t18.5 -46.5t-19 -48t-46 -20q-28 0 -48 20t-20 48zM838 1026q0 28 19.5 47t47.5 19t47 -19t19 -47t-19 -48t-47 -20t-47.5 20t-19.5 48zM596 1026q0 28 20 47t48 19t46.5 -19t18.5 -47t-19 -48t-46 -20q-28 0 -48 20t-20 48zM354 1026 q0 28 20 47t48 19t46.5 -19t18.5 -47t-19 -48t-46 -20q-28 0 -48 20t-20 48z" />
<glyph unicode="{" horiz-adv-x="724" d="M354 1268q0 27 20 46t48 19t46.5 -18.5t18.5 -46.5t-19 -48t-46 -20q-28 0 -48 20t-20 48zM354 -182q0 27 20 46t48 19t46.5 -18.5t18.5 -46.5t-19 -48t-46 -20q-28 0 -48 20t-20 48zM354 59q0 28 20 47t48 19t46.5 -19t18.5 -47t-18.5 -47.5t-46.5 -19.5t-48 19.5 t-20 47.5zM233 301q0 28 20 47t48 19t47 -19t19 -47t-19 -48t-47 -20t-48 20t-20 48zM233 543q0 27 20 46t48 19t47 -18.5t19 -46.5t-19 -48t-47 -20t-48 20t-20 48zM-8 543q0 28 19.5 46.5t47.5 18.5t47 -18.5t19 -46.5t-19 -48t-47 -20t-47.5 20t-19.5 48zM233 784 q0 28 20 47t48 19t47 -19t19 -47t-19 -47.5t-47 -19.5t-48 19.5t-20 47.5zM354 1026q0 28 20 47t48 19t46.5 -19t18.5 -47t-19 -48t-46 -20q-28 0 -48 20t-20 48z" />
<glyph unicode="|" horiz-adv-x="362" d="M113 1389q0 28 19.5 46.5t47.5 18.5t47 -18.5t19 -46.5t-19 -48t-47 -20t-47.5 20t-19.5 48zM113 -303q0 28 19.5 46.5t47.5 18.5t47 -18.5t19 -46.5t-19 -48t-47 -20t-47.5 20t-19.5 48zM113 -61q0 28 19.5 46.5t47.5 18.5t47 -18.5t19 -46.5t-19 -48t-47 -20t-47.5 20 t-19.5 48zM113 180q0 28 19.5 47t47.5 19t47 -19t19 -47t-19 -47.5t-47 -19.5t-47.5 19.5t-19.5 47.5zM113 422q0 28 19.5 46.5t47.5 18.5t47 -18.5t19 -46.5t-19 -48t-47 -20t-47.5 20t-19.5 48zM113 664q0 28 19.5 46.5t47.5 18.5t47 -18.5t19 -46.5t-19 -48t-47 -20 t-47.5 20t-19.5 48zM113 905q0 28 19.5 47t47.5 19t47 -19t19 -47t-19 -47.5t-47 -19.5t-47.5 19.5t-19.5 47.5zM113 1147q0 28 19.5 46.5t47.5 18.5t47 -18.5t19 -46.5t-19 -48t-47 -20t-47.5 20t-19.5 48z" />
<glyph unicode="}" horiz-adv-x="724" d="M233 1268q0 27 20 46t48 19t47 -18.5t19 -46.5t-19 -48t-47 -20t-48 20t-20 48zM233 -182q0 27 20 46t48 19t47 -18.5t19 -46.5t-19 -48t-47 -20t-48 20t-20 48zM233 59q0 28 20 47t48 19t47 -19t19 -47t-19 -47.5t-47 -19.5t-48 19.5t-20 47.5zM354 301q0 28 20 47 t48 19t46.5 -19t18.5 -47t-19 -48t-46 -20q-28 0 -48 20t-20 48zM596 543q0 27 20 46t48 19t46.5 -18.5t18.5 -46.5t-19 -48t-46 -20q-28 0 -48 20t-20 48zM354 543q0 27 20 46t48 19t46.5 -18.5t18.5 -46.5t-19 -48t-46 -20q-28 0 -48 20t-20 48zM354 784q0 28 20 47t48 19 t46.5 -19t18.5 -47t-18.5 -47.5t-46.5 -19.5t-48 19.5t-20 47.5zM233 1026q0 28 20 47t48 19t47 -19t19 -47t-19 -48t-47 -20t-48 20t-20 48z" />
<glyph unicode="~" horiz-adv-x="1087" d="M354 784q0 28 20 47t48 19t46.5 -19t18.5 -47t-18.5 -47.5t-46.5 -19.5t-48 19.5t-20 47.5zM596 543q0 27 20 46t48 19t46.5 -18.5t18.5 -46.5t-19 -48t-46 -20q-28 0 -48 20t-20 48zM113 543q0 28 19.5 46.5t47.5 18.5t47 -18.5t19 -46.5t-19 -48t-47 -20t-47.5 20 t-19.5 48zM838 784q0 28 19.5 47t47.5 19t47 -19t19 -47t-19 -47.5t-47 -19.5t-47.5 19.5t-19.5 47.5z" />
<glyph unicode="&#xa1;" horiz-adv-x="362" d="M113 905q0 28 19.5 47t47.5 19t47 -19t19 -47t-19 -47.5t-47 -19.5t-47.5 19.5t-19.5 47.5zM113 -182q0 28 19.5 46.5t47.5 18.5t47 -18.5t19 -46.5t-19 -48t-47 -20t-47.5 20t-19.5 48zM113 59q0 28 19.5 47t47.5 19t47 -19t19 -47t-19 -47.5t-47 -19.5t-47.5 19.5 t-19.5 47.5zM113 301q0 28 19.5 47t47.5 19t47 -19t19 -47t-19 -48t-47 -20t-47.5 20t-19.5 48zM113 543q0 28 19.5 46.5t47.5 18.5t47 -18.5t19 -46.5t-19 -48t-47 -20t-47.5 20t-19.5 48z" />
<glyph unicode="&#xa2;" horiz-adv-x="1208" d="M596 1268q0 27 20 46t48 19t46.5 -18.5t18.5 -46.5t-19 -48t-46 -20q-28 0 -48 20t-20 48zM596 -182q0 27 20 46t48 19t46.5 -18.5t18.5 -46.5t-19 -48t-46 -20q-28 0 -48 20t-20 48zM717 59q0 28 19.5 47t47.5 19t47 -19t19 -47t-19 -47.5t-47 -19.5t-47.5 19.5 t-19.5 47.5zM475 59q0 28 20 47t48 19t46.5 -19t18.5 -47t-18.5 -47.5t-46.5 -19.5t-48 19.5t-20 47.5zM958 180q0 28 20 47t48 19t47 -19t19 -47t-19 -47.5t-47 -19.5t-48 19.5t-20 47.5zM233 180q0 28 20 47t48 19t47 -19t19 -47t-19 -47.5t-47 -19.5t-48 19.5t-20 47.5z M596 301q0 28 20 47t48 19t46.5 -19t18.5 -47t-19 -48t-46 -20q-28 0 -48 20t-20 48zM113 422q0 28 19.5 46.5t47.5 18.5t47 -18.5t19 -46.5t-19 -48t-47 -20t-47.5 20t-19.5 48zM596 543q0 27 20 46t48 19t46.5 -18.5t18.5 -46.5t-19 -48t-46 -20q-28 0 -48 20t-20 48z M113 664q0 28 19.5 46.5t47.5 18.5t47 -18.5t19 -46.5t-19 -48t-47 -20t-47.5 20t-19.5 48zM596 784q0 28 20 47t48 19t46.5 -19t18.5 -47t-18.5 -47.5t-46.5 -19.5t-48 19.5t-20 47.5zM958 905q0 28 20 47t48 19t47 -19t19 -47t-19 -47.5t-47 -19.5t-48 19.5t-20 47.5z M233 905q0 28 20 47t48 19t47 -19t19 -47t-19 -47.5t-47 -19.5t-48 19.5t-20 47.5zM717 1026q0 28 19.5 47t47.5 19t47 -19t19 -47t-19 -48t-47 -20t-47.5 20t-19.5 48zM475 1026q0 28 20 47t48 19t46.5 -19t18.5 -47t-19 -48t-46 -20q-28 0 -48 20t-20 48z" />
<glyph unicode="&#xa3;" d="M475 1026q0 28 20 47t48 19t46.5 -19t18.5 -47t-19 -48t-46 -20q-28 0 -48 20t-20 48zM838 59q0 28 19.5 47t47.5 19t47 -19t19 -47t-19 -47.5t-47 -19.5t-47.5 19.5t-19.5 47.5zM354 59q0 28 20 47t48 19t46.5 -19t18.5 -47t-18.5 -47.5t-46.5 -19.5t-48 19.5t-20 47.5z M1079 180q0 28 20 47t48 19t46.5 -19t18.5 -47t-18.5 -47.5t-46.5 -19.5t-48 19.5t-20 47.5zM596 180q0 28 20 47t48 19t46.5 -19t18.5 -47t-18.5 -47.5t-46.5 -19.5t-48 19.5t-20 47.5zM354 301q0 28 20 47t48 19t46.5 -19t18.5 -47t-19 -48t-46 -20q-28 0 -48 20t-20 48z M596 543q0 27 20 46t48 19t46.5 -18.5t18.5 -46.5t-19 -48t-46 -20q-28 0 -48 20t-20 48zM354 543q0 27 20 46t48 19t46.5 -18.5t18.5 -46.5t-19 -48t-46 -20q-28 0 -48 20t-20 48zM113 543q0 28 19.5 46.5t47.5 18.5t47 -18.5t19 -46.5t-19 -48t-47 -20t-47.5 20t-19.5 48z M958 784q0 28 20 47t48 19t47 -19t19 -47t-19 -47.5t-47 -19.5t-48 19.5t-20 47.5zM354 784q0 28 20 47t48 19t46.5 -19t18.5 -47t-18.5 -47.5t-46.5 -19.5t-48 19.5t-20 47.5zM717 1026q0 28 19.5 47t47.5 19t47 -19t19 -47t-19 -48t-47 -20t-47.5 20t-19.5 48z" />
<glyph unicode="&#xa4;" horiz-adv-x="1087" d="M113 1026q0 28 19.5 47t47.5 19t47 -19t19 -47t-19 -48t-47 -20t-47.5 20t-19.5 48zM838 59q0 28 19.5 47t47.5 19t47 -19t19 -47t-19 -47.5t-47 -19.5t-47.5 19.5t-19.5 47.5zM113 59q0 28 19.5 47t47.5 19t47 -19t19 -47t-19 -47.5t-47 -19.5t-47.5 19.5t-19.5 47.5z M475 180q0 28 20 47t48 19t46.5 -19t18.5 -47t-18.5 -47.5t-46.5 -19.5t-48 19.5t-20 47.5zM717 301q0 28 19.5 47t47.5 19t47 -19t19 -47t-19 -48t-47 -20t-47.5 20t-19.5 48zM233 301q0 28 20 47t48 19t47 -19t19 -47t-19 -48t-47 -20t-48 20t-20 48zM838 543 q0 28 19.5 46.5t47.5 18.5t47 -18.5t19 -46.5t-19 -48t-47 -20t-47.5 20t-19.5 48zM113 543q0 28 19.5 46.5t47.5 18.5t47 -18.5t19 -46.5t-19 -48t-47 -20t-47.5 20t-19.5 48zM717 784q0 28 19.5 47t47.5 19t47 -19t19 -47t-19 -47.5t-47 -19.5t-47.5 19.5t-19.5 47.5z M233 784q0 28 20 47t48 19t47 -19t19 -47t-19 -47.5t-47 -19.5t-48 19.5t-20 47.5zM475 905q0 28 20 47t48 19t46.5 -19t18.5 -47t-18.5 -47.5t-46.5 -19.5t-48 19.5t-20 47.5zM838 1026q0 28 19.5 47t47.5 19t47 -19t19 -47t-19 -48t-47 -20t-47.5 20t-19.5 48z" />
<glyph unicode="&#xa5;" d="M113 1026q0 28 19.5 47t47.5 19t47 -19t19 -47t-19 -48t-47 -20t-47.5 20t-19.5 48zM596 59q0 28 20 47t48 19t46.5 -19t18.5 -47t-18.5 -47.5t-46.5 -19.5t-48 19.5t-20 47.5zM838 301q0 28 19.5 47t47.5 19t47 -19t19 -47t-19 -48t-47 -20t-47.5 20t-19.5 48zM596 301 q0 28 20 47t48 19t46.5 -19t18.5 -47t-19 -48t-46 -20q-28 0 -48 20t-20 48zM354 301q0 28 20 47t48 19t46.5 -19t18.5 -47t-19 -48t-46 -20q-28 0 -48 20t-20 48zM838 543q0 28 19.5 46.5t47.5 18.5t47 -18.5t19 -46.5t-19 -48t-47 -20t-47.5 20t-19.5 48zM596 543 q0 27 20 46t48 19t46.5 -18.5t18.5 -46.5t-19 -48t-46 -20q-28 0 -48 20t-20 48zM354 543q0 27 20 46t48 19t46.5 -18.5t18.5 -46.5t-19 -48t-46 -20q-28 0 -48 20t-20 48zM838 784q0 28 19.5 47t47.5 19t47 -19t19 -47t-19 -47.5t-47 -19.5t-47.5 19.5t-19.5 47.5zM354 784 q0 28 20 47t48 19t46.5 -19t18.5 -47t-18.5 -47.5t-46.5 -19.5t-48 19.5t-20 47.5zM1079 1026q0 28 20 47t48 19t46.5 -19t18.5 -47t-19 -48t-46 -20q-28 0 -48 20t-20 48z" />
<glyph unicode="&#xa6;" horiz-adv-x="362" d="M113 1389q0 28 19.5 46.5t47.5 18.5t47 -18.5t19 -46.5t-19 -48t-47 -20t-47.5 20t-19.5 48zM113 -303q0 28 19.5 46.5t47.5 18.5t47 -18.5t19 -46.5t-19 -48t-47 -20t-47.5 20t-19.5 48zM113 -61q0 28 19.5 46.5t47.5 18.5t47 -18.5t19 -46.5t-19 -48t-47 -20t-47.5 20 t-19.5 48zM113 180q0 28 19.5 47t47.5 19t47 -19t19 -47t-19 -47.5t-47 -19.5t-47.5 19.5t-19.5 47.5zM113 905q0 28 19.5 47t47.5 19t47 -19t19 -47t-19 -47.5t-47 -19.5t-47.5 19.5t-19.5 47.5zM113 1147q0 28 19.5 46.5t47.5 18.5t47 -18.5t19 -46.5t-19 -48t-47 -20 t-47.5 20t-19.5 48z" />
<glyph unicode="&#xa7;" horiz-adv-x="1087" d="M354 1026q0 28 20 47t48 19t46.5 -19t18.5 -47t-19 -48t-46 -20q-28 0 -48 20t-20 48zM596 -303q0 27 20 46t48 19t46.5 -18.5t18.5 -46.5t-19 -48t-46 -20q-28 0 -48 20t-20 48zM233 -303q0 27 20 46t48 19t47 -18.5t19 -46.5t-19 -48t-47 -20t-48 20t-20 48zM838 -182 q0 28 19.5 46.5t47.5 18.5t47 -18.5t19 -46.5t-19 -48t-47 -20t-47.5 20t-19.5 48zM596 59q0 28 20 47t48 19t46.5 -19t18.5 -47t-18.5 -47.5t-46.5 -19.5t-48 19.5t-20 47.5zM838 180q0 28 19.5 47t47.5 19t47 -19t19 -47t-19 -47.5t-47 -19.5t-47.5 19.5t-19.5 47.5z M354 180q0 28 20 47t48 19t46.5 -19t18.5 -47t-18.5 -47.5t-46.5 -19.5t-48 19.5t-20 47.5zM596 422q0 27 20 46t48 19t46.5 -18.5t18.5 -46.5t-19 -48t-46 -20q-28 0 -48 20t-20 48zM233 422q0 27 20 46t48 19t47 -18.5t19 -46.5t-19 -48t-47 -20t-48 20t-20 48zM354 664 q0 27 20 46t48 19t46.5 -18.5t18.5 -46.5t-19 -48t-46 -20q-28 0 -48 20t-20 48zM113 905q0 28 19.5 47t47.5 19t47 -19t19 -47t-19 -47.5t-47 -19.5t-47.5 19.5t-19.5 47.5zM838 1026q0 28 19.5 47t47.5 19t47 -19t19 -47t-19 -48t-47 -20t-47.5 20t-19.5 48zM596 1026 q0 28 20 47t48 19t46.5 -19t18.5 -47t-19 -48t-46 -20q-28 0 -48 20t-20 48z" />
<glyph unicode="&#xa8;" horiz-adv-x="604" d="M113 1026q0 28 19.5 47t47.5 19t47 -19t19 -47t-19 -48t-47 -20t-47.5 20t-19.5 48zM354 1026q0 28 20 47t48 19t46.5 -19t18.5 -47t-19 -48t-46 -20q-28 0 -48 20t-20 48z" />
<glyph unicode="&#xa9;" d="M475 1026q0 28 20 47t48 19t46.5 -19t18.5 -47t-19 -48t-46 -20q-28 0 -48 20t-20 48zM717 59q0 28 19.5 47t47.5 19t47 -19t19 -47t-19 -47.5t-47 -19.5t-47.5 19.5t-19.5 47.5zM475 59q0 28 20 47t48 19t46.5 -19t18.5 -47t-18.5 -47.5t-46.5 -19.5t-48 19.5t-20 47.5z M958 180q0 28 20 47t48 19t47 -19t19 -47t-19 -47.5t-47 -19.5t-48 19.5t-20 47.5zM233 180q0 28 20 47t48 19t47 -19t19 -47t-19 -47.5t-47 -19.5t-48 19.5t-20 47.5zM596 301q0 28 20 47t48 19t46.5 -19t18.5 -47t-19 -48t-46 -20q-28 0 -48 20t-20 48zM1079 422 q0 27 20 46t48 19t46.5 -18.5t18.5 -46.5t-19 -48t-46 -20q-28 0 -48 20t-20 48zM838 422q0 28 19.5 46.5t47.5 18.5t47 -18.5t19 -46.5t-19 -48t-47 -20t-47.5 20t-19.5 48zM354 422q0 27 20 46t48 19t46.5 -18.5t18.5 -46.5t-19 -48t-46 -20q-28 0 -48 20t-20 48zM113 422 q0 28 19.5 46.5t47.5 18.5t47 -18.5t19 -46.5t-19 -48t-47 -20t-47.5 20t-19.5 48zM1079 664q0 27 20 46t48 19t46.5 -18.5t18.5 -46.5t-19 -48t-46 -20q-28 0 -48 20t-20 48zM838 664q0 28 19.5 46.5t47.5 18.5t47 -18.5t19 -46.5t-19 -48t-47 -20t-47.5 20t-19.5 48z M354 664q0 27 20 46t48 19t46.5 -18.5t18.5 -46.5t-19 -48t-46 -20q-28 0 -48 20t-20 48zM113 664q0 28 19.5 46.5t47.5 18.5t47 -18.5t19 -46.5t-19 -48t-47 -20t-47.5 20t-19.5 48zM596 784q0 28 20 47t48 19t46.5 -19t18.5 -47t-18.5 -47.5t-46.5 -19.5t-48 19.5 t-20 47.5zM958 905q0 28 20 47t48 19t47 -19t19 -47t-19 -47.5t-47 -19.5t-48 19.5t-20 47.5zM233 905q0 28 20 47t48 19t47 -19t19 -47t-19 -47.5t-47 -19.5t-48 19.5t-20 47.5zM717 1026q0 28 19.5 47t47.5 19t47 -19t19 -47t-19 -48t-47 -20t-47.5 20t-19.5 48z" />
<glyph unicode="&#xaa;" horiz-adv-x="966" d="M233 1026q0 28 20 47t48 19t47 -19t19 -47t-19 -48t-47 -20t-48 20t-20 48zM717 543q0 28 19.5 46.5t47.5 18.5t47 -18.5t19 -46.5t-19 -48t-47 -20t-47.5 20t-19.5 48zM475 543q0 27 20 46t48 19t46.5 -18.5t18.5 -46.5t-19 -48t-46 -20q-28 0 -48 20t-20 48zM233 543 q0 27 20 46t48 19t47 -18.5t19 -46.5t-19 -48t-47 -20t-48 20t-20 48zM596 784q0 28 20 47t48 19t46.5 -19t18.5 -47t-18.5 -47.5t-46.5 -19.5t-48 19.5t-20 47.5zM113 784q0 28 19.5 47t47.5 19t47 -19t19 -47t-19 -47.5t-47 -19.5t-47.5 19.5t-19.5 47.5zM475 1026 q0 28 20 47t48 19t46.5 -19t18.5 -47t-19 -48t-46 -20q-28 0 -48 20t-20 48z" />
<glyph unicode="&#xab;" horiz-adv-x="1449" d="M596 1026q0 28 20 47t48 19t46.5 -19t18.5 -47t-19 -48t-46 -20q-28 0 -48 20t-20 48zM1200 59q0 28 20 47t48 19t46.5 -19t18.5 -47t-18.5 -47.5t-46.5 -19.5t-48 19.5t-20 47.5zM596 59q0 28 20 47t48 19t46.5 -19t18.5 -47t-18.5 -47.5t-46.5 -19.5t-48 19.5t-20 47.5 zM958 301q0 28 20 47t48 19t47 -19t19 -47t-19 -48t-47 -20t-48 20t-20 48zM354 301q0 28 20 47t48 19t46.5 -19t18.5 -47t-19 -48t-46 -20q-28 0 -48 20t-20 48zM717 543q0 28 19.5 46.5t47.5 18.5t47 -18.5t19 -46.5t-19 -48t-47 -20t-47.5 20t-19.5 48zM113 543 q0 28 19.5 46.5t47.5 18.5t47 -18.5t19 -46.5t-19 -48t-47 -20t-47.5 20t-19.5 48zM958 784q0 28 20 47t48 19t47 -19t19 -47t-19 -47.5t-47 -19.5t-48 19.5t-20 47.5zM354 784q0 28 20 47t48 19t46.5 -19t18.5 -47t-18.5 -47.5t-46.5 -19.5t-48 19.5t-20 47.5zM1200 1026 q0 28 20 47t48 19t46.5 -19t18.5 -47t-19 -48t-46 -20q-28 0 -48 20t-20 48z" />
<glyph unicode="&#xac;" horiz-adv-x="966" d="M113 664q0 28 19.5 46.5t47.5 18.5t47 -18.5t19 -46.5t-19 -48t-47 -20t-47.5 20t-19.5 48zM717 422q0 28 19.5 46.5t47.5 18.5t47 -18.5t19 -46.5t-19 -48t-47 -20t-47.5 20t-19.5 48zM596 664q0 27 20 46t48 19t46.5 -18.5t18.5 -46.5t-19 -48t-46 -20q-28 0 -48 20 t-20 48zM354 664q0 27 20 46t48 19t46.5 -18.5t18.5 -46.5t-19 -48t-46 -20q-28 0 -48 20t-20 48z" />
<glyph unicode="&#xad;" horiz-adv-x="1087" d="M113 543q0 28 19.5 46.5t47.5 18.5t47 -18.5t19 -46.5t-19 -48t-47 -20t-47.5 20t-19.5 48zM838 543q0 28 19.5 46.5t47.5 18.5t47 -18.5t19 -46.5t-19 -48t-47 -20t-47.5 20t-19.5 48zM596 543q0 27 20 46t48 19t46.5 -18.5t18.5 -46.5t-19 -48t-46 -20q-28 0 -48 20 t-20 48zM354 543q0 27 20 46t48 19t46.5 -18.5t18.5 -46.5t-19 -48t-46 -20q-28 0 -48 20t-20 48z" />
<glyph unicode="&#xae;" d="M475 1026q0 28 20 47t48 19t46.5 -19t18.5 -47t-19 -48t-46 -20q-28 0 -48 20t-20 48zM717 59q0 28 19.5 47t47.5 19t47 -19t19 -47t-19 -47.5t-47 -19.5t-47.5 19.5t-19.5 47.5zM475 59q0 28 20 47t48 19t46.5 -19t18.5 -47t-18.5 -47.5t-46.5 -19.5t-48 19.5t-20 47.5z M958 180q0 28 20 47t48 19t47 -19t19 -47t-19 -47.5t-47 -19.5t-48 19.5t-20 47.5zM233 180q0 28 20 47t48 19t47 -19t19 -47t-19 -47.5t-47 -19.5t-48 19.5t-20 47.5zM475 301q0 28 20 47t48 19t46.5 -19t18.5 -47t-19 -48t-46 -20q-28 0 -48 20t-20 48zM1079 422 q0 27 20 46t48 19t46.5 -18.5t18.5 -46.5t-19 -48t-46 -20q-28 0 -48 20t-20 48zM838 422q0 28 19.5 46.5t47.5 18.5t47 -18.5t19 -46.5t-19 -48t-47 -20t-47.5 20t-19.5 48zM113 422q0 28 19.5 46.5t47.5 18.5t47 -18.5t19 -46.5t-19 -48t-47 -20t-47.5 20t-19.5 48z M717 543q0 28 19.5 46.5t47.5 18.5t47 -18.5t19 -46.5t-19 -48t-47 -20t-47.5 20t-19.5 48zM475 543q0 27 20 46t48 19t46.5 -18.5t18.5 -46.5t-19 -48t-46 -20q-28 0 -48 20t-20 48zM1079 664q0 27 20 46t48 19t46.5 -18.5t18.5 -46.5t-19 -48t-46 -20q-28 0 -48 20t-20 48 zM113 664q0 28 19.5 46.5t47.5 18.5t47 -18.5t19 -46.5t-19 -48t-47 -20t-47.5 20t-19.5 48zM717 784q0 28 19.5 47t47.5 19t47 -19t19 -47t-19 -47.5t-47 -19.5t-47.5 19.5t-19.5 47.5zM475 784q0 28 20 47t48 19t46.5 -19t18.5 -47t-18.5 -47.5t-46.5 -19.5t-48 19.5 t-20 47.5zM958 905q0 28 20 47t48 19t47 -19t19 -47t-19 -47.5t-47 -19.5t-48 19.5t-20 47.5zM233 905q0 28 20 47t48 19t47 -19t19 -47t-19 -47.5t-47 -19.5t-48 19.5t-20 47.5zM717 1026q0 28 19.5 47t47.5 19t47 -19t19 -47t-19 -48t-47 -20t-47.5 20t-19.5 48z" />
<glyph unicode="&#xaf;" horiz-adv-x="845" d="M113 1026q0 28 19.5 47t47.5 19t47 -19t19 -47t-19 -48t-47 -20t-47.5 20t-19.5 48zM596 1026q0 28 20 47t48 19t46.5 -19t18.5 -47t-19 -48t-46 -20q-28 0 -48 20t-20 48zM354 1026q0 28 20 47t48 19t46.5 -19t18.5 -47t-19 -48t-46 -20q-28 0 -48 20t-20 48z" />
<glyph unicode="&#xb0;" horiz-adv-x="966" d="M233 1026q0 28 20 47t48 19t47 -19t19 -47t-19 -48t-47 -20t-48 20t-20 48zM475 543q0 27 20 46t48 19t46.5 -18.5t18.5 -46.5t-19 -48t-46 -20q-28 0 -48 20t-20 48zM233 543q0 27 20 46t48 19t47 -18.5t19 -46.5t-19 -48t-47 -20t-48 20t-20 48zM596 784q0 28 20 47 t48 19t46.5 -19t18.5 -47t-18.5 -47.5t-46.5 -19.5t-48 19.5t-20 47.5zM113 784q0 28 19.5 47t47.5 19t47 -19t19 -47t-19 -47.5t-47 -19.5t-47.5 19.5t-19.5 47.5zM475 1026q0 28 20 47t48 19t46.5 -19t18.5 -47t-19 -48t-46 -20q-28 0 -48 20t-20 48z" />
<glyph unicode="&#xb1;" horiz-adv-x="845" d="M354 905q0 28 20 47t48 19t46.5 -19t18.5 -47t-18.5 -47.5t-46.5 -19.5t-48 19.5t-20 47.5zM596 180q0 28 20 47t48 19t46.5 -19t18.5 -47t-18.5 -47.5t-46.5 -19.5t-48 19.5t-20 47.5zM354 180q0 28 20 47t48 19t46.5 -19t18.5 -47t-18.5 -47.5t-46.5 -19.5t-48 19.5 t-20 47.5zM113 180q0 28 19.5 47t47.5 19t47 -19t19 -47t-19 -47.5t-47 -19.5t-47.5 19.5t-19.5 47.5zM354 422q0 27 20 46t48 19t46.5 -18.5t18.5 -46.5t-19 -48t-46 -20q-28 0 -48 20t-20 48zM596 664q0 27 20 46t48 19t46.5 -18.5t18.5 -46.5t-19 -48t-46 -20 q-28 0 -48 20t-20 48zM354 664q0 27 20 46t48 19t46.5 -18.5t18.5 -46.5t-19 -48t-46 -20q-28 0 -48 20t-20 48zM113 664q0 28 19.5 46.5t47.5 18.5t47 -18.5t19 -46.5t-19 -48t-47 -20t-47.5 20t-19.5 48z" />
<glyph unicode="&#xb2;" horiz-adv-x="966" d="M354 1026q0 28 20 47t48 19t46.5 -19t18.5 -47t-19 -48t-46 -20q-28 0 -48 20t-20 48zM596 543q0 27 20 46t48 19t46.5 -18.5t18.5 -46.5t-19 -48t-46 -20q-28 0 -48 20t-20 48zM354 543q0 27 20 46t48 19t46.5 -18.5t18.5 -46.5t-19 -48t-46 -20q-28 0 -48 20t-20 48z M113 543q0 28 19.5 46.5t47.5 18.5t47 -18.5t19 -46.5t-19 -48t-47 -20t-47.5 20t-19.5 48zM354 784q0 28 20 47t48 19t46.5 -19t18.5 -47t-18.5 -47.5t-46.5 -19.5t-48 19.5t-20 47.5zM596 905q0 28 20 47t48 19t46.5 -19t18.5 -47t-18.5 -47.5t-46.5 -19.5t-48 19.5 t-20 47.5zM113 905q0 28 19.5 47t47.5 19t47 -19t19 -47t-19 -47.5t-47 -19.5t-47.5 19.5t-19.5 47.5z" />
<glyph unicode="&#xb3;" horiz-adv-x="845" d="M113 1026q0 28 19.5 47t47.5 19t47 -19t19 -47t-19 -48t-47 -20t-47.5 20t-19.5 48zM354 543q0 27 20 46t48 19t46.5 -18.5t18.5 -46.5t-19 -48t-46 -20q-28 0 -48 20t-20 48zM113 543q0 28 19.5 46.5t47.5 18.5t47 -18.5t19 -46.5t-19 -48t-47 -20t-47.5 20t-19.5 48z M596 664q0 27 20 46t48 19t46.5 -18.5t18.5 -46.5t-19 -48t-46 -20q-28 0 -48 20t-20 48zM354 784q0 28 20 47t48 19t46.5 -19t18.5 -47t-18.5 -47.5t-46.5 -19.5t-48 19.5t-20 47.5zM596 905q0 28 20 47t48 19t46.5 -19t18.5 -47t-18.5 -47.5t-46.5 -19.5t-48 19.5 t-20 47.5zM354 1026q0 28 20 47t48 19t46.5 -19t18.5 -47t-19 -48t-46 -20q-28 0 -48 20t-20 48z" />
<glyph unicode="&#xb4;" horiz-adv-x="604" d="M354 1026q0 28 20 47t48 19t46.5 -19t18.5 -47t-19 -48t-46 -20q-28 0 -48 20t-20 48zM113 905q0 28 19.5 47t47.5 19t47 -19t19 -47t-19 -47.5t-47 -19.5t-47.5 19.5t-19.5 47.5z" />
<glyph unicode="&#xb5;" d="M113 1026q0 28 19.5 47t47.5 19t47 -19t19 -47t-19 -48t-47 -20t-47.5 20t-19.5 48zM113 -182q0 28 19.5 46.5t47.5 18.5t47 -18.5t19 -46.5t-19 -48t-47 -20t-47.5 20t-19.5 48zM1079 59q0 28 20 47t48 19t46.5 -19t18.5 -47t-18.5 -47.5t-46.5 -19.5t-48 19.5t-20 47.5 zM596 59q0 28 20 47t48 19t46.5 -19t18.5 -47t-18.5 -47.5t-46.5 -19.5t-48 19.5t-20 47.5zM113 59q0 28 19.5 47t47.5 19t47 -19t19 -47t-19 -47.5t-47 -19.5t-47.5 19.5t-19.5 47.5zM838 180q0 28 19.5 47t47.5 19t47 -19t19 -47t-19 -47.5t-47 -19.5t-47.5 19.5 t-19.5 47.5zM354 180q0 28 20 47t48 19t46.5 -19t18.5 -47t-18.5 -47.5t-46.5 -19.5t-48 19.5t-20 47.5zM1079 301q0 28 20 47t48 19t46.5 -19t18.5 -47t-19 -48t-46 -20q-28 0 -48 20t-20 48zM113 301q0 28 19.5 47t47.5 19t47 -19t19 -47t-19 -48t-47 -20t-47.5 20 t-19.5 48zM1079 543q0 27 20 46t48 19t46.5 -18.5t18.5 -46.5t-19 -48t-46 -20q-28 0 -48 20t-20 48zM113 543q0 28 19.5 46.5t47.5 18.5t47 -18.5t19 -46.5t-19 -48t-47 -20t-47.5 20t-19.5 48zM1079 784q0 28 20 47t48 19t46.5 -19t18.5 -47t-18.5 -47.5t-46.5 -19.5 t-48 19.5t-20 47.5zM113 784q0 28 19.5 47t47.5 19t47 -19t19 -47t-19 -47.5t-47 -19.5t-47.5 19.5t-19.5 47.5zM1079 1026q0 28 20 47t48 19t46.5 -19t18.5 -47t-19 -48t-46 -20q-28 0 -48 20t-20 48z" />
<glyph unicode="&#xb6;" d="M354 1026q0 28 20 47t48 19t46.5 -19t18.5 -47t-19 -48t-46 -20q-28 0 -48 20t-20 48zM838 -182q0 28 19.5 46.5t47.5 18.5t47 -18.5t19 -46.5t-19 -48t-47 -20t-47.5 20t-19.5 48zM596 -182q0 27 20 46t48 19t46.5 -18.5t18.5 -46.5t-19 -48t-46 -20q-28 0 -48 20 t-20 48zM838 59q0 28 19.5 47t47.5 19t47 -19t19 -47t-19 -47.5t-47 -19.5t-47.5 19.5t-19.5 47.5zM596 59q0 28 20 47t48 19t46.5 -19t18.5 -47t-18.5 -47.5t-46.5 -19.5t-48 19.5t-20 47.5zM838 301q0 28 19.5 47t47.5 19t47 -19t19 -47t-19 -48t-47 -20t-47.5 20 t-19.5 48zM596 301q0 28 20 47t48 19t46.5 -19t18.5 -47t-19 -48t-46 -20q-28 0 -48 20t-20 48zM838 543q0 28 19.5 46.5t47.5 18.5t47 -18.5t19 -46.5t-19 -48t-47 -20t-47.5 20t-19.5 48zM596 543q0 27 20 46t48 19t46.5 -18.5t18.5 -46.5t-19 -48t-46 -20q-28 0 -48 20 t-20 48zM354 543q0 27 20 46t48 19t46.5 -18.5t18.5 -46.5t-19 -48t-46 -20q-28 0 -48 20t-20 48zM113 664q0 28 19.5 46.5t47.5 18.5t47 -18.5t19 -46.5t-19 -48t-47 -20t-47.5 20t-19.5 48zM838 784q0 28 19.5 47t47.5 19t47 -19t19 -47t-19 -47.5t-47 -19.5t-47.5 19.5 t-19.5 47.5zM596 784q0 28 20 47t48 19t46.5 -19t18.5 -47t-18.5 -47.5t-46.5 -19.5t-48 19.5t-20 47.5zM113 905q0 28 19.5 47t47.5 19t47 -19t19 -47t-19 -47.5t-47 -19.5t-47.5 19.5t-19.5 47.5zM1079 1026q0 28 20 47t48 19t46.5 -19t18.5 -47t-19 -48t-46 -20 q-28 0 -48 20t-20 48zM838 1026q0 28 19.5 47t47.5 19t47 -19t19 -47t-19 -48t-47 -20t-47.5 20t-19.5 48zM596 1026q0 28 20 47t48 19t46.5 -19t18.5 -47t-19 -48t-46 -20q-28 0 -48 20t-20 48z" />
<glyph unicode="&#xb7;" horiz-adv-x="362" d="M113 543q0 28 19.5 46.5t47.5 18.5t47 -18.5t19 -46.5t-19 -48t-47 -20t-47.5 20t-19.5 48z" />
<glyph unicode="&#xb8;" horiz-adv-x="604" d="M354 -182q0 27 20 46t48 19t46.5 -18.5t18.5 -46.5t-19 -48t-46 -20q-28 0 -48 20t-20 48zM113 -303q0 28 19.5 46.5t47.5 18.5t47 -18.5t19 -46.5t-19 -48t-47 -20t-47.5 20t-19.5 48z" />
<glyph unicode="&#xb9;" horiz-adv-x="845" d="M354 1026q0 28 20 47t48 19t46.5 -19t18.5 -47t-19 -48t-46 -20q-28 0 -48 20t-20 48zM596 543q0 27 20 46t48 19t46.5 -18.5t18.5 -46.5t-19 -48t-46 -20q-28 0 -48 20t-20 48zM354 543q0 27 20 46t48 19t46.5 -18.5t18.5 -46.5t-19 -48t-46 -20q-28 0 -48 20t-20 48z M113 543q0 28 19.5 46.5t47.5 18.5t47 -18.5t19 -46.5t-19 -48t-47 -20t-47.5 20t-19.5 48zM354 784q0 28 20 47t48 19t46.5 -19t18.5 -47t-18.5 -47.5t-46.5 -19.5t-48 19.5t-20 47.5zM113 905q0 28 19.5 47t47.5 19t47 -19t19 -47t-19 -47.5t-47 -19.5t-47.5 19.5 t-19.5 47.5z" />
<glyph unicode="&#xba;" horiz-adv-x="845" d="M233 1026q0 28 20 47t48 19t47 -19t19 -47t-19 -48t-47 -20t-48 20t-20 48zM475 543q0 27 20 46t48 19t46.5 -18.5t18.5 -46.5t-19 -48t-46 -20q-28 0 -48 20t-20 48zM233 543q0 27 20 46t48 19t47 -18.5t19 -46.5t-19 -48t-47 -20t-48 20t-20 48zM596 784q0 28 20 47 t48 19t46.5 -19t18.5 -47t-18.5 -47.5t-46.5 -19.5t-48 19.5t-20 47.5zM113 784q0 28 19.5 47t47.5 19t47 -19t19 -47t-19 -47.5t-47 -19.5t-47.5 19.5t-19.5 47.5zM475 1026q0 28 20 47t48 19t46.5 -19t18.5 -47t-19 -48t-46 -20q-28 0 -48 20t-20 48z" />
<glyph unicode="&#xbb;" horiz-adv-x="1449" d="M113 1026q0 28 19.5 47t47.5 19t47 -19t19 -47t-19 -48t-47 -20t-47.5 20t-19.5 48zM717 59q0 28 19.5 47t47.5 19t47 -19t19 -47t-19 -47.5t-47 -19.5t-47.5 19.5t-19.5 47.5zM113 59q0 28 19.5 47t47.5 19t47 -19t19 -47t-19 -47.5t-47 -19.5t-47.5 19.5t-19.5 47.5z M958 301q0 28 20 47t48 19t47 -19t19 -47t-19 -48t-47 -20t-48 20t-20 48zM354 301q0 28 20 47t48 19t46.5 -19t18.5 -47t-19 -48t-46 -20q-28 0 -48 20t-20 48zM1200 543q0 27 20 46t48 19t46.5 -18.5t18.5 -46.5t-19 -48t-46 -20q-28 0 -48 20t-20 48zM596 543q0 27 20 46 t48 19t46.5 -18.5t18.5 -46.5t-19 -48t-46 -20q-28 0 -48 20t-20 48zM958 784q0 28 20 47t48 19t47 -19t19 -47t-19 -47.5t-47 -19.5t-48 19.5t-20 47.5zM354 784q0 28 20 47t48 19t46.5 -19t18.5 -47t-18.5 -47.5t-46.5 -19.5t-48 19.5t-20 47.5zM717 1026q0 28 19.5 47 t47.5 19t47 -19t19 -47t-19 -48t-47 -20t-47.5 20t-19.5 48z" />
<glyph unicode="&#xbc;" horiz-adv-x="1933" d="M354 1026q0 28 20 47t48 19t46.5 -19t18.5 -47t-19 -48t-46 -20q-28 0 -48 20t-20 48zM1442 -182q0 28 19.5 46.5t47.5 18.5t47 -18.5t19 -46.5t-19 -48t-47 -20t-47.5 20t-19.5 48zM1683 59q0 28 20 47t48 19t47 -19t19 -47t-19 -47.5t-47 -19.5t-48 19.5t-20 47.5z M1442 59q0 28 19.5 47t47.5 19t47 -19t19 -47t-19 -47.5t-47 -19.5t-47.5 19.5t-19.5 47.5zM1079 59q0 28 20 47t48 19t46.5 -19t18.5 -47t-18.5 -47.5t-46.5 -19.5t-48 19.5t-20 47.5zM354 59q0 28 20 47t48 19t46.5 -19t18.5 -47t-18.5 -47.5t-46.5 -19.5t-48 19.5 t-20 47.5zM1442 301q0 28 19.5 47t47.5 19t47 -19t19 -47t-19 -48t-47 -20t-47.5 20t-19.5 48zM1200 301q0 28 20 47t48 19t46.5 -19t18.5 -47t-19 -48t-46 -20q-28 0 -48 20t-20 48zM596 301q0 28 20 47t48 19t46.5 -19t18.5 -47t-19 -48t-46 -20q-28 0 -48 20t-20 48z M1442 543q0 28 19.5 46.5t47.5 18.5t47 -18.5t19 -46.5t-19 -48t-47 -20t-47.5 20t-19.5 48zM838 543q0 28 19.5 46.5t47.5 18.5t47 -18.5t19 -46.5t-19 -48t-47 -20t-47.5 20t-19.5 48zM596 543q0 27 20 46t48 19t46.5 -18.5t18.5 -46.5t-19 -48t-46 -20q-28 0 -48 20 t-20 48zM354 543q0 27 20 46t48 19t46.5 -18.5t18.5 -46.5t-19 -48t-46 -20q-28 0 -48 20t-20 48zM113 543q0 28 19.5 46.5t47.5 18.5t47 -18.5t19 -46.5t-19 -48t-47 -20t-47.5 20t-19.5 48zM1079 784q0 28 20 47t48 19t46.5 -19t18.5 -47t-18.5 -47.5t-46.5 -19.5 t-48 19.5t-20 47.5zM354 784q0 28 20 47t48 19t46.5 -19t18.5 -47t-18.5 -47.5t-46.5 -19.5t-48 19.5t-20 47.5zM113 905q0 28 19.5 47t47.5 19t47 -19t19 -47t-19 -47.5t-47 -19.5t-47.5 19.5t-19.5 47.5zM1321 1026q0 28 20 47t48 19t46.5 -19t18.5 -47t-19 -48t-46 -20 q-28 0 -48 20t-20 48z" />
<glyph unicode="&#xbd;" horiz-adv-x="1812" d="M354 1026q0 28 20 47t48 19t46.5 -19t18.5 -47t-19 -48t-46 -20q-28 0 -48 20t-20 48zM1563 59q0 28 19.5 47t47.5 19t47 -19t19 -47t-19 -47.5t-47 -19.5t-47.5 19.5t-19.5 47.5zM1321 59q0 28 20 47t48 19t46.5 -19t18.5 -47t-18.5 -47.5t-46.5 -19.5t-48 19.5 t-20 47.5zM1079 59q0 28 20 47t48 19t46.5 -19t18.5 -47t-18.5 -47.5t-46.5 -19.5t-48 19.5t-20 47.5zM354 59q0 28 20 47t48 19t46.5 -19t18.5 -47t-18.5 -47.5t-46.5 -19.5t-48 19.5t-20 47.5zM1321 301q0 28 20 47t48 19t46.5 -19t18.5 -47t-19 -48t-46 -20q-28 0 -48 20 t-20 48zM596 301q0 28 20 47t48 19t46.5 -19t18.5 -47t-19 -48t-46 -20q-28 0 -48 20t-20 48zM1563 422q0 28 19.5 46.5t47.5 18.5t47 -18.5t19 -46.5t-19 -48t-47 -20t-47.5 20t-19.5 48zM1079 422q0 27 20 46t48 19t46.5 -18.5t18.5 -46.5t-19 -48t-46 -20q-28 0 -48 20 t-20 48zM1321 543q0 27 20 46t48 19t46.5 -18.5t18.5 -46.5t-19 -48t-46 -20q-28 0 -48 20t-20 48zM838 543q0 28 19.5 46.5t47.5 18.5t47 -18.5t19 -46.5t-19 -48t-47 -20t-47.5 20t-19.5 48zM596 543q0 27 20 46t48 19t46.5 -18.5t18.5 -46.5t-19 -48t-46 -20 q-28 0 -48 20t-20 48zM354 543q0 27 20 46t48 19t46.5 -18.5t18.5 -46.5t-19 -48t-46 -20q-28 0 -48 20t-20 48zM113 543q0 28 19.5 46.5t47.5 18.5t47 -18.5t19 -46.5t-19 -48t-47 -20t-47.5 20t-19.5 48zM1079 784q0 28 20 47t48 19t46.5 -19t18.5 -47t-18.5 -47.5 t-46.5 -19.5t-48 19.5t-20 47.5zM354 784q0 28 20 47t48 19t46.5 -19t18.5 -47t-18.5 -47.5t-46.5 -19.5t-48 19.5t-20 47.5zM113 905q0 28 19.5 47t47.5 19t47 -19t19 -47t-19 -47.5t-47 -19.5t-47.5 19.5t-19.5 47.5zM1321 1026q0 28 20 47t48 19t46.5 -19t18.5 -47 t-19 -48t-46 -20q-28 0 -48 20t-20 48z" />
<glyph unicode="&#xbe;" horiz-adv-x="2054" d="M233 1026q0 28 20 47t48 19t47 -19t19 -47t-19 -48t-47 -20t-48 20t-20 48zM1563 -182q0 28 19.5 46.5t47.5 18.5t47 -18.5t19 -46.5t-19 -48t-47 -20t-47.5 20t-19.5 48zM1804 59q0 28 20 47t48 19t46.5 -19t18.5 -47t-18.5 -47.5t-46.5 -19.5t-48 19.5t-20 47.5z M1563 59q0 28 19.5 47t47.5 19t47 -19t19 -47t-19 -47.5t-47 -19.5t-47.5 19.5t-19.5 47.5zM1200 59q0 28 20 47t48 19t46.5 -19t18.5 -47t-18.5 -47.5t-46.5 -19.5t-48 19.5t-20 47.5zM475 59q0 28 20 47t48 19t46.5 -19t18.5 -47t-18.5 -47.5t-46.5 -19.5t-48 19.5 t-20 47.5zM1563 301q0 28 19.5 47t47.5 19t47 -19t19 -47t-19 -48t-47 -20t-47.5 20t-19.5 48zM1321 301q0 28 20 47t48 19t46.5 -19t18.5 -47t-19 -48t-46 -20q-28 0 -48 20t-20 48zM717 301q0 28 19.5 47t47.5 19t47 -19t19 -47t-19 -48t-47 -20t-47.5 20t-19.5 48z M1563 543q0 28 19.5 46.5t47.5 18.5t47 -18.5t19 -46.5t-19 -48t-47 -20t-47.5 20t-19.5 48zM958 543q0 27 20 46t48 19t47 -18.5t19 -46.5t-19 -48t-47 -20t-48 20t-20 48zM475 543q0 27 20 46t48 19t46.5 -18.5t18.5 -46.5t-19 -48t-46 -20q-28 0 -48 20t-20 48zM233 543 q0 27 20 46t48 19t47 -18.5t19 -46.5t-19 -48t-47 -20t-48 20t-20 48zM717 664q0 28 19.5 46.5t47.5 18.5t47 -18.5t19 -46.5t-19 -48t-47 -20t-47.5 20t-19.5 48zM1200 784q0 28 20 47t48 19t46.5 -19t18.5 -47t-18.5 -47.5t-46.5 -19.5t-48 19.5t-20 47.5zM475 784 q0 28 20 47t48 19t46.5 -19t18.5 -47t-18.5 -47.5t-46.5 -19.5t-48 19.5t-20 47.5zM717 905q0 28 19.5 47t47.5 19t47 -19t19 -47t-19 -47.5t-47 -19.5t-47.5 19.5t-19.5 47.5zM1442 1026q0 28 19.5 47t47.5 19t47 -19t19 -47t-19 -48t-47 -20t-47.5 20t-19.5 48zM475 1026 q0 28 20 47t48 19t46.5 -19t18.5 -47t-19 -48t-46 -20q-28 0 -48 20t-20 48z" />
<glyph unicode="&#xbf;" horiz-adv-x="845" d="M354 784q0 28 20 47t48 19t46.5 -19t18.5 -47t-18.5 -47.5t-46.5 -19.5t-48 19.5t-20 47.5zM354 -182q0 27 20 46t48 19t46.5 -18.5t18.5 -46.5t-19 -48t-46 -20q-28 0 -48 20t-20 48zM596 -61q0 27 20 46t48 19t46.5 -18.5t18.5 -46.5t-19 -48t-46 -20q-28 0 -48 20 t-20 48zM113 -61q0 28 19.5 46.5t47.5 18.5t47 -18.5t19 -46.5t-19 -48t-47 -20t-47.5 20t-19.5 48zM113 180q0 28 19.5 47t47.5 19t47 -19t19 -47t-19 -47.5t-47 -19.5t-47.5 19.5t-19.5 47.5zM354 422q0 27 20 46t48 19t46.5 -18.5t18.5 -46.5t-19 -48t-46 -20 q-28 0 -48 20t-20 48z" />
<glyph unicode="&#xc0;" d="M475 1389q0 27 20 46t48 19t46.5 -18.5t18.5 -46.5t-19 -48t-46 -20q-28 0 -48 20t-20 48zM1079 59q0 28 20 47t48 19t46.5 -19t18.5 -47t-18.5 -47.5t-46.5 -19.5t-48 19.5t-20 47.5zM113 59q0 28 19.5 47t47.5 19t47 -19t19 -47t-19 -47.5t-47 -19.5t-47.5 19.5 t-19.5 47.5zM1079 301q0 28 20 47t48 19t46.5 -19t18.5 -47t-19 -48t-46 -20q-28 0 -48 20t-20 48zM113 301q0 28 19.5 47t47.5 19t47 -19t19 -47t-19 -48t-47 -20t-47.5 20t-19.5 48zM838 422q0 28 19.5 46.5t47.5 18.5t47 -18.5t19 -46.5t-19 -48t-47 -20t-47.5 20 t-19.5 48zM596 422q0 27 20 46t48 19t46.5 -18.5t18.5 -46.5t-19 -48t-46 -20q-28 0 -48 20t-20 48zM354 422q0 27 20 46t48 19t46.5 -18.5t18.5 -46.5t-19 -48t-46 -20q-28 0 -48 20t-20 48zM1079 543q0 27 20 46t48 19t46.5 -18.5t18.5 -46.5t-19 -48t-46 -20 q-28 0 -48 20t-20 48zM113 543q0 28 19.5 46.5t47.5 18.5t47 -18.5t19 -46.5t-19 -48t-47 -20t-47.5 20t-19.5 48zM1079 784q0 28 20 47t48 19t46.5 -19t18.5 -47t-18.5 -47.5t-46.5 -19.5t-48 19.5t-20 47.5zM113 784q0 28 19.5 47t47.5 19t47 -19t19 -47t-19 -47.5 t-47 -19.5t-47.5 19.5t-19.5 47.5zM838 1026q0 28 19.5 47t47.5 19t47 -19t19 -47t-19 -48t-47 -20t-47.5 20t-19.5 48zM596 1026q0 28 20 47t48 19t46.5 -19t18.5 -47t-19 -48t-46 -20q-28 0 -48 20t-20 48zM354 1026q0 28 20 47t48 19t46.5 -19t18.5 -47t-19 -48t-46 -20 q-28 0 -48 20t-20 48zM717 1268q0 28 19.5 46.5t47.5 18.5t47 -18.5t19 -46.5t-19 -48t-47 -20t-47.5 20t-19.5 48z" />
<glyph unicode="&#xc1;" d="M717 1389q0 28 19.5 46.5t47.5 18.5t47 -18.5t19 -46.5t-19 -48t-47 -20t-47.5 20t-19.5 48zM1079 59q0 28 20 47t48 19t46.5 -19t18.5 -47t-18.5 -47.5t-46.5 -19.5t-48 19.5t-20 47.5zM113 59q0 28 19.5 47t47.5 19t47 -19t19 -47t-19 -47.5t-47 -19.5t-47.5 19.5 t-19.5 47.5zM1079 301q0 28 20 47t48 19t46.5 -19t18.5 -47t-19 -48t-46 -20q-28 0 -48 20t-20 48zM113 301q0 28 19.5 47t47.5 19t47 -19t19 -47t-19 -48t-47 -20t-47.5 20t-19.5 48zM838 422q0 28 19.5 46.5t47.5 18.5t47 -18.5t19 -46.5t-19 -48t-47 -20t-47.5 20 t-19.5 48zM596 422q0 27 20 46t48 19t46.5 -18.5t18.5 -46.5t-19 -48t-46 -20q-28 0 -48 20t-20 48zM354 422q0 27 20 46t48 19t46.5 -18.5t18.5 -46.5t-19 -48t-46 -20q-28 0 -48 20t-20 48zM1079 543q0 27 20 46t48 19t46.5 -18.5t18.5 -46.5t-19 -48t-46 -20 q-28 0 -48 20t-20 48zM113 543q0 28 19.5 46.5t47.5 18.5t47 -18.5t19 -46.5t-19 -48t-47 -20t-47.5 20t-19.5 48zM1079 784q0 28 20 47t48 19t46.5 -19t18.5 -47t-18.5 -47.5t-46.5 -19.5t-48 19.5t-20 47.5zM113 784q0 28 19.5 47t47.5 19t47 -19t19 -47t-19 -47.5 t-47 -19.5t-47.5 19.5t-19.5 47.5zM838 1026q0 28 19.5 47t47.5 19t47 -19t19 -47t-19 -48t-47 -20t-47.5 20t-19.5 48zM596 1026q0 28 20 47t48 19t46.5 -19t18.5 -47t-19 -48t-46 -20q-28 0 -48 20t-20 48zM354 1026q0 28 20 47t48 19t46.5 -19t18.5 -47t-19 -48t-46 -20 q-28 0 -48 20t-20 48zM475 1268q0 27 20 46t48 19t46.5 -18.5t18.5 -46.5t-19 -48t-46 -20q-28 0 -48 20t-20 48z" />
<glyph unicode="&#xc2;" d="M596 1389q0 27 20 46t48 19t46.5 -18.5t18.5 -46.5t-19 -48t-46 -20q-28 0 -48 20t-20 48zM1079 59q0 28 20 47t48 19t46.5 -19t18.5 -47t-18.5 -47.5t-46.5 -19.5t-48 19.5t-20 47.5zM113 59q0 28 19.5 47t47.5 19t47 -19t19 -47t-19 -47.5t-47 -19.5t-47.5 19.5 t-19.5 47.5zM1079 301q0 28 20 47t48 19t46.5 -19t18.5 -47t-19 -48t-46 -20q-28 0 -48 20t-20 48zM113 301q0 28 19.5 47t47.5 19t47 -19t19 -47t-19 -48t-47 -20t-47.5 20t-19.5 48zM838 422q0 28 19.5 46.5t47.5 18.5t47 -18.5t19 -46.5t-19 -48t-47 -20t-47.5 20 t-19.5 48zM596 422q0 27 20 46t48 19t46.5 -18.5t18.5 -46.5t-19 -48t-46 -20q-28 0 -48 20t-20 48zM354 422q0 27 20 46t48 19t46.5 -18.5t18.5 -46.5t-19 -48t-46 -20q-28 0 -48 20t-20 48zM1079 543q0 27 20 46t48 19t46.5 -18.5t18.5 -46.5t-19 -48t-46 -20 q-28 0 -48 20t-20 48zM113 543q0 28 19.5 46.5t47.5 18.5t47 -18.5t19 -46.5t-19 -48t-47 -20t-47.5 20t-19.5 48zM1079 784q0 28 20 47t48 19t46.5 -19t18.5 -47t-18.5 -47.5t-46.5 -19.5t-48 19.5t-20 47.5zM113 784q0 28 19.5 47t47.5 19t47 -19t19 -47t-19 -47.5 t-47 -19.5t-47.5 19.5t-19.5 47.5zM838 1026q0 28 19.5 47t47.5 19t47 -19t19 -47t-19 -48t-47 -20t-47.5 20t-19.5 48zM596 1026q0 28 20 47t48 19t46.5 -19t18.5 -47t-19 -48t-46 -20q-28 0 -48 20t-20 48zM354 1026q0 28 20 47t48 19t46.5 -19t18.5 -47t-19 -48t-46 -20 q-28 0 -48 20t-20 48zM838 1268q0 28 19.5 46.5t47.5 18.5t47 -18.5t19 -46.5t-19 -48t-47 -20t-47.5 20t-19.5 48zM354 1268q0 27 20 46t48 19t46.5 -18.5t18.5 -46.5t-19 -48t-46 -20q-28 0 -48 20t-20 48z" />
<glyph unicode="&#xc3;" d="M475 1389q0 27 20 46t48 19t46.5 -18.5t18.5 -46.5t-19 -48t-46 -20q-28 0 -48 20t-20 48zM1079 59q0 28 20 47t48 19t46.5 -19t18.5 -47t-18.5 -47.5t-46.5 -19.5t-48 19.5t-20 47.5zM113 59q0 28 19.5 47t47.5 19t47 -19t19 -47t-19 -47.5t-47 -19.5t-47.5 19.5 t-19.5 47.5zM1079 301q0 28 20 47t48 19t46.5 -19t18.5 -47t-19 -48t-46 -20q-28 0 -48 20t-20 48zM113 301q0 28 19.5 47t47.5 19t47 -19t19 -47t-19 -48t-47 -20t-47.5 20t-19.5 48zM838 422q0 28 19.5 46.5t47.5 18.5t47 -18.5t19 -46.5t-19 -48t-47 -20t-47.5 20 t-19.5 48zM596 422q0 27 20 46t48 19t46.5 -18.5t18.5 -46.5t-19 -48t-46 -20q-28 0 -48 20t-20 48zM354 422q0 27 20 46t48 19t46.5 -18.5t18.5 -46.5t-19 -48t-46 -20q-28 0 -48 20t-20 48zM1079 543q0 27 20 46t48 19t46.5 -18.5t18.5 -46.5t-19 -48t-46 -20 q-28 0 -48 20t-20 48zM113 543q0 28 19.5 46.5t47.5 18.5t47 -18.5t19 -46.5t-19 -48t-47 -20t-47.5 20t-19.5 48zM1079 784q0 28 20 47t48 19t46.5 -19t18.5 -47t-18.5 -47.5t-46.5 -19.5t-48 19.5t-20 47.5zM113 784q0 28 19.5 47t47.5 19t47 -19t19 -47t-19 -47.5 t-47 -19.5t-47.5 19.5t-19.5 47.5zM838 1026q0 28 19.5 47t47.5 19t47 -19t19 -47t-19 -48t-47 -20t-47.5 20t-19.5 48zM596 1026q0 28 20 47t48 19t46.5 -19t18.5 -47t-19 -48t-46 -20q-28 0 -48 20t-20 48zM354 1026q0 28 20 47t48 19t46.5 -19t18.5 -47t-19 -48t-46 -20 q-28 0 -48 20t-20 48zM596 1268q0 27 20 46t48 19t46.5 -18.5t18.5 -46.5t-19 -48t-46 -20q-28 0 -48 20t-20 48zM354 1268q0 27 20 46t48 19t46.5 -18.5t18.5 -46.5t-19 -48t-46 -20q-28 0 -48 20t-20 48zM717 1389q0 28 19.5 46.5t47.5 18.5t47 -18.5t19 -46.5t-19 -48 t-47 -20t-47.5 20t-19.5 48z" />
<glyph unicode="&#xc4;" d="M475 1389q0 27 20 46t48 19t46.5 -18.5t18.5 -46.5t-19 -48t-46 -20q-28 0 -48 20t-20 48zM1079 59q0 28 20 47t48 19t46.5 -19t18.5 -47t-18.5 -47.5t-46.5 -19.5t-48 19.5t-20 47.5zM113 59q0 28 19.5 47t47.5 19t47 -19t19 -47t-19 -47.5t-47 -19.5t-47.5 19.5 t-19.5 47.5zM1079 301q0 28 20 47t48 19t46.5 -19t18.5 -47t-19 -48t-46 -20q-28 0 -48 20t-20 48zM113 301q0 28 19.5 47t47.5 19t47 -19t19 -47t-19 -48t-47 -20t-47.5 20t-19.5 48zM838 422q0 28 19.5 46.5t47.5 18.5t47 -18.5t19 -46.5t-19 -48t-47 -20t-47.5 20 t-19.5 48zM596 422q0 27 20 46t48 19t46.5 -18.5t18.5 -46.5t-19 -48t-46 -20q-28 0 -48 20t-20 48zM354 422q0 27 20 46t48 19t46.5 -18.5t18.5 -46.5t-19 -48t-46 -20q-28 0 -48 20t-20 48zM1079 543q0 27 20 46t48 19t46.5 -18.5t18.5 -46.5t-19 -48t-46 -20 q-28 0 -48 20t-20 48zM113 543q0 28 19.5 46.5t47.5 18.5t47 -18.5t19 -46.5t-19 -48t-47 -20t-47.5 20t-19.5 48zM1079 784q0 28 20 47t48 19t46.5 -19t18.5 -47t-18.5 -47.5t-46.5 -19.5t-48 19.5t-20 47.5zM113 784q0 28 19.5 47t47.5 19t47 -19t19 -47t-19 -47.5 t-47 -19.5t-47.5 19.5t-19.5 47.5zM838 1026q0 28 19.5 47t47.5 19t47 -19t19 -47t-19 -48t-47 -20t-47.5 20t-19.5 48zM596 1026q0 28 20 47t48 19t46.5 -19t18.5 -47t-19 -48t-46 -20q-28 0 -48 20t-20 48zM354 1026q0 28 20 47t48 19t46.5 -19t18.5 -47t-19 -48t-46 -20 q-28 0 -48 20t-20 48zM717 1389q0 28 19.5 46.5t47.5 18.5t47 -18.5t19 -46.5t-19 -48t-47 -20t-47.5 20t-19.5 48z" />
<glyph unicode="&#xc5;" d="M596 1389q0 27 20 46t48 19t46.5 -18.5t18.5 -46.5t-19 -48t-46 -20q-28 0 -48 20t-20 48zM1079 59q0 28 20 47t48 19t46.5 -19t18.5 -47t-18.5 -47.5t-46.5 -19.5t-48 19.5t-20 47.5zM113 59q0 28 19.5 47t47.5 19t47 -19t19 -47t-19 -47.5t-47 -19.5t-47.5 19.5 t-19.5 47.5zM1079 301q0 28 20 47t48 19t46.5 -19t18.5 -47t-19 -48t-46 -20q-28 0 -48 20t-20 48zM113 301q0 28 19.5 47t47.5 19t47 -19t19 -47t-19 -48t-47 -20t-47.5 20t-19.5 48zM838 422q0 28 19.5 46.5t47.5 18.5t47 -18.5t19 -46.5t-19 -48t-47 -20t-47.5 20 t-19.5 48zM596 422q0 27 20 46t48 19t46.5 -18.5t18.5 -46.5t-19 -48t-46 -20q-28 0 -48 20t-20 48zM354 422q0 27 20 46t48 19t46.5 -18.5t18.5 -46.5t-19 -48t-46 -20q-28 0 -48 20t-20 48zM1079 543q0 27 20 46t48 19t46.5 -18.5t18.5 -46.5t-19 -48t-46 -20 q-28 0 -48 20t-20 48zM113 543q0 28 19.5 46.5t47.5 18.5t47 -18.5t19 -46.5t-19 -48t-47 -20t-47.5 20t-19.5 48zM1079 784q0 28 20 47t48 19t46.5 -19t18.5 -47t-18.5 -47.5t-46.5 -19.5t-48 19.5t-20 47.5zM113 784q0 28 19.5 47t47.5 19t47 -19t19 -47t-19 -47.5 t-47 -19.5t-47.5 19.5t-19.5 47.5zM838 1026q0 28 19.5 47t47.5 19t47 -19t19 -47t-19 -48t-47 -20t-47.5 20t-19.5 48zM354 1026q0 28 20 47t48 19t46.5 -19t18.5 -47t-19 -48t-46 -20q-28 0 -48 20t-20 48zM596 1147q0 27 20 46t48 19t46.5 -18.5t18.5 -46.5t-19 -48 t-46 -20q-28 0 -48 20t-20 48zM717 1268q0 28 19.5 46.5t47.5 18.5t47 -18.5t19 -46.5t-19 -48t-47 -20t-47.5 20t-19.5 48zM475 1268q0 27 20 46t48 19t46.5 -18.5t18.5 -46.5t-19 -48t-46 -20q-28 0 -48 20t-20 48z" />
<glyph unicode="&#xc6;" horiz-adv-x="2295" d="M354 1026q0 28 20 47t48 19t46.5 -19t18.5 -47t-19 -48t-46 -20q-28 0 -48 20t-20 48zM2046 59q0 28 20 47t48 19t46.5 -19t18.5 -47t-18.5 -47.5t-46.5 -19.5t-48 19.5t-20 47.5zM1804 59q0 28 20 47t48 19t46.5 -19t18.5 -47t-18.5 -47.5t-46.5 -19.5t-48 19.5 t-20 47.5zM1563 59q0 28 19.5 47t47.5 19t47 -19t19 -47t-19 -47.5t-47 -19.5t-47.5 19.5t-19.5 47.5zM1321 59q0 28 20 47t48 19t46.5 -19t18.5 -47t-18.5 -47.5t-46.5 -19.5t-48 19.5t-20 47.5zM113 59q0 28 19.5 47t47.5 19t47 -19t19 -47t-19 -47.5t-47 -19.5 t-47.5 19.5t-19.5 47.5zM1079 301q0 28 20 47t48 19t46.5 -19t18.5 -47t-19 -48t-46 -20q-28 0 -48 20t-20 48zM113 301q0 28 19.5 47t47.5 19t47 -19t19 -47t-19 -48t-47 -20t-47.5 20t-19.5 48zM838 422q0 28 19.5 46.5t47.5 18.5t47 -18.5t19 -46.5t-19 -48t-47 -20 t-47.5 20t-19.5 48zM596 422q0 27 20 46t48 19t46.5 -18.5t18.5 -46.5t-19 -48t-46 -20q-28 0 -48 20t-20 48zM354 422q0 27 20 46t48 19t46.5 -18.5t18.5 -46.5t-19 -48t-46 -20q-28 0 -48 20t-20 48zM1804 543q0 27 20 46t48 19t46.5 -18.5t18.5 -46.5t-19 -48t-46 -20 q-28 0 -48 20t-20 48zM1563 543q0 28 19.5 46.5t47.5 18.5t47 -18.5t19 -46.5t-19 -48t-47 -20t-47.5 20t-19.5 48zM1321 543q0 27 20 46t48 19t46.5 -18.5t18.5 -46.5t-19 -48t-46 -20q-28 0 -48 20t-20 48zM1079 543q0 27 20 46t48 19t46.5 -18.5t18.5 -46.5t-19 -48 t-46 -20q-28 0 -48 20t-20 48zM113 543q0 28 19.5 46.5t47.5 18.5t47 -18.5t19 -46.5t-19 -48t-47 -20t-47.5 20t-19.5 48zM1079 784q0 28 20 47t48 19t46.5 -19t18.5 -47t-18.5 -47.5t-46.5 -19.5t-48 19.5t-20 47.5zM113 784q0 28 19.5 47t47.5 19t47 -19t19 -47 t-19 -47.5t-47 -19.5t-47.5 19.5t-19.5 47.5zM2046 1026q0 28 20 47t48 19t46.5 -19t18.5 -47t-19 -48t-46 -20q-28 0 -48 20t-20 48zM1804 1026q0 28 20 47t48 19t46.5 -19t18.5 -47t-19 -48t-46 -20q-28 0 -48 20t-20 48zM1563 1026q0 28 19.5 47t47.5 19t47 -19t19 -47 t-19 -48t-47 -20t-47.5 20t-19.5 48zM1321 1026q0 28 20 47t48 19t46.5 -19t18.5 -47t-19 -48t-46 -20q-28 0 -48 20t-20 48zM838 1026q0 28 19.5 47t47.5 19t47 -19t19 -47t-19 -48t-47 -20t-47.5 20t-19.5 48zM596 1026q0 28 20 47t48 19t46.5 -19t18.5 -47t-19 -48 t-46 -20q-28 0 -48 20t-20 48z" />
<glyph unicode="&#xc7;" horiz-adv-x="1208" d="M475 1026q0 28 20 47t48 19t46.5 -19t18.5 -47t-19 -48t-46 -20q-28 0 -48 20t-20 48zM354 -303q0 27 20 46t48 19t46.5 -18.5t18.5 -46.5t-19 -48t-46 -20q-28 0 -48 20t-20 48zM596 -182q0 27 20 46t48 19t46.5 -18.5t18.5 -46.5t-19 -48t-46 -20q-28 0 -48 20t-20 48z M717 59q0 28 19.5 47t47.5 19t47 -19t19 -47t-19 -47.5t-47 -19.5t-47.5 19.5t-19.5 47.5zM475 59q0 28 20 47t48 19t46.5 -19t18.5 -47t-18.5 -47.5t-46.5 -19.5t-48 19.5t-20 47.5zM958 180q0 28 20 47t48 19t47 -19t19 -47t-19 -47.5t-47 -19.5t-48 19.5t-20 47.5z M233 180q0 28 20 47t48 19t47 -19t19 -47t-19 -47.5t-47 -19.5t-48 19.5t-20 47.5zM113 422q0 28 19.5 46.5t47.5 18.5t47 -18.5t19 -46.5t-19 -48t-47 -20t-47.5 20t-19.5 48zM113 664q0 28 19.5 46.5t47.5 18.5t47 -18.5t19 -46.5t-19 -48t-47 -20t-47.5 20t-19.5 48z M958 905q0 28 20 47t48 19t47 -19t19 -47t-19 -47.5t-47 -19.5t-48 19.5t-20 47.5zM233 905q0 28 20 47t48 19t47 -19t19 -47t-19 -47.5t-47 -19.5t-48 19.5t-20 47.5zM717 1026q0 28 19.5 47t47.5 19t47 -19t19 -47t-19 -48t-47 -20t-47.5 20t-19.5 48z" />
<glyph unicode="&#xc8;" d="M475 1389q0 27 20 46t48 19t46.5 -18.5t18.5 -46.5t-19 -48t-46 -20q-28 0 -48 20t-20 48zM1079 59q0 28 20 47t48 19t46.5 -19t18.5 -47t-18.5 -47.5t-46.5 -19.5t-48 19.5t-20 47.5zM838 59q0 28 19.5 47t47.5 19t47 -19t19 -47t-19 -47.5t-47 -19.5t-47.5 19.5 t-19.5 47.5zM596 59q0 28 20 47t48 19t46.5 -19t18.5 -47t-18.5 -47.5t-46.5 -19.5t-48 19.5t-20 47.5zM354 59q0 28 20 47t48 19t46.5 -19t18.5 -47t-18.5 -47.5t-46.5 -19.5t-48 19.5t-20 47.5zM113 301q0 28 19.5 47t47.5 19t47 -19t19 -47t-19 -48t-47 -20t-47.5 20 t-19.5 48zM838 543q0 28 19.5 46.5t47.5 18.5t47 -18.5t19 -46.5t-19 -48t-47 -20t-47.5 20t-19.5 48zM596 543q0 27 20 46t48 19t46.5 -18.5t18.5 -46.5t-19 -48t-46 -20q-28 0 -48 20t-20 48zM354 543q0 27 20 46t48 19t46.5 -18.5t18.5 -46.5t-19 -48t-46 -20 q-28 0 -48 20t-20 48zM113 543q0 28 19.5 46.5t47.5 18.5t47 -18.5t19 -46.5t-19 -48t-47 -20t-47.5 20t-19.5 48zM113 784q0 28 19.5 47t47.5 19t47 -19t19 -47t-19 -47.5t-47 -19.5t-47.5 19.5t-19.5 47.5zM1079 1026q0 28 20 47t48 19t46.5 -19t18.5 -47t-19 -48t-46 -20 q-28 0 -48 20t-20 48zM838 1026q0 28 19.5 47t47.5 19t47 -19t19 -47t-19 -48t-47 -20t-47.5 20t-19.5 48zM596 1026q0 28 20 47t48 19t46.5 -19t18.5 -47t-19 -48t-46 -20q-28 0 -48 20t-20 48zM354 1026q0 28 20 47t48 19t46.5 -19t18.5 -47t-19 -48t-46 -20q-28 0 -48 20 t-20 48zM717 1268q0 28 19.5 46.5t47.5 18.5t47 -18.5t19 -46.5t-19 -48t-47 -20t-47.5 20t-19.5 48z" />
<glyph unicode="&#xc9;" d="M838 1389q0 28 19.5 46.5t47.5 18.5t47 -18.5t19 -46.5t-19 -48t-47 -20t-47.5 20t-19.5 48zM1079 59q0 28 20 47t48 19t46.5 -19t18.5 -47t-18.5 -47.5t-46.5 -19.5t-48 19.5t-20 47.5zM838 59q0 28 19.5 47t47.5 19t47 -19t19 -47t-19 -47.5t-47 -19.5t-47.5 19.5 t-19.5 47.5zM596 59q0 28 20 47t48 19t46.5 -19t18.5 -47t-18.5 -47.5t-46.5 -19.5t-48 19.5t-20 47.5zM354 59q0 28 20 47t48 19t46.5 -19t18.5 -47t-18.5 -47.5t-46.5 -19.5t-48 19.5t-20 47.5zM113 301q0 28 19.5 47t47.5 19t47 -19t19 -47t-19 -48t-47 -20t-47.5 20 t-19.5 48zM838 543q0 28 19.5 46.5t47.5 18.5t47 -18.5t19 -46.5t-19 -48t-47 -20t-47.5 20t-19.5 48zM596 543q0 27 20 46t48 19t46.5 -18.5t18.5 -46.5t-19 -48t-46 -20q-28 0 -48 20t-20 48zM354 543q0 27 20 46t48 19t46.5 -18.5t18.5 -46.5t-19 -48t-46 -20 q-28 0 -48 20t-20 48zM113 543q0 28 19.5 46.5t47.5 18.5t47 -18.5t19 -46.5t-19 -48t-47 -20t-47.5 20t-19.5 48zM113 784q0 28 19.5 47t47.5 19t47 -19t19 -47t-19 -47.5t-47 -19.5t-47.5 19.5t-19.5 47.5zM1079 1026q0 28 20 47t48 19t46.5 -19t18.5 -47t-19 -48t-46 -20 q-28 0 -48 20t-20 48zM838 1026q0 28 19.5 47t47.5 19t47 -19t19 -47t-19 -48t-47 -20t-47.5 20t-19.5 48zM596 1026q0 28 20 47t48 19t46.5 -19t18.5 -47t-19 -48t-46 -20q-28 0 -48 20t-20 48zM354 1026q0 28 20 47t48 19t46.5 -19t18.5 -47t-19 -48t-46 -20q-28 0 -48 20 t-20 48zM596 1268q0 27 20 46t48 19t46.5 -18.5t18.5 -46.5t-19 -48t-46 -20q-28 0 -48 20t-20 48z" />
<glyph unicode="&#xca;" d="M717 1389q0 28 19.5 46.5t47.5 18.5t47 -18.5t19 -46.5t-19 -48t-47 -20t-47.5 20t-19.5 48zM1079 59q0 28 20 47t48 19t46.5 -19t18.5 -47t-18.5 -47.5t-46.5 -19.5t-48 19.5t-20 47.5zM838 59q0 28 19.5 47t47.5 19t47 -19t19 -47t-19 -47.5t-47 -19.5t-47.5 19.5 t-19.5 47.5zM596 59q0 28 20 47t48 19t46.5 -19t18.5 -47t-18.5 -47.5t-46.5 -19.5t-48 19.5t-20 47.5zM354 59q0 28 20 47t48 19t46.5 -19t18.5 -47t-18.5 -47.5t-46.5 -19.5t-48 19.5t-20 47.5zM113 301q0 28 19.5 47t47.5 19t47 -19t19 -47t-19 -48t-47 -20t-47.5 20 t-19.5 48zM838 543q0 28 19.5 46.5t47.5 18.5t47 -18.5t19 -46.5t-19 -48t-47 -20t-47.5 20t-19.5 48zM596 543q0 27 20 46t48 19t46.5 -18.5t18.5 -46.5t-19 -48t-46 -20q-28 0 -48 20t-20 48zM354 543q0 27 20 46t48 19t46.5 -18.5t18.5 -46.5t-19 -48t-46 -20 q-28 0 -48 20t-20 48zM113 543q0 28 19.5 46.5t47.5 18.5t47 -18.5t19 -46.5t-19 -48t-47 -20t-47.5 20t-19.5 48zM113 784q0 28 19.5 47t47.5 19t47 -19t19 -47t-19 -47.5t-47 -19.5t-47.5 19.5t-19.5 47.5zM1079 1026q0 28 20 47t48 19t46.5 -19t18.5 -47t-19 -48t-46 -20 q-28 0 -48 20t-20 48zM838 1026q0 28 19.5 47t47.5 19t47 -19t19 -47t-19 -48t-47 -20t-47.5 20t-19.5 48zM596 1026q0 28 20 47t48 19t46.5 -19t18.5 -47t-19 -48t-46 -20q-28 0 -48 20t-20 48zM354 1026q0 28 20 47t48 19t46.5 -19t18.5 -47t-19 -48t-46 -20q-28 0 -48 20 t-20 48zM958 1268q0 27 20 46t48 19t47 -18.5t19 -46.5t-19 -48t-47 -20t-48 20t-20 48zM475 1268q0 27 20 46t48 19t46.5 -18.5t18.5 -46.5t-19 -48t-46 -20q-28 0 -48 20t-20 48z" />
<glyph unicode="&#xcb;" d="M475 1389q0 27 20 46t48 19t46.5 -18.5t18.5 -46.5t-19 -48t-46 -20q-28 0 -48 20t-20 48zM1079 59q0 28 20 47t48 19t46.5 -19t18.5 -47t-18.5 -47.5t-46.5 -19.5t-48 19.5t-20 47.5zM838 59q0 28 19.5 47t47.5 19t47 -19t19 -47t-19 -47.5t-47 -19.5t-47.5 19.5 t-19.5 47.5zM596 59q0 28 20 47t48 19t46.5 -19t18.5 -47t-18.5 -47.5t-46.5 -19.5t-48 19.5t-20 47.5zM354 59q0 28 20 47t48 19t46.5 -19t18.5 -47t-18.5 -47.5t-46.5 -19.5t-48 19.5t-20 47.5zM113 301q0 28 19.5 47t47.5 19t47 -19t19 -47t-19 -48t-47 -20t-47.5 20 t-19.5 48zM838 543q0 28 19.5 46.5t47.5 18.5t47 -18.5t19 -46.5t-19 -48t-47 -20t-47.5 20t-19.5 48zM596 543q0 27 20 46t48 19t46.5 -18.5t18.5 -46.5t-19 -48t-46 -20q-28 0 -48 20t-20 48zM354 543q0 27 20 46t48 19t46.5 -18.5t18.5 -46.5t-19 -48t-46 -20 q-28 0 -48 20t-20 48zM113 543q0 28 19.5 46.5t47.5 18.5t47 -18.5t19 -46.5t-19 -48t-47 -20t-47.5 20t-19.5 48zM113 784q0 28 19.5 47t47.5 19t47 -19t19 -47t-19 -47.5t-47 -19.5t-47.5 19.5t-19.5 47.5zM1079 1026q0 28 20 47t48 19t46.5 -19t18.5 -47t-19 -48t-46 -20 q-28 0 -48 20t-20 48zM838 1026q0 28 19.5 47t47.5 19t47 -19t19 -47t-19 -48t-47 -20t-47.5 20t-19.5 48zM596 1026q0 28 20 47t48 19t46.5 -19t18.5 -47t-19 -48t-46 -20q-28 0 -48 20t-20 48zM354 1026q0 28 20 47t48 19t46.5 -19t18.5 -47t-19 -48t-46 -20q-28 0 -48 20 t-20 48zM717 1389q0 28 19.5 46.5t47.5 18.5t47 -18.5t19 -46.5t-19 -48t-47 -20t-47.5 20t-19.5 48z" />
<glyph unicode="&#xcc;" horiz-adv-x="483" d="M113 1389q0 28 19.5 46.5t47.5 18.5t47 -18.5t19 -46.5t-19 -48t-47 -20t-47.5 20t-19.5 48zM233 59q0 28 20 47t48 19t47 -19t19 -47t-19 -47.5t-47 -19.5t-48 19.5t-20 47.5zM233 301q0 28 20 47t48 19t47 -19t19 -47t-19 -48t-47 -20t-48 20t-20 48zM233 543 q0 27 20 46t48 19t47 -18.5t19 -46.5t-19 -48t-47 -20t-48 20t-20 48zM233 784q0 28 20 47t48 19t47 -19t19 -47t-19 -47.5t-47 -19.5t-48 19.5t-20 47.5zM233 1026q0 28 20 47t48 19t47 -19t19 -47t-19 -48t-47 -20t-48 20t-20 48zM233 1268q0 27 20 46t48 19t47 -18.5 t19 -46.5t-19 -48t-47 -20t-48 20t-20 48z" />
<glyph unicode="&#xcd;" horiz-adv-x="483" d="M233 1389q0 27 20 46t48 19t47 -18.5t19 -46.5t-19 -48t-47 -20t-48 20t-20 48zM113 59q0 28 19.5 47t47.5 19t47 -19t19 -47t-19 -47.5t-47 -19.5t-47.5 19.5t-19.5 47.5zM113 301q0 28 19.5 47t47.5 19t47 -19t19 -47t-19 -48t-47 -20t-47.5 20t-19.5 48zM113 543 q0 28 19.5 46.5t47.5 18.5t47 -18.5t19 -46.5t-19 -48t-47 -20t-47.5 20t-19.5 48zM113 784q0 28 19.5 47t47.5 19t47 -19t19 -47t-19 -47.5t-47 -19.5t-47.5 19.5t-19.5 47.5zM113 1026q0 28 19.5 47t47.5 19t47 -19t19 -47t-19 -48t-47 -20t-47.5 20t-19.5 48zM113 1268 q0 28 19.5 46.5t47.5 18.5t47 -18.5t19 -46.5t-19 -48t-47 -20t-47.5 20t-19.5 48z" />
<glyph unicode="&#xce;" horiz-adv-x="604" d="M233 1389q0 27 20 46t48 19t47 -18.5t19 -46.5t-19 -48t-47 -20t-48 20t-20 48zM233 59q0 28 20 47t48 19t47 -19t19 -47t-19 -47.5t-47 -19.5t-48 19.5t-20 47.5zM233 301q0 28 20 47t48 19t47 -19t19 -47t-19 -48t-47 -20t-48 20t-20 48zM233 543q0 27 20 46t48 19 t47 -18.5t19 -46.5t-19 -48t-47 -20t-48 20t-20 48zM233 784q0 28 20 47t48 19t47 -19t19 -47t-19 -47.5t-47 -19.5t-48 19.5t-20 47.5zM233 1026q0 28 20 47t48 19t47 -19t19 -47t-19 -48t-47 -20t-48 20t-20 48zM354 1268q0 27 20 46t48 19t46.5 -18.5t18.5 -46.5t-19 -48 t-46 -20q-28 0 -48 20t-20 48zM113 1268q0 28 19.5 46.5t47.5 18.5t47 -18.5t19 -46.5t-19 -48t-47 -20t-47.5 20t-19.5 48z" />
<glyph unicode="&#xcf;" horiz-adv-x="362" d="M-8 1389q0 28 19.5 46.5t47.5 18.5t47 -18.5t19 -46.5t-19 -48t-47 -20t-47.5 20t-19.5 48zM113 59q0 28 19.5 47t47.5 19t47 -19t19 -47t-19 -47.5t-47 -19.5t-47.5 19.5t-19.5 47.5zM113 301q0 28 19.5 47t47.5 19t47 -19t19 -47t-19 -48t-47 -20t-47.5 20t-19.5 48z M113 543q0 28 19.5 46.5t47.5 18.5t47 -18.5t19 -46.5t-19 -48t-47 -20t-47.5 20t-19.5 48zM113 784q0 28 19.5 47t47.5 19t47 -19t19 -47t-19 -47.5t-47 -19.5t-47.5 19.5t-19.5 47.5zM113 1026q0 28 19.5 47t47.5 19t47 -19t19 -47t-19 -48t-47 -20t-47.5 20t-19.5 48z M233 1389q0 27 20 46t48 19t47 -18.5t19 -46.5t-19 -48t-47 -20t-48 20t-20 48z" />
<glyph unicode="&#xd0;" d="M233 1026q0 28 20 47t48 19t47 -19t19 -47t-19 -48t-47 -20t-48 20t-20 48zM717 59q0 28 19.5 47t47.5 19t47 -19t19 -47t-19 -47.5t-47 -19.5t-47.5 19.5t-19.5 47.5zM475 59q0 28 20 47t48 19t46.5 -19t18.5 -47t-18.5 -47.5t-46.5 -19.5t-48 19.5t-20 47.5zM233 59 q0 28 20 47t48 19t47 -19t19 -47t-19 -47.5t-47 -19.5t-48 19.5t-20 47.5zM958 180q0 28 20 47t48 19t47 -19t19 -47t-19 -47.5t-47 -19.5t-48 19.5t-20 47.5zM233 301q0 28 20 47t48 19t47 -19t19 -47t-19 -48t-47 -20t-48 20t-20 48zM1079 422q0 27 20 46t48 19 t46.5 -18.5t18.5 -46.5t-19 -48t-46 -20q-28 0 -48 20t-20 48zM475 543q0 27 20 46t48 19t46.5 -18.5t18.5 -46.5t-19 -48t-46 -20q-28 0 -48 20t-20 48zM233 543q0 27 20 46t48 19t47 -18.5t19 -46.5t-19 -48t-47 -20t-48 20t-20 48zM-8 543q0 28 19.5 46.5t47.5 18.5 t47 -18.5t19 -46.5t-19 -48t-47 -20t-47.5 20t-19.5 48zM1079 664q0 27 20 46t48 19t46.5 -18.5t18.5 -46.5t-19 -48t-46 -20q-28 0 -48 20t-20 48zM233 784q0 28 20 47t48 19t47 -19t19 -47t-19 -47.5t-47 -19.5t-48 19.5t-20 47.5zM958 905q0 28 20 47t48 19t47 -19 t19 -47t-19 -47.5t-47 -19.5t-48 19.5t-20 47.5zM717 1026q0 28 19.5 47t47.5 19t47 -19t19 -47t-19 -48t-47 -20t-47.5 20t-19.5 48zM475 1026q0 28 20 47t48 19t46.5 -19t18.5 -47t-19 -48t-46 -20q-28 0 -48 20t-20 48z" />
<glyph unicode="&#xd1;" d="M475 1389q0 27 20 46t48 19t46.5 -18.5t18.5 -46.5t-19 -48t-46 -20q-28 0 -48 20t-20 48zM1079 59q0 28 20 47t48 19t46.5 -19t18.5 -47t-18.5 -47.5t-46.5 -19.5t-48 19.5t-20 47.5zM113 59q0 28 19.5 47t47.5 19t47 -19t19 -47t-19 -47.5t-47 -19.5t-47.5 19.5 t-19.5 47.5zM1079 301q0 28 20 47t48 19t46.5 -19t18.5 -47t-19 -48t-46 -20q-28 0 -48 20t-20 48zM113 301q0 28 19.5 47t47.5 19t47 -19t19 -47t-19 -48t-47 -20t-47.5 20t-19.5 48zM1079 543q0 27 20 46t48 19t46.5 -18.5t18.5 -46.5t-19 -48t-46 -20q-28 0 -48 20 t-20 48zM113 543q0 28 19.5 46.5t47.5 18.5t47 -18.5t19 -46.5t-19 -48t-47 -20t-47.5 20t-19.5 48zM1079 784q0 28 20 47t48 19t46.5 -19t18.5 -47t-18.5 -47.5t-46.5 -19.5t-48 19.5t-20 47.5zM113 784q0 28 19.5 47t47.5 19t47 -19t19 -47t-19 -47.5t-47 -19.5 t-47.5 19.5t-19.5 47.5zM838 1026q0 28 19.5 47t47.5 19t47 -19t19 -47t-19 -48t-47 -20t-47.5 20t-19.5 48zM596 1026q0 28 20 47t48 19t46.5 -19t18.5 -47t-19 -48t-46 -20q-28 0 -48 20t-20 48zM354 1026q0 28 20 47t48 19t46.5 -19t18.5 -47t-19 -48t-46 -20 q-28 0 -48 20t-20 48zM596 1268q0 27 20 46t48 19t46.5 -18.5t18.5 -46.5t-19 -48t-46 -20q-28 0 -48 20t-20 48zM354 1268q0 27 20 46t48 19t46.5 -18.5t18.5 -46.5t-19 -48t-46 -20q-28 0 -48 20t-20 48zM717 1389q0 28 19.5 46.5t47.5 18.5t47 -18.5t19 -46.5t-19 -48 t-47 -20t-47.5 20t-19.5 48z" />
<glyph unicode="&#xd2;" d="M475 1389q0 27 20 46t48 19t46.5 -18.5t18.5 -46.5t-19 -48t-46 -20q-28 0 -48 20t-20 48zM717 59q0 28 19.5 47t47.5 19t47 -19t19 -47t-19 -47.5t-47 -19.5t-47.5 19.5t-19.5 47.5zM475 59q0 28 20 47t48 19t46.5 -19t18.5 -47t-18.5 -47.5t-46.5 -19.5t-48 19.5 t-20 47.5zM958 180q0 28 20 47t48 19t47 -19t19 -47t-19 -47.5t-47 -19.5t-48 19.5t-20 47.5zM233 180q0 28 20 47t48 19t47 -19t19 -47t-19 -47.5t-47 -19.5t-48 19.5t-20 47.5zM1079 422q0 27 20 46t48 19t46.5 -18.5t18.5 -46.5t-19 -48t-46 -20q-28 0 -48 20t-20 48z M113 422q0 28 19.5 46.5t47.5 18.5t47 -18.5t19 -46.5t-19 -48t-47 -20t-47.5 20t-19.5 48zM1079 664q0 27 20 46t48 19t46.5 -18.5t18.5 -46.5t-19 -48t-46 -20q-28 0 -48 20t-20 48zM113 664q0 28 19.5 46.5t47.5 18.5t47 -18.5t19 -46.5t-19 -48t-47 -20t-47.5 20 t-19.5 48zM958 905q0 28 20 47t48 19t47 -19t19 -47t-19 -47.5t-47 -19.5t-48 19.5t-20 47.5zM233 905q0 28 20 47t48 19t47 -19t19 -47t-19 -47.5t-47 -19.5t-48 19.5t-20 47.5zM717 1026q0 28 19.5 47t47.5 19t47 -19t19 -47t-19 -48t-47 -20t-47.5 20t-19.5 48zM475 1026 q0 28 20 47t48 19t46.5 -19t18.5 -47t-19 -48t-46 -20q-28 0 -48 20t-20 48zM717 1268q0 28 19.5 46.5t47.5 18.5t47 -18.5t19 -46.5t-19 -48t-47 -20t-47.5 20t-19.5 48z" />
<glyph unicode="&#xd3;" d="M717 1389q0 28 19.5 46.5t47.5 18.5t47 -18.5t19 -46.5t-19 -48t-47 -20t-47.5 20t-19.5 48zM717 59q0 28 19.5 47t47.5 19t47 -19t19 -47t-19 -47.5t-47 -19.5t-47.5 19.5t-19.5 47.5zM475 59q0 28 20 47t48 19t46.5 -19t18.5 -47t-18.5 -47.5t-46.5 -19.5t-48 19.5 t-20 47.5zM958 180q0 28 20 47t48 19t47 -19t19 -47t-19 -47.5t-47 -19.5t-48 19.5t-20 47.5zM233 180q0 28 20 47t48 19t47 -19t19 -47t-19 -47.5t-47 -19.5t-48 19.5t-20 47.5zM1079 422q0 27 20 46t48 19t46.5 -18.5t18.5 -46.5t-19 -48t-46 -20q-28 0 -48 20t-20 48z M113 422q0 28 19.5 46.5t47.5 18.5t47 -18.5t19 -46.5t-19 -48t-47 -20t-47.5 20t-19.5 48zM1079 664q0 27 20 46t48 19t46.5 -18.5t18.5 -46.5t-19 -48t-46 -20q-28 0 -48 20t-20 48zM113 664q0 28 19.5 46.5t47.5 18.5t47 -18.5t19 -46.5t-19 -48t-47 -20t-47.5 20 t-19.5 48zM958 905q0 28 20 47t48 19t47 -19t19 -47t-19 -47.5t-47 -19.5t-48 19.5t-20 47.5zM233 905q0 28 20 47t48 19t47 -19t19 -47t-19 -47.5t-47 -19.5t-48 19.5t-20 47.5zM717 1026q0 28 19.5 47t47.5 19t47 -19t19 -47t-19 -48t-47 -20t-47.5 20t-19.5 48zM475 1026 q0 28 20 47t48 19t46.5 -19t18.5 -47t-19 -48t-46 -20q-28 0 -48 20t-20 48zM475 1268q0 27 20 46t48 19t46.5 -18.5t18.5 -46.5t-19 -48t-46 -20q-28 0 -48 20t-20 48z" />
<glyph unicode="&#xd4;" d="M596 1389q0 27 20 46t48 19t46.5 -18.5t18.5 -46.5t-19 -48t-46 -20q-28 0 -48 20t-20 48zM717 59q0 28 19.5 47t47.5 19t47 -19t19 -47t-19 -47.5t-47 -19.5t-47.5 19.5t-19.5 47.5zM475 59q0 28 20 47t48 19t46.5 -19t18.5 -47t-18.5 -47.5t-46.5 -19.5t-48 19.5 t-20 47.5zM958 180q0 28 20 47t48 19t47 -19t19 -47t-19 -47.5t-47 -19.5t-48 19.5t-20 47.5zM233 180q0 28 20 47t48 19t47 -19t19 -47t-19 -47.5t-47 -19.5t-48 19.5t-20 47.5zM1079 422q0 27 20 46t48 19t46.5 -18.5t18.5 -46.5t-19 -48t-46 -20q-28 0 -48 20t-20 48z M113 422q0 28 19.5 46.5t47.5 18.5t47 -18.5t19 -46.5t-19 -48t-47 -20t-47.5 20t-19.5 48zM1079 664q0 27 20 46t48 19t46.5 -18.5t18.5 -46.5t-19 -48t-46 -20q-28 0 -48 20t-20 48zM113 664q0 28 19.5 46.5t47.5 18.5t47 -18.5t19 -46.5t-19 -48t-47 -20t-47.5 20 t-19.5 48zM958 905q0 28 20 47t48 19t47 -19t19 -47t-19 -47.5t-47 -19.5t-48 19.5t-20 47.5zM233 905q0 28 20 47t48 19t47 -19t19 -47t-19 -47.5t-47 -19.5t-48 19.5t-20 47.5zM717 1026q0 28 19.5 47t47.5 19t47 -19t19 -47t-19 -48t-47 -20t-47.5 20t-19.5 48zM475 1026 q0 28 20 47t48 19t46.5 -19t18.5 -47t-19 -48t-46 -20q-28 0 -48 20t-20 48zM838 1268q0 28 19.5 46.5t47.5 18.5t47 -18.5t19 -46.5t-19 -48t-47 -20t-47.5 20t-19.5 48zM354 1268q0 27 20 46t48 19t46.5 -18.5t18.5 -46.5t-19 -48t-46 -20q-28 0 -48 20t-20 48z" />
<glyph unicode="&#xd5;" d="M475 1389q0 27 20 46t48 19t46.5 -18.5t18.5 -46.5t-19 -48t-46 -20q-28 0 -48 20t-20 48zM717 59q0 28 19.5 47t47.5 19t47 -19t19 -47t-19 -47.5t-47 -19.5t-47.5 19.5t-19.5 47.5zM475 59q0 28 20 47t48 19t46.5 -19t18.5 -47t-18.5 -47.5t-46.5 -19.5t-48 19.5 t-20 47.5zM958 180q0 28 20 47t48 19t47 -19t19 -47t-19 -47.5t-47 -19.5t-48 19.5t-20 47.5zM233 180q0 28 20 47t48 19t47 -19t19 -47t-19 -47.5t-47 -19.5t-48 19.5t-20 47.5zM1079 422q0 27 20 46t48 19t46.5 -18.5t18.5 -46.5t-19 -48t-46 -20q-28 0 -48 20t-20 48z M113 422q0 28 19.5 46.5t47.5 18.5t47 -18.5t19 -46.5t-19 -48t-47 -20t-47.5 20t-19.5 48zM1079 664q0 27 20 46t48 19t46.5 -18.5t18.5 -46.5t-19 -48t-46 -20q-28 0 -48 20t-20 48zM113 664q0 28 19.5 46.5t47.5 18.5t47 -18.5t19 -46.5t-19 -48t-47 -20t-47.5 20 t-19.5 48zM958 905q0 28 20 47t48 19t47 -19t19 -47t-19 -47.5t-47 -19.5t-48 19.5t-20 47.5zM233 905q0 28 20 47t48 19t47 -19t19 -47t-19 -47.5t-47 -19.5t-48 19.5t-20 47.5zM717 1026q0 28 19.5 47t47.5 19t47 -19t19 -47t-19 -48t-47 -20t-47.5 20t-19.5 48zM475 1026 q0 28 20 47t48 19t46.5 -19t18.5 -47t-19 -48t-46 -20q-28 0 -48 20t-20 48zM596 1268q0 27 20 46t48 19t46.5 -18.5t18.5 -46.5t-19 -48t-46 -20q-28 0 -48 20t-20 48zM354 1268q0 27 20 46t48 19t46.5 -18.5t18.5 -46.5t-19 -48t-46 -20q-28 0 -48 20t-20 48zM717 1389 q0 28 19.5 46.5t47.5 18.5t47 -18.5t19 -46.5t-19 -48t-47 -20t-47.5 20t-19.5 48z" />
<glyph unicode="&#xd6;" d="M475 1389q0 27 20 46t48 19t46.5 -18.5t18.5 -46.5t-19 -48t-46 -20q-28 0 -48 20t-20 48zM717 59q0 28 19.5 47t47.5 19t47 -19t19 -47t-19 -47.5t-47 -19.5t-47.5 19.5t-19.5 47.5zM475 59q0 28 20 47t48 19t46.5 -19t18.5 -47t-18.5 -47.5t-46.5 -19.5t-48 19.5 t-20 47.5zM958 180q0 28 20 47t48 19t47 -19t19 -47t-19 -47.5t-47 -19.5t-48 19.5t-20 47.5zM233 180q0 28 20 47t48 19t47 -19t19 -47t-19 -47.5t-47 -19.5t-48 19.5t-20 47.5zM1079 422q0 27 20 46t48 19t46.5 -18.5t18.5 -46.5t-19 -48t-46 -20q-28 0 -48 20t-20 48z M113 422q0 28 19.5 46.5t47.5 18.5t47 -18.5t19 -46.5t-19 -48t-47 -20t-47.5 20t-19.5 48zM1079 664q0 27 20 46t48 19t46.5 -18.5t18.5 -46.5t-19 -48t-46 -20q-28 0 -48 20t-20 48zM113 664q0 28 19.5 46.5t47.5 18.5t47 -18.5t19 -46.5t-19 -48t-47 -20t-47.5 20 t-19.5 48zM958 905q0 28 20 47t48 19t47 -19t19 -47t-19 -47.5t-47 -19.5t-48 19.5t-20 47.5zM233 905q0 28 20 47t48 19t47 -19t19 -47t-19 -47.5t-47 -19.5t-48 19.5t-20 47.5zM717 1026q0 28 19.5 47t47.5 19t47 -19t19 -47t-19 -48t-47 -20t-47.5 20t-19.5 48zM475 1026 q0 28 20 47t48 19t46.5 -19t18.5 -47t-19 -48t-46 -20q-28 0 -48 20t-20 48zM717 1389q0 28 19.5 46.5t47.5 18.5t47 -18.5t19 -46.5t-19 -48t-47 -20t-47.5 20t-19.5 48z" />
<glyph unicode="&#xd7;" horiz-adv-x="1087" d="M113 905q0 28 19.5 47t47.5 19t47 -19t19 -47t-19 -47.5t-47 -19.5t-47.5 19.5t-19.5 47.5zM838 180q0 28 19.5 47t47.5 19t47 -19t19 -47t-19 -47.5t-47 -19.5t-47.5 19.5t-19.5 47.5zM113 180q0 28 19.5 47t47.5 19t47 -19t19 -47t-19 -47.5t-47 -19.5t-47.5 19.5 t-19.5 47.5zM596 422q0 27 20 46t48 19t46.5 -18.5t18.5 -46.5t-19 -48t-46 -20q-28 0 -48 20t-20 48zM354 422q0 27 20 46t48 19t46.5 -18.5t18.5 -46.5t-19 -48t-46 -20q-28 0 -48 20t-20 48zM596 664q0 27 20 46t48 19t46.5 -18.5t18.5 -46.5t-19 -48t-46 -20 q-28 0 -48 20t-20 48zM354 664q0 27 20 46t48 19t46.5 -18.5t18.5 -46.5t-19 -48t-46 -20q-28 0 -48 20t-20 48zM838 905q0 28 19.5 47t47.5 19t47 -19t19 -47t-19 -47.5t-47 -19.5t-47.5 19.5t-19.5 47.5z" />
<glyph unicode="&#xd8;" d="M1200 1147q0 27 20 46t48 19t46.5 -18.5t18.5 -46.5t-19 -48t-46 -20q-28 0 -48 20t-20 48zM-8 -61q0 28 19.5 46.5t47.5 18.5t47 -18.5t19 -46.5t-19 -48t-47 -20t-47.5 20t-19.5 48zM717 59q0 28 19.5 47t47.5 19t47 -19t19 -47t-19 -47.5t-47 -19.5t-47.5 19.5 t-19.5 47.5zM475 59q0 28 20 47t48 19t46.5 -19t18.5 -47t-18.5 -47.5t-46.5 -19.5t-48 19.5t-20 47.5zM958 180q0 28 20 47t48 19t47 -19t19 -47t-19 -47.5t-47 -19.5t-48 19.5t-20 47.5zM233 180q0 28 20 47t48 19t47 -19t19 -47t-19 -47.5t-47 -19.5t-48 19.5t-20 47.5z M1079 422q0 27 20 46t48 19t46.5 -18.5t18.5 -46.5t-19 -48t-46 -20q-28 0 -48 20t-20 48zM475 422q0 27 20 46t48 19t46.5 -18.5t18.5 -46.5t-19 -48t-46 -20q-28 0 -48 20t-20 48zM113 422q0 28 19.5 46.5t47.5 18.5t47 -18.5t19 -46.5t-19 -48t-47 -20t-47.5 20t-19.5 48 zM1079 664q0 27 20 46t48 19t46.5 -18.5t18.5 -46.5t-19 -48t-46 -20q-28 0 -48 20t-20 48zM717 664q0 28 19.5 46.5t47.5 18.5t47 -18.5t19 -46.5t-19 -48t-47 -20t-47.5 20t-19.5 48zM113 664q0 28 19.5 46.5t47.5 18.5t47 -18.5t19 -46.5t-19 -48t-47 -20t-47.5 20 t-19.5 48zM958 905q0 28 20 47t48 19t47 -19t19 -47t-19 -47.5t-47 -19.5t-48 19.5t-20 47.5zM233 905q0 28 20 47t48 19t47 -19t19 -47t-19 -47.5t-47 -19.5t-48 19.5t-20 47.5zM717 1026q0 28 19.5 47t47.5 19t47 -19t19 -47t-19 -48t-47 -20t-47.5 20t-19.5 48zM475 1026 q0 28 20 47t48 19t46.5 -19t18.5 -47t-19 -48t-46 -20q-28 0 -48 20t-20 48z" />
<glyph unicode="&#xd9;" d="M475 1389q0 27 20 46t48 19t46.5 -18.5t18.5 -46.5t-19 -48t-46 -20q-28 0 -48 20t-20 48zM838 59q0 28 19.5 47t47.5 19t47 -19t19 -47t-19 -47.5t-47 -19.5t-47.5 19.5t-19.5 47.5zM596 59q0 28 20 47t48 19t46.5 -19t18.5 -47t-18.5 -47.5t-46.5 -19.5t-48 19.5 t-20 47.5zM354 59q0 28 20 47t48 19t46.5 -19t18.5 -47t-18.5 -47.5t-46.5 -19.5t-48 19.5t-20 47.5zM1079 301q0 28 20 47t48 19t46.5 -19t18.5 -47t-19 -48t-46 -20q-28 0 -48 20t-20 48zM113 301q0 28 19.5 47t47.5 19t47 -19t19 -47t-19 -48t-47 -20t-47.5 20t-19.5 48z M1079 543q0 27 20 46t48 19t46.5 -18.5t18.5 -46.5t-19 -48t-46 -20q-28 0 -48 20t-20 48zM113 543q0 28 19.5 46.5t47.5 18.5t47 -18.5t19 -46.5t-19 -48t-47 -20t-47.5 20t-19.5 48zM1079 784q0 28 20 47t48 19t46.5 -19t18.5 -47t-18.5 -47.5t-46.5 -19.5t-48 19.5 t-20 47.5zM113 784q0 28 19.5 47t47.5 19t47 -19t19 -47t-19 -47.5t-47 -19.5t-47.5 19.5t-19.5 47.5zM1079 1026q0 28 20 47t48 19t46.5 -19t18.5 -47t-19 -48t-46 -20q-28 0 -48 20t-20 48zM113 1026q0 28 19.5 47t47.5 19t47 -19t19 -47t-19 -48t-47 -20t-47.5 20 t-19.5 48zM717 1268q0 28 19.5 46.5t47.5 18.5t47 -18.5t19 -46.5t-19 -48t-47 -20t-47.5 20t-19.5 48z" />
<glyph unicode="&#xda;" d="M717 1389q0 28 19.5 46.5t47.5 18.5t47 -18.5t19 -46.5t-19 -48t-47 -20t-47.5 20t-19.5 48zM838 59q0 28 19.5 47t47.5 19t47 -19t19 -47t-19 -47.5t-47 -19.5t-47.5 19.5t-19.5 47.5zM596 59q0 28 20 47t48 19t46.5 -19t18.5 -47t-18.5 -47.5t-46.5 -19.5t-48 19.5 t-20 47.5zM354 59q0 28 20 47t48 19t46.5 -19t18.5 -47t-18.5 -47.5t-46.5 -19.5t-48 19.5t-20 47.5zM1079 301q0 28 20 47t48 19t46.5 -19t18.5 -47t-19 -48t-46 -20q-28 0 -48 20t-20 48zM113 301q0 28 19.5 47t47.5 19t47 -19t19 -47t-19 -48t-47 -20t-47.5 20t-19.5 48z M1079 543q0 27 20 46t48 19t46.5 -18.5t18.5 -46.5t-19 -48t-46 -20q-28 0 -48 20t-20 48zM113 543q0 28 19.5 46.5t47.5 18.5t47 -18.5t19 -46.5t-19 -48t-47 -20t-47.5 20t-19.5 48zM1079 784q0 28 20 47t48 19t46.5 -19t18.5 -47t-18.5 -47.5t-46.5 -19.5t-48 19.5 t-20 47.5zM113 784q0 28 19.5 47t47.5 19t47 -19t19 -47t-19 -47.5t-47 -19.5t-47.5 19.5t-19.5 47.5zM1079 1026q0 28 20 47t48 19t46.5 -19t18.5 -47t-19 -48t-46 -20q-28 0 -48 20t-20 48zM113 1026q0 28 19.5 47t47.5 19t47 -19t19 -47t-19 -48t-47 -20t-47.5 20 t-19.5 48zM475 1268q0 27 20 46t48 19t46.5 -18.5t18.5 -46.5t-19 -48t-46 -20q-28 0 -48 20t-20 48z" />
<glyph unicode="&#xdb;" d="M596 1389q0 27 20 46t48 19t46.5 -18.5t18.5 -46.5t-19 -48t-46 -20q-28 0 -48 20t-20 48zM838 59q0 28 19.5 47t47.5 19t47 -19t19 -47t-19 -47.5t-47 -19.5t-47.5 19.5t-19.5 47.5zM596 59q0 28 20 47t48 19t46.5 -19t18.5 -47t-18.5 -47.5t-46.5 -19.5t-48 19.5 t-20 47.5zM354 59q0 28 20 47t48 19t46.5 -19t18.5 -47t-18.5 -47.5t-46.5 -19.5t-48 19.5t-20 47.5zM1079 301q0 28 20 47t48 19t46.5 -19t18.5 -47t-19 -48t-46 -20q-28 0 -48 20t-20 48zM113 301q0 28 19.5 47t47.5 19t47 -19t19 -47t-19 -48t-47 -20t-47.5 20t-19.5 48z M1079 543q0 27 20 46t48 19t46.5 -18.5t18.5 -46.5t-19 -48t-46 -20q-28 0 -48 20t-20 48zM113 543q0 28 19.5 46.5t47.5 18.5t47 -18.5t19 -46.5t-19 -48t-47 -20t-47.5 20t-19.5 48zM1079 784q0 28 20 47t48 19t46.5 -19t18.5 -47t-18.5 -47.5t-46.5 -19.5t-48 19.5 t-20 47.5zM113 784q0 28 19.5 47t47.5 19t47 -19t19 -47t-19 -47.5t-47 -19.5t-47.5 19.5t-19.5 47.5zM1079 1026q0 28 20 47t48 19t46.5 -19t18.5 -47t-19 -48t-46 -20q-28 0 -48 20t-20 48zM113 1026q0 28 19.5 47t47.5 19t47 -19t19 -47t-19 -48t-47 -20t-47.5 20 t-19.5 48zM717 1268q0 28 19.5 46.5t47.5 18.5t47 -18.5t19 -46.5t-19 -48t-47 -20t-47.5 20t-19.5 48zM475 1268q0 27 20 46t48 19t46.5 -18.5t18.5 -46.5t-19 -48t-46 -20q-28 0 -48 20t-20 48z" />
<glyph unicode="&#xdc;" d="M475 1389q0 27 20 46t48 19t46.5 -18.5t18.5 -46.5t-19 -48t-46 -20q-28 0 -48 20t-20 48zM838 59q0 28 19.5 47t47.5 19t47 -19t19 -47t-19 -47.5t-47 -19.5t-47.5 19.5t-19.5 47.5zM596 59q0 28 20 47t48 19t46.5 -19t18.5 -47t-18.5 -47.5t-46.5 -19.5t-48 19.5 t-20 47.5zM354 59q0 28 20 47t48 19t46.5 -19t18.5 -47t-18.5 -47.5t-46.5 -19.5t-48 19.5t-20 47.5zM1079 301q0 28 20 47t48 19t46.5 -19t18.5 -47t-19 -48t-46 -20q-28 0 -48 20t-20 48zM113 301q0 28 19.5 47t47.5 19t47 -19t19 -47t-19 -48t-47 -20t-47.5 20t-19.5 48z M1079 543q0 27 20 46t48 19t46.5 -18.5t18.5 -46.5t-19 -48t-46 -20q-28 0 -48 20t-20 48zM113 543q0 28 19.5 46.5t47.5 18.5t47 -18.5t19 -46.5t-19 -48t-47 -20t-47.5 20t-19.5 48zM1079 784q0 28 20 47t48 19t46.5 -19t18.5 -47t-18.5 -47.5t-46.5 -19.5t-48 19.5 t-20 47.5zM113 784q0 28 19.5 47t47.5 19t47 -19t19 -47t-19 -47.5t-47 -19.5t-47.5 19.5t-19.5 47.5zM1079 1026q0 28 20 47t48 19t46.5 -19t18.5 -47t-19 -48t-46 -20q-28 0 -48 20t-20 48zM113 1026q0 28 19.5 47t47.5 19t47 -19t19 -47t-19 -48t-47 -20t-47.5 20 t-19.5 48zM717 1389q0 28 19.5 46.5t47.5 18.5t47 -18.5t19 -46.5t-19 -48t-47 -20t-47.5 20t-19.5 48z" />
<glyph unicode="&#xdd;" d="M717 1389q0 28 19.5 46.5t47.5 18.5t47 -18.5t19 -46.5t-19 -48t-47 -20t-47.5 20t-19.5 48zM596 59q0 28 20 47t48 19t46.5 -19t18.5 -47t-18.5 -47.5t-46.5 -19.5t-48 19.5t-20 47.5zM596 301q0 28 20 47t48 19t46.5 -19t18.5 -47t-19 -48t-46 -20q-28 0 -48 20t-20 48 zM596 543q0 27 20 46t48 19t46.5 -18.5t18.5 -46.5t-19 -48t-46 -20q-28 0 -48 20t-20 48zM838 784q0 28 19.5 47t47.5 19t47 -19t19 -47t-19 -47.5t-47 -19.5t-47.5 19.5t-19.5 47.5zM354 784q0 28 20 47t48 19t46.5 -19t18.5 -47t-18.5 -47.5t-46.5 -19.5t-48 19.5 t-20 47.5zM1079 1026q0 28 20 47t48 19t46.5 -19t18.5 -47t-19 -48t-46 -20q-28 0 -48 20t-20 48zM113 1026q0 28 19.5 47t47.5 19t47 -19t19 -47t-19 -48t-47 -20t-47.5 20t-19.5 48zM475 1268q0 27 20 46t48 19t46.5 -18.5t18.5 -46.5t-19 -48t-46 -20q-28 0 -48 20 t-20 48z" />
<glyph unicode="&#xde;" d="M113 1026q0 28 19.5 47t47.5 19t47 -19t19 -47t-19 -48t-47 -20t-47.5 20t-19.5 48zM113 59q0 28 19.5 47t47.5 19t47 -19t19 -47t-19 -47.5t-47 -19.5t-47.5 19.5t-19.5 47.5zM838 180q0 28 19.5 47t47.5 19t47 -19t19 -47t-19 -47.5t-47 -19.5t-47.5 19.5t-19.5 47.5z M596 180q0 28 20 47t48 19t46.5 -19t18.5 -47t-18.5 -47.5t-46.5 -19.5t-48 19.5t-20 47.5zM354 180q0 28 20 47t48 19t46.5 -19t18.5 -47t-18.5 -47.5t-46.5 -19.5t-48 19.5t-20 47.5zM113 301q0 28 19.5 47t47.5 19t47 -19t19 -47t-19 -48t-47 -20t-47.5 20t-19.5 48z M1079 422q0 27 20 46t48 19t46.5 -18.5t18.5 -46.5t-19 -48t-46 -20q-28 0 -48 20t-20 48zM113 543q0 28 19.5 46.5t47.5 18.5t47 -18.5t19 -46.5t-19 -48t-47 -20t-47.5 20t-19.5 48zM1079 664q0 27 20 46t48 19t46.5 -18.5t18.5 -46.5t-19 -48t-46 -20q-28 0 -48 20 t-20 48zM113 784q0 28 19.5 47t47.5 19t47 -19t19 -47t-19 -47.5t-47 -19.5t-47.5 19.5t-19.5 47.5zM838 905q0 28 19.5 47t47.5 19t47 -19t19 -47t-19 -47.5t-47 -19.5t-47.5 19.5t-19.5 47.5zM596 905q0 28 20 47t48 19t46.5 -19t18.5 -47t-18.5 -47.5t-46.5 -19.5 t-48 19.5t-20 47.5zM354 905q0 28 20 47t48 19t46.5 -19t18.5 -47t-18.5 -47.5t-46.5 -19.5t-48 19.5t-20 47.5z" />
<glyph unicode="&#xdf;" d="M354 1026q0 28 20 47t48 19t46.5 -19t18.5 -47t-19 -48t-46 -20q-28 0 -48 20t-20 48zM838 59q0 28 19.5 47t47.5 19t47 -19t19 -47t-19 -47.5t-47 -19.5t-47.5 19.5t-19.5 47.5zM596 59q0 28 20 47t48 19t46.5 -19t18.5 -47t-18.5 -47.5t-46.5 -19.5t-48 19.5t-20 47.5z M113 59q0 28 19.5 47t47.5 19t47 -19t19 -47t-19 -47.5t-47 -19.5t-47.5 19.5t-19.5 47.5zM354 180q0 28 20 47t48 19t46.5 -19t18.5 -47t-18.5 -47.5t-46.5 -19.5t-48 19.5t-20 47.5zM1079 301q0 28 20 47t48 19t46.5 -19t18.5 -47t-19 -48t-46 -20q-28 0 -48 20t-20 48z M113 301q0 28 19.5 47t47.5 19t47 -19t19 -47t-19 -48t-47 -20t-47.5 20t-19.5 48zM1079 543q0 27 20 46t48 19t46.5 -18.5t18.5 -46.5t-19 -48t-46 -20q-28 0 -48 20t-20 48zM838 543q0 28 19.5 46.5t47.5 18.5t47 -18.5t19 -46.5t-19 -48t-47 -20t-47.5 20t-19.5 48z M596 543q0 27 20 46t48 19t46.5 -18.5t18.5 -46.5t-19 -48t-46 -20q-28 0 -48 20t-20 48zM113 543q0 28 19.5 46.5t47.5 18.5t47 -18.5t19 -46.5t-19 -48t-47 -20t-47.5 20t-19.5 48zM958 784q0 28 20 47t48 19t47 -19t19 -47t-19 -47.5t-47 -19.5t-48 19.5t-20 47.5z M113 784q0 28 19.5 47t47.5 19t47 -19t19 -47t-19 -47.5t-47 -19.5t-47.5 19.5t-19.5 47.5zM838 1026q0 28 19.5 47t47.5 19t47 -19t19 -47t-19 -48t-47 -20t-47.5 20t-19.5 48zM596 1026q0 28 20 47t48 19t46.5 -19t18.5 -47t-19 -48t-46 -20q-28 0 -48 20t-20 48z" />
<glyph unicode="&#xe0;" horiz-adv-x="1449" d="M475 1389q0 27 20 46t48 19t46.5 -18.5t18.5 -46.5t-19 -48t-46 -20q-28 0 -48 20t-20 48zM1200 59q0 28 20 47t48 19t46.5 -19t18.5 -47t-18.5 -47.5t-46.5 -19.5t-48 19.5t-20 47.5zM717 59q0 28 19.5 47t47.5 19t47 -19t19 -47t-19 -47.5t-47 -19.5t-47.5 19.5 t-19.5 47.5zM475 59q0 28 20 47t48 19t46.5 -19t18.5 -47t-18.5 -47.5t-46.5 -19.5t-48 19.5t-20 47.5zM233 180q0 28 20 47t48 19t47 -19t19 -47t-19 -47.5t-47 -19.5t-48 19.5t-20 47.5zM1079 301q0 28 20 47t48 19t46.5 -19t18.5 -47t-19 -48t-46 -20q-28 0 -48 20 t-20 48zM113 422q0 28 19.5 46.5t47.5 18.5t47 -18.5t19 -46.5t-19 -48t-47 -20t-47.5 20t-19.5 48zM1079 543q0 27 20 46t48 19t46.5 -18.5t18.5 -46.5t-19 -48t-46 -20q-28 0 -48 20t-20 48zM113 664q0 28 19.5 46.5t47.5 18.5t47 -18.5t19 -46.5t-19 -48t-47 -20 t-47.5 20t-19.5 48zM1079 784q0 28 20 47t48 19t46.5 -19t18.5 -47t-18.5 -47.5t-46.5 -19.5t-48 19.5t-20 47.5zM233 905q0 28 20 47t48 19t47 -19t19 -47t-19 -47.5t-47 -19.5t-48 19.5t-20 47.5zM958 1026q0 28 20 47t48 19t47 -19t19 -47t-19 -48t-47 -20t-48 20t-20 48 zM717 1026q0 28 19.5 47t47.5 19t47 -19t19 -47t-19 -48t-47 -20t-47.5 20t-19.5 48zM475 1026q0 28 20 47t48 19t46.5 -19t18.5 -47t-19 -48t-46 -20q-28 0 -48 20t-20 48zM717 1268q0 28 19.5 46.5t47.5 18.5t47 -18.5t19 -46.5t-19 -48t-47 -20t-47.5 20t-19.5 48z" />
<glyph unicode="&#xe1;" horiz-adv-x="1449" d="M838 1389q0 28 19.5 46.5t47.5 18.5t47 -18.5t19 -46.5t-19 -48t-47 -20t-47.5 20t-19.5 48zM1200 59q0 28 20 47t48 19t46.5 -19t18.5 -47t-18.5 -47.5t-46.5 -19.5t-48 19.5t-20 47.5zM717 59q0 28 19.5 47t47.5 19t47 -19t19 -47t-19 -47.5t-47 -19.5t-47.5 19.5 t-19.5 47.5zM475 59q0 28 20 47t48 19t46.5 -19t18.5 -47t-18.5 -47.5t-46.5 -19.5t-48 19.5t-20 47.5zM233 180q0 28 20 47t48 19t47 -19t19 -47t-19 -47.5t-47 -19.5t-48 19.5t-20 47.5zM1079 301q0 28 20 47t48 19t46.5 -19t18.5 -47t-19 -48t-46 -20q-28 0 -48 20 t-20 48zM113 422q0 28 19.5 46.5t47.5 18.5t47 -18.5t19 -46.5t-19 -48t-47 -20t-47.5 20t-19.5 48zM1079 543q0 27 20 46t48 19t46.5 -18.5t18.5 -46.5t-19 -48t-46 -20q-28 0 -48 20t-20 48zM113 664q0 28 19.5 46.5t47.5 18.5t47 -18.5t19 -46.5t-19 -48t-47 -20 t-47.5 20t-19.5 48zM1079 784q0 28 20 47t48 19t46.5 -19t18.5 -47t-18.5 -47.5t-46.5 -19.5t-48 19.5t-20 47.5zM233 905q0 28 20 47t48 19t47 -19t19 -47t-19 -47.5t-47 -19.5t-48 19.5t-20 47.5zM958 1026q0 28 20 47t48 19t47 -19t19 -47t-19 -48t-47 -20t-48 20t-20 48 zM717 1026q0 28 19.5 47t47.5 19t47 -19t19 -47t-19 -48t-47 -20t-47.5 20t-19.5 48zM475 1026q0 28 20 47t48 19t46.5 -19t18.5 -47t-19 -48t-46 -20q-28 0 -48 20t-20 48zM596 1268q0 27 20 46t48 19t46.5 -18.5t18.5 -46.5t-19 -48t-46 -20q-28 0 -48 20t-20 48z" />
<glyph unicode="&#xe2;" horiz-adv-x="1449" d="M596 1389q0 27 20 46t48 19t46.5 -18.5t18.5 -46.5t-19 -48t-46 -20q-28 0 -48 20t-20 48zM1200 59q0 28 20 47t48 19t46.5 -19t18.5 -47t-18.5 -47.5t-46.5 -19.5t-48 19.5t-20 47.5zM717 59q0 28 19.5 47t47.5 19t47 -19t19 -47t-19 -47.5t-47 -19.5t-47.5 19.5 t-19.5 47.5zM475 59q0 28 20 47t48 19t46.5 -19t18.5 -47t-18.5 -47.5t-46.5 -19.5t-48 19.5t-20 47.5zM233 180q0 28 20 47t48 19t47 -19t19 -47t-19 -47.5t-47 -19.5t-48 19.5t-20 47.5zM1079 301q0 28 20 47t48 19t46.5 -19t18.5 -47t-19 -48t-46 -20q-28 0 -48 20 t-20 48zM113 422q0 28 19.5 46.5t47.5 18.5t47 -18.5t19 -46.5t-19 -48t-47 -20t-47.5 20t-19.5 48zM1079 543q0 27 20 46t48 19t46.5 -18.5t18.5 -46.5t-19 -48t-46 -20q-28 0 -48 20t-20 48zM113 664q0 28 19.5 46.5t47.5 18.5t47 -18.5t19 -46.5t-19 -48t-47 -20 t-47.5 20t-19.5 48zM1079 784q0 28 20 47t48 19t46.5 -19t18.5 -47t-18.5 -47.5t-46.5 -19.5t-48 19.5t-20 47.5zM233 905q0 28 20 47t48 19t47 -19t19 -47t-19 -47.5t-47 -19.5t-48 19.5t-20 47.5zM958 1026q0 28 20 47t48 19t47 -19t19 -47t-19 -48t-47 -20t-48 20t-20 48 zM717 1026q0 28 19.5 47t47.5 19t47 -19t19 -47t-19 -48t-47 -20t-47.5 20t-19.5 48zM475 1026q0 28 20 47t48 19t46.5 -19t18.5 -47t-19 -48t-46 -20q-28 0 -48 20t-20 48zM838 1268q0 28 19.5 46.5t47.5 18.5t47 -18.5t19 -46.5t-19 -48t-47 -20t-47.5 20t-19.5 48z M354 1268q0 27 20 46t48 19t46.5 -18.5t18.5 -46.5t-19 -48t-46 -20q-28 0 -48 20t-20 48z" />
<glyph unicode="&#xe3;" horiz-adv-x="1449" d="M596 1389q0 27 20 46t48 19t46.5 -18.5t18.5 -46.5t-19 -48t-46 -20q-28 0 -48 20t-20 48zM1200 59q0 28 20 47t48 19t46.5 -19t18.5 -47t-18.5 -47.5t-46.5 -19.5t-48 19.5t-20 47.5zM717 59q0 28 19.5 47t47.5 19t47 -19t19 -47t-19 -47.5t-47 -19.5t-47.5 19.5 t-19.5 47.5zM475 59q0 28 20 47t48 19t46.5 -19t18.5 -47t-18.5 -47.5t-46.5 -19.5t-48 19.5t-20 47.5zM233 180q0 28 20 47t48 19t47 -19t19 -47t-19 -47.5t-47 -19.5t-48 19.5t-20 47.5zM1079 301q0 28 20 47t48 19t46.5 -19t18.5 -47t-19 -48t-46 -20q-28 0 -48 20 t-20 48zM113 422q0 28 19.5 46.5t47.5 18.5t47 -18.5t19 -46.5t-19 -48t-47 -20t-47.5 20t-19.5 48zM1079 543q0 27 20 46t48 19t46.5 -18.5t18.5 -46.5t-19 -48t-46 -20q-28 0 -48 20t-20 48zM113 664q0 28 19.5 46.5t47.5 18.5t47 -18.5t19 -46.5t-19 -48t-47 -20 t-47.5 20t-19.5 48zM1079 784q0 28 20 47t48 19t46.5 -19t18.5 -47t-18.5 -47.5t-46.5 -19.5t-48 19.5t-20 47.5zM233 905q0 28 20 47t48 19t47 -19t19 -47t-19 -47.5t-47 -19.5t-48 19.5t-20 47.5zM958 1026q0 28 20 47t48 19t47 -19t19 -47t-19 -48t-47 -20t-48 20t-20 48 zM717 1026q0 28 19.5 47t47.5 19t47 -19t19 -47t-19 -48t-47 -20t-47.5 20t-19.5 48zM475 1026q0 28 20 47t48 19t46.5 -19t18.5 -47t-19 -48t-46 -20q-28 0 -48 20t-20 48zM717 1268q0 28 19.5 46.5t47.5 18.5t47 -18.5t19 -46.5t-19 -48t-47 -20t-47.5 20t-19.5 48z M475 1268q0 27 20 46t48 19t46.5 -18.5t18.5 -46.5t-19 -48t-46 -20q-28 0 -48 20t-20 48zM838 1389q0 28 19.5 46.5t47.5 18.5t47 -18.5t19 -46.5t-19 -48t-47 -20t-47.5 20t-19.5 48z" />
<glyph unicode="&#xe4;" horiz-adv-x="1449" d="M475 1389q0 27 20 46t48 19t46.5 -18.5t18.5 -46.5t-19 -48t-46 -20q-28 0 -48 20t-20 48zM1200 59q0 28 20 47t48 19t46.5 -19t18.5 -47t-18.5 -47.5t-46.5 -19.5t-48 19.5t-20 47.5zM717 59q0 28 19.5 47t47.5 19t47 -19t19 -47t-19 -47.5t-47 -19.5t-47.5 19.5 t-19.5 47.5zM475 59q0 28 20 47t48 19t46.5 -19t18.5 -47t-18.5 -47.5t-46.5 -19.5t-48 19.5t-20 47.5zM233 180q0 28 20 47t48 19t47 -19t19 -47t-19 -47.5t-47 -19.5t-48 19.5t-20 47.5zM1079 301q0 28 20 47t48 19t46.5 -19t18.5 -47t-19 -48t-46 -20q-28 0 -48 20 t-20 48zM113 422q0 28 19.5 46.5t47.5 18.5t47 -18.5t19 -46.5t-19 -48t-47 -20t-47.5 20t-19.5 48zM1079 543q0 27 20 46t48 19t46.5 -18.5t18.5 -46.5t-19 -48t-46 -20q-28 0 -48 20t-20 48zM113 664q0 28 19.5 46.5t47.5 18.5t47 -18.5t19 -46.5t-19 -48t-47 -20 t-47.5 20t-19.5 48zM1079 784q0 28 20 47t48 19t46.5 -19t18.5 -47t-18.5 -47.5t-46.5 -19.5t-48 19.5t-20 47.5zM233 905q0 28 20 47t48 19t47 -19t19 -47t-19 -47.5t-47 -19.5t-48 19.5t-20 47.5zM958 1026q0 28 20 47t48 19t47 -19t19 -47t-19 -48t-47 -20t-48 20t-20 48 zM717 1026q0 28 19.5 47t47.5 19t47 -19t19 -47t-19 -48t-47 -20t-47.5 20t-19.5 48zM475 1026q0 28 20 47t48 19t46.5 -19t18.5 -47t-19 -48t-46 -20q-28 0 -48 20t-20 48zM717 1389q0 28 19.5 46.5t47.5 18.5t47 -18.5t19 -46.5t-19 -48t-47 -20t-47.5 20t-19.5 48z" />
<glyph unicode="&#xe5;" horiz-adv-x="1449" d="M596 1389q0 27 20 46t48 19t46.5 -18.5t18.5 -46.5t-19 -48t-46 -20q-28 0 -48 20t-20 48zM1200 59q0 28 20 47t48 19t46.5 -19t18.5 -47t-18.5 -47.5t-46.5 -19.5t-48 19.5t-20 47.5zM717 59q0 28 19.5 47t47.5 19t47 -19t19 -47t-19 -47.5t-47 -19.5t-47.5 19.5 t-19.5 47.5zM475 59q0 28 20 47t48 19t46.5 -19t18.5 -47t-18.5 -47.5t-46.5 -19.5t-48 19.5t-20 47.5zM233 180q0 28 20 47t48 19t47 -19t19 -47t-19 -47.5t-47 -19.5t-48 19.5t-20 47.5zM1079 301q0 28 20 47t48 19t46.5 -19t18.5 -47t-19 -48t-46 -20q-28 0 -48 20 t-20 48zM113 422q0 28 19.5 46.5t47.5 18.5t47 -18.5t19 -46.5t-19 -48t-47 -20t-47.5 20t-19.5 48zM1079 543q0 27 20 46t48 19t46.5 -18.5t18.5 -46.5t-19 -48t-46 -20q-28 0 -48 20t-20 48zM113 664q0 28 19.5 46.5t47.5 18.5t47 -18.5t19 -46.5t-19 -48t-47 -20 t-47.5 20t-19.5 48zM1079 784q0 28 20 47t48 19t46.5 -19t18.5 -47t-18.5 -47.5t-46.5 -19.5t-48 19.5t-20 47.5zM233 905q0 28 20 47t48 19t47 -19t19 -47t-19 -47.5t-47 -19.5t-48 19.5t-20 47.5zM958 1026q0 28 20 47t48 19t47 -19t19 -47t-19 -48t-47 -20t-48 20t-20 48 zM717 1026q0 28 19.5 47t47.5 19t47 -19t19 -47t-19 -48t-47 -20t-47.5 20t-19.5 48zM475 1026q0 28 20 47t48 19t46.5 -19t18.5 -47t-19 -48t-46 -20q-28 0 -48 20t-20 48zM596 1147q0 27 20 46t48 19t46.5 -18.5t18.5 -46.5t-19 -48t-46 -20q-28 0 -48 20t-20 48z M717 1268q0 28 19.5 46.5t47.5 18.5t47 -18.5t19 -46.5t-19 -48t-47 -20t-47.5 20t-19.5 48zM475 1268q0 27 20 46t48 19t46.5 -18.5t18.5 -46.5t-19 -48t-46 -20q-28 0 -48 20t-20 48z" />
<glyph unicode="&#xe6;" horiz-adv-x="2295" d="M475 1026q0 28 20 47t48 19t46.5 -19t18.5 -47t-19 -48t-46 -20q-28 0 -48 20t-20 48zM1683 59q0 28 20 47t48 19t47 -19t19 -47t-19 -47.5t-47 -19.5t-48 19.5t-20 47.5zM1442 59q0 28 19.5 47t47.5 19t47 -19t19 -47t-19 -47.5t-47 -19.5t-47.5 19.5t-19.5 47.5z M717 59q0 28 19.5 47t47.5 19t47 -19t19 -47t-19 -47.5t-47 -19.5t-47.5 19.5t-19.5 47.5zM475 59q0 28 20 47t48 19t46.5 -19t18.5 -47t-18.5 -47.5t-46.5 -19.5t-48 19.5t-20 47.5zM1925 180q0 28 20 47t48 19t46.5 -19t18.5 -47t-18.5 -47.5t-46.5 -19.5t-48 19.5 t-20 47.5zM1200 180q0 28 20 47t48 19t46.5 -19t18.5 -47t-18.5 -47.5t-46.5 -19.5t-48 19.5t-20 47.5zM233 180q0 28 20 47t48 19t47 -19t19 -47t-19 -47.5t-47 -19.5t-48 19.5t-20 47.5zM958 301q0 28 20 47t48 19t47 -19t19 -47t-19 -48t-47 -20t-48 20t-20 48zM113 422 q0 28 19.5 46.5t47.5 18.5t47 -18.5t19 -46.5t-19 -48t-47 -20t-47.5 20t-19.5 48zM1804 543q0 27 20 46t48 19t46.5 -18.5t18.5 -46.5t-19 -48t-46 -20q-28 0 -48 20t-20 48zM1563 543q0 28 19.5 46.5t47.5 18.5t47 -18.5t19 -46.5t-19 -48t-47 -20t-47.5 20t-19.5 48z M1321 543q0 27 20 46t48 19t46.5 -18.5t18.5 -46.5t-19 -48t-46 -20q-28 0 -48 20t-20 48zM2046 664q0 27 20 46t48 19t46.5 -18.5t18.5 -46.5t-19 -48t-46 -20q-28 0 -48 20t-20 48zM1079 664q0 27 20 46t48 19t46.5 -18.5t18.5 -46.5t-19 -48t-46 -20q-28 0 -48 20t-20 48 zM113 664q0 28 19.5 46.5t47.5 18.5t47 -18.5t19 -46.5t-19 -48t-47 -20t-47.5 20t-19.5 48zM1925 905q0 28 20 47t48 19t46.5 -19t18.5 -47t-18.5 -47.5t-46.5 -19.5t-48 19.5t-20 47.5zM1200 905q0 28 20 47t48 19t46.5 -19t18.5 -47t-18.5 -47.5t-46.5 -19.5t-48 19.5 t-20 47.5zM233 905q0 28 20 47t48 19t47 -19t19 -47t-19 -47.5t-47 -19.5t-48 19.5t-20 47.5zM1683 1026q0 28 20 47t48 19t47 -19t19 -47t-19 -48t-47 -20t-48 20t-20 48zM1442 1026q0 28 19.5 47t47.5 19t47 -19t19 -47t-19 -48t-47 -20t-47.5 20t-19.5 48zM958 1026 q0 28 20 47t48 19t47 -19t19 -47t-19 -48t-47 -20t-48 20t-20 48zM717 1026q0 28 19.5 47t47.5 19t47 -19t19 -47t-19 -48t-47 -20t-47.5 20t-19.5 48z" />
<glyph unicode="&#xe7;" horiz-adv-x="1208" d="M475 1026q0 28 20 47t48 19t46.5 -19t18.5 -47t-19 -48t-46 -20q-28 0 -48 20t-20 48zM354 -303q0 27 20 46t48 19t46.5 -18.5t18.5 -46.5t-19 -48t-46 -20q-28 0 -48 20t-20 48zM596 -182q0 27 20 46t48 19t46.5 -18.5t18.5 -46.5t-19 -48t-46 -20q-28 0 -48 20t-20 48z M717 59q0 28 19.5 47t47.5 19t47 -19t19 -47t-19 -47.5t-47 -19.5t-47.5 19.5t-19.5 47.5zM475 59q0 28 20 47t48 19t46.5 -19t18.5 -47t-18.5 -47.5t-46.5 -19.5t-48 19.5t-20 47.5zM958 180q0 28 20 47t48 19t47 -19t19 -47t-19 -47.5t-47 -19.5t-48 19.5t-20 47.5z M233 180q0 28 20 47t48 19t47 -19t19 -47t-19 -47.5t-47 -19.5t-48 19.5t-20 47.5zM113 422q0 28 19.5 46.5t47.5 18.5t47 -18.5t19 -46.5t-19 -48t-47 -20t-47.5 20t-19.5 48zM113 664q0 28 19.5 46.5t47.5 18.5t47 -18.5t19 -46.5t-19 -48t-47 -20t-47.5 20t-19.5 48z M958 905q0 28 20 47t48 19t47 -19t19 -47t-19 -47.5t-47 -19.5t-48 19.5t-20 47.5zM233 905q0 28 20 47t48 19t47 -19t19 -47t-19 -47.5t-47 -19.5t-48 19.5t-20 47.5zM717 1026q0 28 19.5 47t47.5 19t47 -19t19 -47t-19 -48t-47 -20t-47.5 20t-19.5 48z" />
<glyph unicode="&#xe8;" d="M475 1389q0 27 20 46t48 19t46.5 -18.5t18.5 -46.5t-19 -48t-46 -20q-28 0 -48 20t-20 48zM717 59q0 28 19.5 47t47.5 19t47 -19t19 -47t-19 -47.5t-47 -19.5t-47.5 19.5t-19.5 47.5zM475 59q0 28 20 47t48 19t46.5 -19t18.5 -47t-18.5 -47.5t-46.5 -19.5t-48 19.5 t-20 47.5zM958 180q0 28 20 47t48 19t47 -19t19 -47t-19 -47.5t-47 -19.5t-48 19.5t-20 47.5zM233 180q0 28 20 47t48 19t47 -19t19 -47t-19 -47.5t-47 -19.5t-48 19.5t-20 47.5zM113 422q0 28 19.5 46.5t47.5 18.5t47 -18.5t19 -46.5t-19 -48t-47 -20t-47.5 20t-19.5 48z M838 543q0 28 19.5 46.5t47.5 18.5t47 -18.5t19 -46.5t-19 -48t-47 -20t-47.5 20t-19.5 48zM596 543q0 27 20 46t48 19t46.5 -18.5t18.5 -46.5t-19 -48t-46 -20q-28 0 -48 20t-20 48zM354 543q0 27 20 46t48 19t46.5 -18.5t18.5 -46.5t-19 -48t-46 -20q-28 0 -48 20t-20 48z M1079 664q0 27 20 46t48 19t46.5 -18.5t18.5 -46.5t-19 -48t-46 -20q-28 0 -48 20t-20 48zM113 664q0 28 19.5 46.5t47.5 18.5t47 -18.5t19 -46.5t-19 -48t-47 -20t-47.5 20t-19.5 48zM958 905q0 28 20 47t48 19t47 -19t19 -47t-19 -47.5t-47 -19.5t-48 19.5t-20 47.5z M233 905q0 28 20 47t48 19t47 -19t19 -47t-19 -47.5t-47 -19.5t-48 19.5t-20 47.5zM717 1026q0 28 19.5 47t47.5 19t47 -19t19 -47t-19 -48t-47 -20t-47.5 20t-19.5 48zM475 1026q0 28 20 47t48 19t46.5 -19t18.5 -47t-19 -48t-46 -20q-28 0 -48 20t-20 48zM717 1268 q0 28 19.5 46.5t47.5 18.5t47 -18.5t19 -46.5t-19 -48t-47 -20t-47.5 20t-19.5 48z" />
<glyph unicode="&#xe9;" d="M717 1389q0 28 19.5 46.5t47.5 18.5t47 -18.5t19 -46.5t-19 -48t-47 -20t-47.5 20t-19.5 48zM717 59q0 28 19.5 47t47.5 19t47 -19t19 -47t-19 -47.5t-47 -19.5t-47.5 19.5t-19.5 47.5zM475 59q0 28 20 47t48 19t46.5 -19t18.5 -47t-18.5 -47.5t-46.5 -19.5t-48 19.5 t-20 47.5zM958 180q0 28 20 47t48 19t47 -19t19 -47t-19 -47.5t-47 -19.5t-48 19.5t-20 47.5zM233 180q0 28 20 47t48 19t47 -19t19 -47t-19 -47.5t-47 -19.5t-48 19.5t-20 47.5zM113 422q0 28 19.5 46.5t47.5 18.5t47 -18.5t19 -46.5t-19 -48t-47 -20t-47.5 20t-19.5 48z M838 543q0 28 19.5 46.5t47.5 18.5t47 -18.5t19 -46.5t-19 -48t-47 -20t-47.5 20t-19.5 48zM596 543q0 27 20 46t48 19t46.5 -18.5t18.5 -46.5t-19 -48t-46 -20q-28 0 -48 20t-20 48zM354 543q0 27 20 46t48 19t46.5 -18.5t18.5 -46.5t-19 -48t-46 -20q-28 0 -48 20t-20 48z M1079 664q0 27 20 46t48 19t46.5 -18.5t18.5 -46.5t-19 -48t-46 -20q-28 0 -48 20t-20 48zM113 664q0 28 19.5 46.5t47.5 18.5t47 -18.5t19 -46.5t-19 -48t-47 -20t-47.5 20t-19.5 48zM958 905q0 28 20 47t48 19t47 -19t19 -47t-19 -47.5t-47 -19.5t-48 19.5t-20 47.5z M233 905q0 28 20 47t48 19t47 -19t19 -47t-19 -47.5t-47 -19.5t-48 19.5t-20 47.5zM717 1026q0 28 19.5 47t47.5 19t47 -19t19 -47t-19 -48t-47 -20t-47.5 20t-19.5 48zM475 1026q0 28 20 47t48 19t46.5 -19t18.5 -47t-19 -48t-46 -20q-28 0 -48 20t-20 48zM475 1268 q0 27 20 46t48 19t46.5 -18.5t18.5 -46.5t-19 -48t-46 -20q-28 0 -48 20t-20 48z" />
<glyph unicode="&#xea;" d="M596 1389q0 27 20 46t48 19t46.5 -18.5t18.5 -46.5t-19 -48t-46 -20q-28 0 -48 20t-20 48zM717 59q0 28 19.5 47t47.5 19t47 -19t19 -47t-19 -47.5t-47 -19.5t-47.5 19.5t-19.5 47.5zM475 59q0 28 20 47t48 19t46.5 -19t18.5 -47t-18.5 -47.5t-46.5 -19.5t-48 19.5 t-20 47.5zM958 180q0 28 20 47t48 19t47 -19t19 -47t-19 -47.5t-47 -19.5t-48 19.5t-20 47.5zM233 180q0 28 20 47t48 19t47 -19t19 -47t-19 -47.5t-47 -19.5t-48 19.5t-20 47.5zM113 422q0 28 19.5 46.5t47.5 18.5t47 -18.5t19 -46.5t-19 -48t-47 -20t-47.5 20t-19.5 48z M838 543q0 28 19.5 46.5t47.5 18.5t47 -18.5t19 -46.5t-19 -48t-47 -20t-47.5 20t-19.5 48zM596 543q0 27 20 46t48 19t46.5 -18.5t18.5 -46.5t-19 -48t-46 -20q-28 0 -48 20t-20 48zM354 543q0 27 20 46t48 19t46.5 -18.5t18.5 -46.5t-19 -48t-46 -20q-28 0 -48 20t-20 48z M1079 664q0 27 20 46t48 19t46.5 -18.5t18.5 -46.5t-19 -48t-46 -20q-28 0 -48 20t-20 48zM113 664q0 28 19.5 46.5t47.5 18.5t47 -18.5t19 -46.5t-19 -48t-47 -20t-47.5 20t-19.5 48zM958 905q0 28 20 47t48 19t47 -19t19 -47t-19 -47.5t-47 -19.5t-48 19.5t-20 47.5z M233 905q0 28 20 47t48 19t47 -19t19 -47t-19 -47.5t-47 -19.5t-48 19.5t-20 47.5zM717 1026q0 28 19.5 47t47.5 19t47 -19t19 -47t-19 -48t-47 -20t-47.5 20t-19.5 48zM475 1026q0 28 20 47t48 19t46.5 -19t18.5 -47t-19 -48t-46 -20q-28 0 -48 20t-20 48zM838 1268 q0 28 19.5 46.5t47.5 18.5t47 -18.5t19 -46.5t-19 -48t-47 -20t-47.5 20t-19.5 48zM354 1268q0 27 20 46t48 19t46.5 -18.5t18.5 -46.5t-19 -48t-46 -20q-28 0 -48 20t-20 48z" />
<glyph unicode="&#xeb;" d="M475 1389q0 27 20 46t48 19t46.5 -18.5t18.5 -46.5t-19 -48t-46 -20q-28 0 -48 20t-20 48zM717 59q0 28 19.5 47t47.5 19t47 -19t19 -47t-19 -47.5t-47 -19.5t-47.5 19.5t-19.5 47.5zM475 59q0 28 20 47t48 19t46.5 -19t18.5 -47t-18.5 -47.5t-46.5 -19.5t-48 19.5 t-20 47.5zM958 180q0 28 20 47t48 19t47 -19t19 -47t-19 -47.5t-47 -19.5t-48 19.5t-20 47.5zM233 180q0 28 20 47t48 19t47 -19t19 -47t-19 -47.5t-47 -19.5t-48 19.5t-20 47.5zM113 422q0 28 19.5 46.5t47.5 18.5t47 -18.5t19 -46.5t-19 -48t-47 -20t-47.5 20t-19.5 48z M838 543q0 28 19.5 46.5t47.5 18.5t47 -18.5t19 -46.5t-19 -48t-47 -20t-47.5 20t-19.5 48zM596 543q0 27 20 46t48 19t46.5 -18.5t18.5 -46.5t-19 -48t-46 -20q-28 0 -48 20t-20 48zM354 543q0 27 20 46t48 19t46.5 -18.5t18.5 -46.5t-19 -48t-46 -20q-28 0 -48 20t-20 48z M1079 664q0 27 20 46t48 19t46.5 -18.5t18.5 -46.5t-19 -48t-46 -20q-28 0 -48 20t-20 48zM113 664q0 28 19.5 46.5t47.5 18.5t47 -18.5t19 -46.5t-19 -48t-47 -20t-47.5 20t-19.5 48zM958 905q0 28 20 47t48 19t47 -19t19 -47t-19 -47.5t-47 -19.5t-48 19.5t-20 47.5z M233 905q0 28 20 47t48 19t47 -19t19 -47t-19 -47.5t-47 -19.5t-48 19.5t-20 47.5zM717 1026q0 28 19.5 47t47.5 19t47 -19t19 -47t-19 -48t-47 -20t-47.5 20t-19.5 48zM475 1026q0 28 20 47t48 19t46.5 -19t18.5 -47t-19 -48t-46 -20q-28 0 -48 20t-20 48zM717 1389 q0 28 19.5 46.5t47.5 18.5t47 -18.5t19 -46.5t-19 -48t-47 -20t-47.5 20t-19.5 48z" />
<glyph unicode="&#xec;" horiz-adv-x="483" d="M113 1389q0 28 19.5 46.5t47.5 18.5t47 -18.5t19 -46.5t-19 -48t-47 -20t-47.5 20t-19.5 48zM233 59q0 28 20 47t48 19t47 -19t19 -47t-19 -47.5t-47 -19.5t-48 19.5t-20 47.5zM233 301q0 28 20 47t48 19t47 -19t19 -47t-19 -48t-47 -20t-48 20t-20 48zM233 543 q0 27 20 46t48 19t47 -18.5t19 -46.5t-19 -48t-47 -20t-48 20t-20 48zM233 784q0 28 20 47t48 19t47 -19t19 -47t-19 -47.5t-47 -19.5t-48 19.5t-20 47.5zM233 1026q0 28 20 47t48 19t47 -19t19 -47t-19 -48t-47 -20t-48 20t-20 48zM233 1268q0 27 20 46t48 19t47 -18.5 t19 -46.5t-19 -48t-47 -20t-48 20t-20 48z" />
<glyph unicode="&#xed;" horiz-adv-x="483" d="M233 1389q0 27 20 46t48 19t47 -18.5t19 -46.5t-19 -48t-47 -20t-48 20t-20 48zM113 59q0 28 19.5 47t47.5 19t47 -19t19 -47t-19 -47.5t-47 -19.5t-47.5 19.5t-19.5 47.5zM113 301q0 28 19.5 47t47.5 19t47 -19t19 -47t-19 -48t-47 -20t-47.5 20t-19.5 48zM113 543 q0 28 19.5 46.5t47.5 18.5t47 -18.5t19 -46.5t-19 -48t-47 -20t-47.5 20t-19.5 48zM113 784q0 28 19.5 47t47.5 19t47 -19t19 -47t-19 -47.5t-47 -19.5t-47.5 19.5t-19.5 47.5zM113 1026q0 28 19.5 47t47.5 19t47 -19t19 -47t-19 -48t-47 -20t-47.5 20t-19.5 48zM113 1268 q0 28 19.5 46.5t47.5 18.5t47 -18.5t19 -46.5t-19 -48t-47 -20t-47.5 20t-19.5 48z" />
<glyph unicode="&#xee;" horiz-adv-x="604" d="M233 1389q0 27 20 46t48 19t47 -18.5t19 -46.5t-19 -48t-47 -20t-48 20t-20 48zM233 59q0 28 20 47t48 19t47 -19t19 -47t-19 -47.5t-47 -19.5t-48 19.5t-20 47.5zM233 301q0 28 20 47t48 19t47 -19t19 -47t-19 -48t-47 -20t-48 20t-20 48zM233 543q0 27 20 46t48 19 t47 -18.5t19 -46.5t-19 -48t-47 -20t-48 20t-20 48zM233 784q0 28 20 47t48 19t47 -19t19 -47t-19 -47.5t-47 -19.5t-48 19.5t-20 47.5zM233 1026q0 28 20 47t48 19t47 -19t19 -47t-19 -48t-47 -20t-48 20t-20 48zM354 1268q0 27 20 46t48 19t46.5 -18.5t18.5 -46.5t-19 -48 t-46 -20q-28 0 -48 20t-20 48zM113 1268q0 28 19.5 46.5t47.5 18.5t47 -18.5t19 -46.5t-19 -48t-47 -20t-47.5 20t-19.5 48z" />
<glyph unicode="&#xef;" horiz-adv-x="362" d="M-8 1389q0 28 19.5 46.5t47.5 18.5t47 -18.5t19 -46.5t-19 -48t-47 -20t-47.5 20t-19.5 48zM113 59q0 28 19.5 47t47.5 19t47 -19t19 -47t-19 -47.5t-47 -19.5t-47.5 19.5t-19.5 47.5zM113 301q0 28 19.5 47t47.5 19t47 -19t19 -47t-19 -48t-47 -20t-47.5 20t-19.5 48z M113 543q0 28 19.5 46.5t47.5 18.5t47 -18.5t19 -46.5t-19 -48t-47 -20t-47.5 20t-19.5 48zM113 784q0 28 19.5 47t47.5 19t47 -19t19 -47t-19 -47.5t-47 -19.5t-47.5 19.5t-19.5 47.5zM113 1026q0 28 19.5 47t47.5 19t47 -19t19 -47t-19 -48t-47 -20t-47.5 20t-19.5 48z M233 1389q0 27 20 46t48 19t47 -18.5t19 -46.5t-19 -48t-47 -20t-48 20t-20 48z" />
<glyph unicode="&#xf0;" d="M1200 1268q0 27 20 46t48 19t46.5 -18.5t18.5 -46.5t-19 -48t-46 -20q-28 0 -48 20t-20 48zM838 59q0 28 19.5 47t47.5 19t47 -19t19 -47t-19 -47.5t-47 -19.5t-47.5 19.5t-19.5 47.5zM596 59q0 28 20 47t48 19t46.5 -19t18.5 -47t-18.5 -47.5t-46.5 -19.5t-48 19.5 t-20 47.5zM354 59q0 28 20 47t48 19t46.5 -19t18.5 -47t-18.5 -47.5t-46.5 -19.5t-48 19.5t-20 47.5zM1079 301q0 28 20 47t48 19t46.5 -19t18.5 -47t-19 -48t-46 -20q-28 0 -48 20t-20 48zM113 301q0 28 19.5 47t47.5 19t47 -19t19 -47t-19 -48t-47 -20t-47.5 20t-19.5 48z M1079 543q0 27 20 46t48 19t46.5 -18.5t18.5 -46.5t-19 -48t-46 -20q-28 0 -48 20t-20 48zM838 543q0 28 19.5 46.5t47.5 18.5t47 -18.5t19 -46.5t-19 -48t-47 -20t-47.5 20t-19.5 48zM596 543q0 27 20 46t48 19t46.5 -18.5t18.5 -46.5t-19 -48t-46 -20q-28 0 -48 20t-20 48 zM354 543q0 27 20 46t48 19t46.5 -18.5t18.5 -46.5t-19 -48t-46 -20q-28 0 -48 20t-20 48zM958 784q0 28 20 47t48 19t47 -19t19 -47t-19 -47.5t-47 -19.5t-48 19.5t-20 47.5zM717 784q0 28 19.5 47t47.5 19t47 -19t19 -47t-19 -47.5t-47 -19.5t-47.5 19.5t-19.5 47.5z M958 1026q0 28 20 47t48 19t47 -19t19 -47t-19 -48t-47 -20t-48 20t-20 48zM717 1026q0 28 19.5 47t47.5 19t47 -19t19 -47t-19 -48t-47 -20t-47.5 20t-19.5 48zM475 1026q0 28 20 47t48 19t46.5 -19t18.5 -47t-19 -48t-46 -20q-28 0 -48 20t-20 48z" />
<glyph unicode="&#xf1;" d="M596 1389q0 27 20 46t48 19t46.5 -18.5t18.5 -46.5t-19 -48t-46 -20q-28 0 -48 20t-20 48zM1079 59q0 28 20 47t48 19t46.5 -19t18.5 -47t-18.5 -47.5t-46.5 -19.5t-48 19.5t-20 47.5zM113 59q0 28 19.5 47t47.5 19t47 -19t19 -47t-19 -47.5t-47 -19.5t-47.5 19.5 t-19.5 47.5zM1079 301q0 28 20 47t48 19t46.5 -19t18.5 -47t-19 -48t-46 -20q-28 0 -48 20t-20 48zM113 301q0 28 19.5 47t47.5 19t47 -19t19 -47t-19 -48t-47 -20t-47.5 20t-19.5 48zM1079 543q0 27 20 46t48 19t46.5 -18.5t18.5 -46.5t-19 -48t-46 -20q-28 0 -48 20 t-20 48zM113 543q0 28 19.5 46.5t47.5 18.5t47 -18.5t19 -46.5t-19 -48t-47 -20t-47.5 20t-19.5 48zM1079 784q0 28 20 47t48 19t46.5 -19t18.5 -47t-18.5 -47.5t-46.5 -19.5t-48 19.5t-20 47.5zM113 784q0 28 19.5 47t47.5 19t47 -19t19 -47t-19 -47.5t-47 -19.5 t-47.5 19.5t-19.5 47.5zM838 1026q0 28 19.5 47t47.5 19t47 -19t19 -47t-19 -48t-47 -20t-47.5 20t-19.5 48zM596 1026q0 28 20 47t48 19t46.5 -19t18.5 -47t-19 -48t-46 -20q-28 0 -48 20t-20 48zM354 1026q0 28 20 47t48 19t46.5 -19t18.5 -47t-19 -48t-46 -20 q-28 0 -48 20t-20 48zM717 1268q0 28 19.5 46.5t47.5 18.5t47 -18.5t19 -46.5t-19 -48t-47 -20t-47.5 20t-19.5 48zM475 1268q0 27 20 46t48 19t46.5 -18.5t18.5 -46.5t-19 -48t-46 -20q-28 0 -48 20t-20 48zM838 1389q0 28 19.5 46.5t47.5 18.5t47 -18.5t19 -46.5t-19 -48 t-47 -20t-47.5 20t-19.5 48z" />
<glyph unicode="&#xf2;" d="M475 1389q0 27 20 46t48 19t46.5 -18.5t18.5 -46.5t-19 -48t-46 -20q-28 0 -48 20t-20 48zM717 59q0 28 19.5 47t47.5 19t47 -19t19 -47t-19 -47.5t-47 -19.5t-47.5 19.5t-19.5 47.5zM475 59q0 28 20 47t48 19t46.5 -19t18.5 -47t-18.5 -47.5t-46.5 -19.5t-48 19.5 t-20 47.5zM958 180q0 28 20 47t48 19t47 -19t19 -47t-19 -47.5t-47 -19.5t-48 19.5t-20 47.5zM233 180q0 28 20 47t48 19t47 -19t19 -47t-19 -47.5t-47 -19.5t-48 19.5t-20 47.5zM1079 422q0 27 20 46t48 19t46.5 -18.5t18.5 -46.5t-19 -48t-46 -20q-28 0 -48 20t-20 48z M113 422q0 28 19.5 46.5t47.5 18.5t47 -18.5t19 -46.5t-19 -48t-47 -20t-47.5 20t-19.5 48zM1079 664q0 27 20 46t48 19t46.5 -18.5t18.5 -46.5t-19 -48t-46 -20q-28 0 -48 20t-20 48zM113 664q0 28 19.5 46.5t47.5 18.5t47 -18.5t19 -46.5t-19 -48t-47 -20t-47.5 20 t-19.5 48zM958 905q0 28 20 47t48 19t47 -19t19 -47t-19 -47.5t-47 -19.5t-48 19.5t-20 47.5zM233 905q0 28 20 47t48 19t47 -19t19 -47t-19 -47.5t-47 -19.5t-48 19.5t-20 47.5zM717 1026q0 28 19.5 47t47.5 19t47 -19t19 -47t-19 -48t-47 -20t-47.5 20t-19.5 48zM475 1026 q0 28 20 47t48 19t46.5 -19t18.5 -47t-19 -48t-46 -20q-28 0 -48 20t-20 48zM717 1268q0 28 19.5 46.5t47.5 18.5t47 -18.5t19 -46.5t-19 -48t-47 -20t-47.5 20t-19.5 48z" />
<glyph unicode="&#xf3;" d="M717 1389q0 28 19.5 46.5t47.5 18.5t47 -18.5t19 -46.5t-19 -48t-47 -20t-47.5 20t-19.5 48zM717 59q0 28 19.5 47t47.5 19t47 -19t19 -47t-19 -47.5t-47 -19.5t-47.5 19.5t-19.5 47.5zM475 59q0 28 20 47t48 19t46.5 -19t18.5 -47t-18.5 -47.5t-46.5 -19.5t-48 19.5 t-20 47.5zM958 180q0 28 20 47t48 19t47 -19t19 -47t-19 -47.5t-47 -19.5t-48 19.5t-20 47.5zM233 180q0 28 20 47t48 19t47 -19t19 -47t-19 -47.5t-47 -19.5t-48 19.5t-20 47.5zM1079 422q0 27 20 46t48 19t46.5 -18.5t18.5 -46.5t-19 -48t-46 -20q-28 0 -48 20t-20 48z M113 422q0 28 19.5 46.5t47.5 18.5t47 -18.5t19 -46.5t-19 -48t-47 -20t-47.5 20t-19.5 48zM1079 664q0 27 20 46t48 19t46.5 -18.5t18.5 -46.5t-19 -48t-46 -20q-28 0 -48 20t-20 48zM113 664q0 28 19.5 46.5t47.5 18.5t47 -18.5t19 -46.5t-19 -48t-47 -20t-47.5 20 t-19.5 48zM958 905q0 28 20 47t48 19t47 -19t19 -47t-19 -47.5t-47 -19.5t-48 19.5t-20 47.5zM233 905q0 28 20 47t48 19t47 -19t19 -47t-19 -47.5t-47 -19.5t-48 19.5t-20 47.5zM717 1026q0 28 19.5 47t47.5 19t47 -19t19 -47t-19 -48t-47 -20t-47.5 20t-19.5 48zM475 1026 q0 28 20 47t48 19t46.5 -19t18.5 -47t-19 -48t-46 -20q-28 0 -48 20t-20 48zM475 1268q0 27 20 46t48 19t46.5 -18.5t18.5 -46.5t-19 -48t-46 -20q-28 0 -48 20t-20 48z" />
<glyph unicode="&#xf4;" d="M596 1389q0 27 20 46t48 19t46.5 -18.5t18.5 -46.5t-19 -48t-46 -20q-28 0 -48 20t-20 48zM717 59q0 28 19.5 47t47.5 19t47 -19t19 -47t-19 -47.5t-47 -19.5t-47.5 19.5t-19.5 47.5zM475 59q0 28 20 47t48 19t46.5 -19t18.5 -47t-18.5 -47.5t-46.5 -19.5t-48 19.5 t-20 47.5zM958 180q0 28 20 47t48 19t47 -19t19 -47t-19 -47.5t-47 -19.5t-48 19.5t-20 47.5zM233 180q0 28 20 47t48 19t47 -19t19 -47t-19 -47.5t-47 -19.5t-48 19.5t-20 47.5zM1079 422q0 27 20 46t48 19t46.5 -18.5t18.5 -46.5t-19 -48t-46 -20q-28 0 -48 20t-20 48z M113 422q0 28 19.5 46.5t47.5 18.5t47 -18.5t19 -46.5t-19 -48t-47 -20t-47.5 20t-19.5 48zM1079 664q0 27 20 46t48 19t46.5 -18.5t18.5 -46.5t-19 -48t-46 -20q-28 0 -48 20t-20 48zM113 664q0 28 19.5 46.5t47.5 18.5t47 -18.5t19 -46.5t-19 -48t-47 -20t-47.5 20 t-19.5 48zM958 905q0 28 20 47t48 19t47 -19t19 -47t-19 -47.5t-47 -19.5t-48 19.5t-20 47.5zM233 905q0 28 20 47t48 19t47 -19t19 -47t-19 -47.5t-47 -19.5t-48 19.5t-20 47.5zM717 1026q0 28 19.5 47t47.5 19t47 -19t19 -47t-19 -48t-47 -20t-47.5 20t-19.5 48zM475 1026 q0 28 20 47t48 19t46.5 -19t18.5 -47t-19 -48t-46 -20q-28 0 -48 20t-20 48zM838 1268q0 28 19.5 46.5t47.5 18.5t47 -18.5t19 -46.5t-19 -48t-47 -20t-47.5 20t-19.5 48zM354 1268q0 27 20 46t48 19t46.5 -18.5t18.5 -46.5t-19 -48t-46 -20q-28 0 -48 20t-20 48z" />
<glyph unicode="&#xf5;" d="M475 1389q0 27 20 46t48 19t46.5 -18.5t18.5 -46.5t-19 -48t-46 -20q-28 0 -48 20t-20 48zM717 59q0 28 19.5 47t47.5 19t47 -19t19 -47t-19 -47.5t-47 -19.5t-47.5 19.5t-19.5 47.5zM475 59q0 28 20 47t48 19t46.5 -19t18.5 -47t-18.5 -47.5t-46.5 -19.5t-48 19.5 t-20 47.5zM958 180q0 28 20 47t48 19t47 -19t19 -47t-19 -47.5t-47 -19.5t-48 19.5t-20 47.5zM233 180q0 28 20 47t48 19t47 -19t19 -47t-19 -47.5t-47 -19.5t-48 19.5t-20 47.5zM1079 422q0 27 20 46t48 19t46.5 -18.5t18.5 -46.5t-19 -48t-46 -20q-28 0 -48 20t-20 48z M113 422q0 28 19.5 46.5t47.5 18.5t47 -18.5t19 -46.5t-19 -48t-47 -20t-47.5 20t-19.5 48zM1079 664q0 27 20 46t48 19t46.5 -18.5t18.5 -46.5t-19 -48t-46 -20q-28 0 -48 20t-20 48zM113 664q0 28 19.5 46.5t47.5 18.5t47 -18.5t19 -46.5t-19 -48t-47 -20t-47.5 20 t-19.5 48zM958 905q0 28 20 47t48 19t47 -19t19 -47t-19 -47.5t-47 -19.5t-48 19.5t-20 47.5zM233 905q0 28 20 47t48 19t47 -19t19 -47t-19 -47.5t-47 -19.5t-48 19.5t-20 47.5zM717 1026q0 28 19.5 47t47.5 19t47 -19t19 -47t-19 -48t-47 -20t-47.5 20t-19.5 48zM475 1026 q0 28 20 47t48 19t46.5 -19t18.5 -47t-19 -48t-46 -20q-28 0 -48 20t-20 48zM596 1268q0 27 20 46t48 19t46.5 -18.5t18.5 -46.5t-19 -48t-46 -20q-28 0 -48 20t-20 48zM354 1268q0 27 20 46t48 19t46.5 -18.5t18.5 -46.5t-19 -48t-46 -20q-28 0 -48 20t-20 48zM717 1389 q0 28 19.5 46.5t47.5 18.5t47 -18.5t19 -46.5t-19 -48t-47 -20t-47.5 20t-19.5 48z" />
<glyph unicode="&#xf6;" d="M475 1389q0 27 20 46t48 19t46.5 -18.5t18.5 -46.5t-19 -48t-46 -20q-28 0 -48 20t-20 48zM717 59q0 28 19.5 47t47.5 19t47 -19t19 -47t-19 -47.5t-47 -19.5t-47.5 19.5t-19.5 47.5zM475 59q0 28 20 47t48 19t46.5 -19t18.5 -47t-18.5 -47.5t-46.5 -19.5t-48 19.5 t-20 47.5zM958 180q0 28 20 47t48 19t47 -19t19 -47t-19 -47.5t-47 -19.5t-48 19.5t-20 47.5zM233 180q0 28 20 47t48 19t47 -19t19 -47t-19 -47.5t-47 -19.5t-48 19.5t-20 47.5zM1079 422q0 27 20 46t48 19t46.5 -18.5t18.5 -46.5t-19 -48t-46 -20q-28 0 -48 20t-20 48z M113 422q0 28 19.5 46.5t47.5 18.5t47 -18.5t19 -46.5t-19 -48t-47 -20t-47.5 20t-19.5 48zM1079 664q0 27 20 46t48 19t46.5 -18.5t18.5 -46.5t-19 -48t-46 -20q-28 0 -48 20t-20 48zM113 664q0 28 19.5 46.5t47.5 18.5t47 -18.5t19 -46.5t-19 -48t-47 -20t-47.5 20 t-19.5 48zM958 905q0 28 20 47t48 19t47 -19t19 -47t-19 -47.5t-47 -19.5t-48 19.5t-20 47.5zM233 905q0 28 20 47t48 19t47 -19t19 -47t-19 -47.5t-47 -19.5t-48 19.5t-20 47.5zM717 1026q0 28 19.5 47t47.5 19t47 -19t19 -47t-19 -48t-47 -20t-47.5 20t-19.5 48zM475 1026 q0 28 20 47t48 19t46.5 -19t18.5 -47t-19 -48t-46 -20q-28 0 -48 20t-20 48zM717 1389q0 28 19.5 46.5t47.5 18.5t47 -18.5t19 -46.5t-19 -48t-47 -20t-47.5 20t-19.5 48z" />
<glyph unicode="&#xf7;" horiz-adv-x="845" d="M354 905q0 28 20 47t48 19t46.5 -19t18.5 -47t-18.5 -47.5t-46.5 -19.5t-48 19.5t-20 47.5zM354 180q0 28 20 47t48 19t46.5 -19t18.5 -47t-18.5 -47.5t-46.5 -19.5t-48 19.5t-20 47.5zM596 543q0 27 20 46t48 19t46.5 -18.5t18.5 -46.5t-19 -48t-46 -20q-28 0 -48 20 t-20 48zM354 543q0 27 20 46t48 19t46.5 -18.5t18.5 -46.5t-19 -48t-46 -20q-28 0 -48 20t-20 48zM113 543q0 28 19.5 46.5t47.5 18.5t47 -18.5t19 -46.5t-19 -48t-47 -20t-47.5 20t-19.5 48z" />
<glyph unicode="&#xf8;" d="M1200 1147q0 27 20 46t48 19t46.5 -18.5t18.5 -46.5t-19 -48t-46 -20q-28 0 -48 20t-20 48zM-8 -61q0 28 19.5 46.5t47.5 18.5t47 -18.5t19 -46.5t-19 -48t-47 -20t-47.5 20t-19.5 48zM717 59q0 28 19.5 47t47.5 19t47 -19t19 -47t-19 -47.5t-47 -19.5t-47.5 19.5 t-19.5 47.5zM475 59q0 28 20 47t48 19t46.5 -19t18.5 -47t-18.5 -47.5t-46.5 -19.5t-48 19.5t-20 47.5zM958 180q0 28 20 47t48 19t47 -19t19 -47t-19 -47.5t-47 -19.5t-48 19.5t-20 47.5zM233 180q0 28 20 47t48 19t47 -19t19 -47t-19 -47.5t-47 -19.5t-48 19.5t-20 47.5z M1079 422q0 27 20 46t48 19t46.5 -18.5t18.5 -46.5t-19 -48t-46 -20q-28 0 -48 20t-20 48zM475 422q0 27 20 46t48 19t46.5 -18.5t18.5 -46.5t-19 -48t-46 -20q-28 0 -48 20t-20 48zM113 422q0 28 19.5 46.5t47.5 18.5t47 -18.5t19 -46.5t-19 -48t-47 -20t-47.5 20t-19.5 48 zM1079 664q0 27 20 46t48 19t46.5 -18.5t18.5 -46.5t-19 -48t-46 -20q-28 0 -48 20t-20 48zM717 664q0 28 19.5 46.5t47.5 18.5t47 -18.5t19 -46.5t-19 -48t-47 -20t-47.5 20t-19.5 48zM113 664q0 28 19.5 46.5t47.5 18.5t47 -18.5t19 -46.5t-19 -48t-47 -20t-47.5 20 t-19.5 48zM958 905q0 28 20 47t48 19t47 -19t19 -47t-19 -47.5t-47 -19.5t-48 19.5t-20 47.5zM233 905q0 28 20 47t48 19t47 -19t19 -47t-19 -47.5t-47 -19.5t-48 19.5t-20 47.5zM717 1026q0 28 19.5 47t47.5 19t47 -19t19 -47t-19 -48t-47 -20t-47.5 20t-19.5 48zM475 1026 q0 28 20 47t48 19t46.5 -19t18.5 -47t-19 -48t-46 -20q-28 0 -48 20t-20 48z" />
<glyph unicode="&#xf9;" d="M475 1389q0 27 20 46t48 19t46.5 -18.5t18.5 -46.5t-19 -48t-46 -20q-28 0 -48 20t-20 48zM838 59q0 28 19.5 47t47.5 19t47 -19t19 -47t-19 -47.5t-47 -19.5t-47.5 19.5t-19.5 47.5zM596 59q0 28 20 47t48 19t46.5 -19t18.5 -47t-18.5 -47.5t-46.5 -19.5t-48 19.5 t-20 47.5zM354 59q0 28 20 47t48 19t46.5 -19t18.5 -47t-18.5 -47.5t-46.5 -19.5t-48 19.5t-20 47.5zM1079 301q0 28 20 47t48 19t46.5 -19t18.5 -47t-19 -48t-46 -20q-28 0 -48 20t-20 48zM113 301q0 28 19.5 47t47.5 19t47 -19t19 -47t-19 -48t-47 -20t-47.5 20t-19.5 48z M1079 543q0 27 20 46t48 19t46.5 -18.5t18.5 -46.5t-19 -48t-46 -20q-28 0 -48 20t-20 48zM113 543q0 28 19.5 46.5t47.5 18.5t47 -18.5t19 -46.5t-19 -48t-47 -20t-47.5 20t-19.5 48zM1079 784q0 28 20 47t48 19t46.5 -19t18.5 -47t-18.5 -47.5t-46.5 -19.5t-48 19.5 t-20 47.5zM113 784q0 28 19.5 47t47.5 19t47 -19t19 -47t-19 -47.5t-47 -19.5t-47.5 19.5t-19.5 47.5zM1079 1026q0 28 20 47t48 19t46.5 -19t18.5 -47t-19 -48t-46 -20q-28 0 -48 20t-20 48zM113 1026q0 28 19.5 47t47.5 19t47 -19t19 -47t-19 -48t-47 -20t-47.5 20 t-19.5 48zM717 1268q0 28 19.5 46.5t47.5 18.5t47 -18.5t19 -46.5t-19 -48t-47 -20t-47.5 20t-19.5 48z" />
<glyph unicode="&#xfa;" d="M717 1389q0 28 19.5 46.5t47.5 18.5t47 -18.5t19 -46.5t-19 -48t-47 -20t-47.5 20t-19.5 48zM838 59q0 28 19.5 47t47.5 19t47 -19t19 -47t-19 -47.5t-47 -19.5t-47.5 19.5t-19.5 47.5zM596 59q0 28 20 47t48 19t46.5 -19t18.5 -47t-18.5 -47.5t-46.5 -19.5t-48 19.5 t-20 47.5zM354 59q0 28 20 47t48 19t46.5 -19t18.5 -47t-18.5 -47.5t-46.5 -19.5t-48 19.5t-20 47.5zM1079 301q0 28 20 47t48 19t46.5 -19t18.5 -47t-19 -48t-46 -20q-28 0 -48 20t-20 48zM113 301q0 28 19.5 47t47.5 19t47 -19t19 -47t-19 -48t-47 -20t-47.5 20t-19.5 48z M1079 543q0 27 20 46t48 19t46.5 -18.5t18.5 -46.5t-19 -48t-46 -20q-28 0 -48 20t-20 48zM113 543q0 28 19.5 46.5t47.5 18.5t47 -18.5t19 -46.5t-19 -48t-47 -20t-47.5 20t-19.5 48zM1079 784q0 28 20 47t48 19t46.5 -19t18.5 -47t-18.5 -47.5t-46.5 -19.5t-48 19.5 t-20 47.5zM113 784q0 28 19.5 47t47.5 19t47 -19t19 -47t-19 -47.5t-47 -19.5t-47.5 19.5t-19.5 47.5zM1079 1026q0 28 20 47t48 19t46.5 -19t18.5 -47t-19 -48t-46 -20q-28 0 -48 20t-20 48zM113 1026q0 28 19.5 47t47.5 19t47 -19t19 -47t-19 -48t-47 -20t-47.5 20 t-19.5 48zM475 1268q0 27 20 46t48 19t46.5 -18.5t18.5 -46.5t-19 -48t-46 -20q-28 0 -48 20t-20 48z" />
<glyph unicode="&#xfb;" d="M596 1389q0 27 20 46t48 19t46.5 -18.5t18.5 -46.5t-19 -48t-46 -20q-28 0 -48 20t-20 48zM838 59q0 28 19.5 47t47.5 19t47 -19t19 -47t-19 -47.5t-47 -19.5t-47.5 19.5t-19.5 47.5zM596 59q0 28 20 47t48 19t46.5 -19t18.5 -47t-18.5 -47.5t-46.5 -19.5t-48 19.5 t-20 47.5zM354 59q0 28 20 47t48 19t46.5 -19t18.5 -47t-18.5 -47.5t-46.5 -19.5t-48 19.5t-20 47.5zM1079 301q0 28 20 47t48 19t46.5 -19t18.5 -47t-19 -48t-46 -20q-28 0 -48 20t-20 48zM113 301q0 28 19.5 47t47.5 19t47 -19t19 -47t-19 -48t-47 -20t-47.5 20t-19.5 48z M1079 543q0 27 20 46t48 19t46.5 -18.5t18.5 -46.5t-19 -48t-46 -20q-28 0 -48 20t-20 48zM113 543q0 28 19.5 46.5t47.5 18.5t47 -18.5t19 -46.5t-19 -48t-47 -20t-47.5 20t-19.5 48zM1079 784q0 28 20 47t48 19t46.5 -19t18.5 -47t-18.5 -47.5t-46.5 -19.5t-48 19.5 t-20 47.5zM113 784q0 28 19.5 47t47.5 19t47 -19t19 -47t-19 -47.5t-47 -19.5t-47.5 19.5t-19.5 47.5zM1079 1026q0 28 20 47t48 19t46.5 -19t18.5 -47t-19 -48t-46 -20q-28 0 -48 20t-20 48zM113 1026q0 28 19.5 47t47.5 19t47 -19t19 -47t-19 -48t-47 -20t-47.5 20 t-19.5 48zM717 1268q0 28 19.5 46.5t47.5 18.5t47 -18.5t19 -46.5t-19 -48t-47 -20t-47.5 20t-19.5 48zM475 1268q0 27 20 46t48 19t46.5 -18.5t18.5 -46.5t-19 -48t-46 -20q-28 0 -48 20t-20 48z" />
<glyph unicode="&#xfc;" d="M475 1389q0 27 20 46t48 19t46.5 -18.5t18.5 -46.5t-19 -48t-46 -20q-28 0 -48 20t-20 48zM838 59q0 28 19.5 47t47.5 19t47 -19t19 -47t-19 -47.5t-47 -19.5t-47.5 19.5t-19.5 47.5zM596 59q0 28 20 47t48 19t46.5 -19t18.5 -47t-18.5 -47.5t-46.5 -19.5t-48 19.5 t-20 47.5zM354 59q0 28 20 47t48 19t46.5 -19t18.5 -47t-18.5 -47.5t-46.5 -19.5t-48 19.5t-20 47.5zM1079 301q0 28 20 47t48 19t46.5 -19t18.5 -47t-19 -48t-46 -20q-28 0 -48 20t-20 48zM113 301q0 28 19.5 47t47.5 19t47 -19t19 -47t-19 -48t-47 -20t-47.5 20t-19.5 48z M1079 543q0 27 20 46t48 19t46.5 -18.5t18.5 -46.5t-19 -48t-46 -20q-28 0 -48 20t-20 48zM113 543q0 28 19.5 46.5t47.5 18.5t47 -18.5t19 -46.5t-19 -48t-47 -20t-47.5 20t-19.5 48zM1079 784q0 28 20 47t48 19t46.5 -19t18.5 -47t-18.5 -47.5t-46.5 -19.5t-48 19.5 t-20 47.5zM113 784q0 28 19.5 47t47.5 19t47 -19t19 -47t-19 -47.5t-47 -19.5t-47.5 19.5t-19.5 47.5zM1079 1026q0 28 20 47t48 19t46.5 -19t18.5 -47t-19 -48t-46 -20q-28 0 -48 20t-20 48zM113 1026q0 28 19.5 47t47.5 19t47 -19t19 -47t-19 -48t-47 -20t-47.5 20 t-19.5 48zM717 1389q0 28 19.5 46.5t47.5 18.5t47 -18.5t19 -46.5t-19 -48t-47 -20t-47.5 20t-19.5 48z" />
<glyph unicode="&#xfd;" d="M717 1389q0 28 19.5 46.5t47.5 18.5t47 -18.5t19 -46.5t-19 -48t-47 -20t-47.5 20t-19.5 48zM596 -182q0 27 20 46t48 19t46.5 -18.5t18.5 -46.5t-19 -48t-46 -20q-28 0 -48 20t-20 48zM596 59q0 28 20 47t48 19t46.5 -19t18.5 -47t-18.5 -47.5t-46.5 -19.5t-48 19.5 t-20 47.5zM838 301q0 28 19.5 47t47.5 19t47 -19t19 -47t-19 -48t-47 -20t-47.5 20t-19.5 48zM354 301q0 28 20 47t48 19t46.5 -19t18.5 -47t-19 -48t-46 -20q-28 0 -48 20t-20 48zM1079 543q0 27 20 46t48 19t46.5 -18.5t18.5 -46.5t-19 -48t-46 -20q-28 0 -48 20t-20 48z M113 543q0 28 19.5 46.5t47.5 18.5t47 -18.5t19 -46.5t-19 -48t-47 -20t-47.5 20t-19.5 48zM1079 784q0 28 20 47t48 19t46.5 -19t18.5 -47t-18.5 -47.5t-46.5 -19.5t-48 19.5t-20 47.5zM113 784q0 28 19.5 47t47.5 19t47 -19t19 -47t-19 -47.5t-47 -19.5t-47.5 19.5 t-19.5 47.5zM1079 1026q0 28 20 47t48 19t46.5 -19t18.5 -47t-19 -48t-46 -20q-28 0 -48 20t-20 48zM113 1026q0 28 19.5 47t47.5 19t47 -19t19 -47t-19 -48t-47 -20t-47.5 20t-19.5 48zM475 1268q0 27 20 46t48 19t46.5 -18.5t18.5 -46.5t-19 -48t-46 -20q-28 0 -48 20 t-20 48z" />
<glyph unicode="&#xfe;" d="M113 1389q0 28 19.5 46.5t47.5 18.5t47 -18.5t19 -46.5t-19 -48t-47 -20t-47.5 20t-19.5 48zM113 -303q0 28 19.5 46.5t47.5 18.5t47 -18.5t19 -46.5t-19 -48t-47 -20t-47.5 20t-19.5 48zM113 -61q0 28 19.5 46.5t47.5 18.5t47 -18.5t19 -46.5t-19 -48t-47 -20t-47.5 20 t-19.5 48zM717 59q0 28 19.5 47t47.5 19t47 -19t19 -47t-19 -47.5t-47 -19.5t-47.5 19.5t-19.5 47.5zM475 59q0 28 20 47t48 19t46.5 -19t18.5 -47t-18.5 -47.5t-46.5 -19.5t-48 19.5t-20 47.5zM958 180q0 28 20 47t48 19t47 -19t19 -47t-19 -47.5t-47 -19.5t-48 19.5 t-20 47.5zM233 180q0 28 20 47t48 19t47 -19t19 -47t-19 -47.5t-47 -19.5t-48 19.5t-20 47.5zM1079 422q0 27 20 46t48 19t46.5 -18.5t18.5 -46.5t-19 -48t-46 -20q-28 0 -48 20t-20 48zM113 422q0 28 19.5 46.5t47.5 18.5t47 -18.5t19 -46.5t-19 -48t-47 -20t-47.5 20 t-19.5 48zM1079 664q0 27 20 46t48 19t46.5 -18.5t18.5 -46.5t-19 -48t-46 -20q-28 0 -48 20t-20 48zM113 664q0 28 19.5 46.5t47.5 18.5t47 -18.5t19 -46.5t-19 -48t-47 -20t-47.5 20t-19.5 48zM958 905q0 28 20 47t48 19t47 -19t19 -47t-19 -47.5t-47 -19.5t-48 19.5 t-20 47.5zM233 905q0 28 20 47t48 19t47 -19t19 -47t-19 -47.5t-47 -19.5t-48 19.5t-20 47.5zM717 1026q0 28 19.5 47t47.5 19t47 -19t19 -47t-19 -48t-47 -20t-47.5 20t-19.5 48zM475 1026q0 28 20 47t48 19t46.5 -19t18.5 -47t-19 -48t-46 -20q-28 0 -48 20t-20 48z M113 1147q0 28 19.5 46.5t47.5 18.5t47 -18.5t19 -46.5t-19 -48t-47 -20t-47.5 20t-19.5 48z" />
<glyph unicode="&#xff;" d="M475 1389q0 27 20 46t48 19t46.5 -18.5t18.5 -46.5t-19 -48t-46 -20q-28 0 -48 20t-20 48zM596 -182q0 27 20 46t48 19t46.5 -18.5t18.5 -46.5t-19 -48t-46 -20q-28 0 -48 20t-20 48zM596 59q0 28 20 47t48 19t46.5 -19t18.5 -47t-18.5 -47.5t-46.5 -19.5t-48 19.5 t-20 47.5zM838 301q0 28 19.5 47t47.5 19t47 -19t19 -47t-19 -48t-47 -20t-47.5 20t-19.5 48zM354 301q0 28 20 47t48 19t46.5 -19t18.5 -47t-19 -48t-46 -20q-28 0 -48 20t-20 48zM1079 543q0 27 20 46t48 19t46.5 -18.5t18.5 -46.5t-19 -48t-46 -20q-28 0 -48 20t-20 48z M113 543q0 28 19.5 46.5t47.5 18.5t47 -18.5t19 -46.5t-19 -48t-47 -20t-47.5 20t-19.5 48zM1079 784q0 28 20 47t48 19t46.5 -19t18.5 -47t-18.5 -47.5t-46.5 -19.5t-48 19.5t-20 47.5zM113 784q0 28 19.5 47t47.5 19t47 -19t19 -47t-19 -47.5t-47 -19.5t-47.5 19.5 t-19.5 47.5zM1079 1026q0 28 20 47t48 19t46.5 -19t18.5 -47t-19 -48t-46 -20q-28 0 -48 20t-20 48zM113 1026q0 28 19.5 47t47.5 19t47 -19t19 -47t-19 -48t-47 -20t-47.5 20t-19.5 48zM717 1389q0 28 19.5 46.5t47.5 18.5t47 -18.5t19 -46.5t-19 -48t-47 -20t-47.5 20 t-19.5 48z" />
<glyph unicode="&#x152;" horiz-adv-x="2416" d="M475 1026q0 28 20 47t48 19t46.5 -19t18.5 -47t-19 -48t-46 -20q-28 0 -48 20t-20 48zM2167 59q0 28 19.5 47t47.5 19t47 -19t19 -47t-19 -47.5t-47 -19.5t-47.5 19.5t-19.5 47.5zM1925 59q0 28 20 47t48 19t46.5 -19t18.5 -47t-18.5 -47.5t-46.5 -19.5t-48 19.5 t-20 47.5zM1683 59q0 28 20 47t48 19t47 -19t19 -47t-19 -47.5t-47 -19.5t-48 19.5t-20 47.5zM1442 59q0 28 19.5 47t47.5 19t47 -19t19 -47t-19 -47.5t-47 -19.5t-47.5 19.5t-19.5 47.5zM717 59q0 28 19.5 47t47.5 19t47 -19t19 -47t-19 -47.5t-47 -19.5t-47.5 19.5 t-19.5 47.5zM475 59q0 28 20 47t48 19t46.5 -19t18.5 -47t-18.5 -47.5t-46.5 -19.5t-48 19.5t-20 47.5zM958 180q0 28 20 47t48 19t47 -19t19 -47t-19 -47.5t-47 -19.5t-48 19.5t-20 47.5zM233 180q0 28 20 47t48 19t47 -19t19 -47t-19 -47.5t-47 -19.5t-48 19.5t-20 47.5z M1200 301q0 28 20 47t48 19t46.5 -19t18.5 -47t-19 -48t-46 -20q-28 0 -48 20t-20 48zM113 422q0 28 19.5 46.5t47.5 18.5t47 -18.5t19 -46.5t-19 -48t-47 -20t-47.5 20t-19.5 48zM1925 543q0 27 20 46t48 19t46.5 -18.5t18.5 -46.5t-19 -48t-46 -20q-28 0 -48 20t-20 48z M1683 543q0 27 20 46t48 19t47 -18.5t19 -46.5t-19 -48t-47 -20t-48 20t-20 48zM1442 543q0 28 19.5 46.5t47.5 18.5t47 -18.5t19 -46.5t-19 -48t-47 -20t-47.5 20t-19.5 48zM1200 543q0 27 20 46t48 19t46.5 -18.5t18.5 -46.5t-19 -48t-46 -20q-28 0 -48 20t-20 48z M113 664q0 28 19.5 46.5t47.5 18.5t47 -18.5t19 -46.5t-19 -48t-47 -20t-47.5 20t-19.5 48zM1200 784q0 28 20 47t48 19t46.5 -19t18.5 -47t-18.5 -47.5t-46.5 -19.5t-48 19.5t-20 47.5zM958 905q0 28 20 47t48 19t47 -19t19 -47t-19 -47.5t-47 -19.5t-48 19.5t-20 47.5z M233 905q0 28 20 47t48 19t47 -19t19 -47t-19 -47.5t-47 -19.5t-48 19.5t-20 47.5zM2167 1026q0 28 19.5 47t47.5 19t47 -19t19 -47t-19 -48t-47 -20t-47.5 20t-19.5 48zM1925 1026q0 28 20 47t48 19t46.5 -19t18.5 -47t-19 -48t-46 -20q-28 0 -48 20t-20 48zM1683 1026 q0 28 20 47t48 19t47 -19t19 -47t-19 -48t-47 -20t-48 20t-20 48zM1442 1026q0 28 19.5 47t47.5 19t47 -19t19 -47t-19 -48t-47 -20t-47.5 20t-19.5 48zM717 1026q0 28 19.5 47t47.5 19t47 -19t19 -47t-19 -48t-47 -20t-47.5 20t-19.5 48z" />
<glyph unicode="&#x153;" horiz-adv-x="2295" d="M475 1026q0 28 20 47t48 19t46.5 -19t18.5 -47t-19 -48t-46 -20q-28 0 -48 20t-20 48zM1683 59q0 28 20 47t48 19t47 -19t19 -47t-19 -47.5t-47 -19.5t-48 19.5t-20 47.5zM1442 59q0 28 19.5 47t47.5 19t47 -19t19 -47t-19 -47.5t-47 -19.5t-47.5 19.5t-19.5 47.5z M717 59q0 28 19.5 47t47.5 19t47 -19t19 -47t-19 -47.5t-47 -19.5t-47.5 19.5t-19.5 47.5zM475 59q0 28 20 47t48 19t46.5 -19t18.5 -47t-18.5 -47.5t-46.5 -19.5t-48 19.5t-20 47.5zM1925 180q0 28 20 47t48 19t46.5 -19t18.5 -47t-18.5 -47.5t-46.5 -19.5t-48 19.5 t-20 47.5zM1200 180q0 28 20 47t48 19t46.5 -19t18.5 -47t-18.5 -47.5t-46.5 -19.5t-48 19.5t-20 47.5zM958 180q0 28 20 47t48 19t47 -19t19 -47t-19 -47.5t-47 -19.5t-48 19.5t-20 47.5zM233 180q0 28 20 47t48 19t47 -19t19 -47t-19 -47.5t-47 -19.5t-48 19.5t-20 47.5z M1079 422q0 27 20 46t48 19t46.5 -18.5t18.5 -46.5t-19 -48t-46 -20q-28 0 -48 20t-20 48zM113 422q0 28 19.5 46.5t47.5 18.5t47 -18.5t19 -46.5t-19 -48t-47 -20t-47.5 20t-19.5 48zM1804 543q0 27 20 46t48 19t46.5 -18.5t18.5 -46.5t-19 -48t-46 -20q-28 0 -48 20 t-20 48zM1563 543q0 28 19.5 46.5t47.5 18.5t47 -18.5t19 -46.5t-19 -48t-47 -20t-47.5 20t-19.5 48zM1321 543q0 27 20 46t48 19t46.5 -18.5t18.5 -46.5t-19 -48t-46 -20q-28 0 -48 20t-20 48zM2046 664q0 27 20 46t48 19t46.5 -18.5t18.5 -46.5t-19 -48t-46 -20 q-28 0 -48 20t-20 48zM1079 664q0 27 20 46t48 19t46.5 -18.5t18.5 -46.5t-19 -48t-46 -20q-28 0 -48 20t-20 48zM113 664q0 28 19.5 46.5t47.5 18.5t47 -18.5t19 -46.5t-19 -48t-47 -20t-47.5 20t-19.5 48zM1925 905q0 28 20 47t48 19t46.5 -19t18.5 -47t-18.5 -47.5 t-46.5 -19.5t-48 19.5t-20 47.5zM1200 905q0 28 20 47t48 19t46.5 -19t18.5 -47t-18.5 -47.5t-46.5 -19.5t-48 19.5t-20 47.5zM958 905q0 28 20 47t48 19t47 -19t19 -47t-19 -47.5t-47 -19.5t-48 19.5t-20 47.5zM233 905q0 28 20 47t48 19t47 -19t19 -47t-19 -47.5 t-47 -19.5t-48 19.5t-20 47.5zM1683 1026q0 28 20 47t48 19t47 -19t19 -47t-19 -48t-47 -20t-48 20t-20 48zM1442 1026q0 28 19.5 47t47.5 19t47 -19t19 -47t-19 -48t-47 -20t-47.5 20t-19.5 48zM717 1026q0 28 19.5 47t47.5 19t47 -19t19 -47t-19 -48t-47 -20t-47.5 20 t-19.5 48z" />
<glyph unicode="&#x178;" d="M475 1268q0 27 20 46t48 19t46.5 -18.5t18.5 -46.5t-19 -48t-46 -20q-28 0 -48 20t-20 48zM596 59q0 28 20 47t48 19t46.5 -19t18.5 -47t-18.5 -47.5t-46.5 -19.5t-48 19.5t-20 47.5zM596 301q0 28 20 47t48 19t46.5 -19t18.5 -47t-19 -48t-46 -20q-28 0 -48 20t-20 48z M596 543q0 27 20 46t48 19t46.5 -18.5t18.5 -46.5t-19 -48t-46 -20q-28 0 -48 20t-20 48zM838 784q0 28 19.5 47t47.5 19t47 -19t19 -47t-19 -47.5t-47 -19.5t-47.5 19.5t-19.5 47.5zM354 784q0 28 20 47t48 19t46.5 -19t18.5 -47t-18.5 -47.5t-46.5 -19.5t-48 19.5 t-20 47.5zM1079 1026q0 28 20 47t48 19t46.5 -19t18.5 -47t-19 -48t-46 -20q-28 0 -48 20t-20 48zM113 1026q0 28 19.5 47t47.5 19t47 -19t19 -47t-19 -48t-47 -20t-47.5 20t-19.5 48zM717 1268q0 28 19.5 46.5t47.5 18.5t47 -18.5t19 -46.5t-19 -48t-47 -20t-47.5 20 t-19.5 48z" />
<glyph unicode="&#x2c6;" horiz-adv-x="845" d="M354 1026q0 28 20 47t48 19t46.5 -19t18.5 -47t-19 -48t-46 -20q-28 0 -48 20t-20 48zM596 905q0 28 20 47t48 19t46.5 -19t18.5 -47t-18.5 -47.5t-46.5 -19.5t-48 19.5t-20 47.5zM113 905q0 28 19.5 47t47.5 19t47 -19t19 -47t-19 -47.5t-47 -19.5t-47.5 19.5 t-19.5 47.5z" />
<glyph unicode="&#x2dc;" horiz-adv-x="724" d="M233 1026q0 28 20 47t48 19t47 -19t19 -47t-19 -48t-47 -20t-48 20t-20 48zM354 905q0 28 20 47t48 19t46.5 -19t18.5 -47t-18.5 -47.5t-46.5 -19.5t-48 19.5t-20 47.5zM113 905q0 28 19.5 47t47.5 19t47 -19t19 -47t-19 -47.5t-47 -19.5t-47.5 19.5t-19.5 47.5z M475 1026q0 28 20 47t48 19t46.5 -19t18.5 -47t-19 -48t-46 -20q-28 0 -48 20t-20 48z" />
<glyph unicode="&#x2000;" horiz-adv-x="727" />
<glyph unicode="&#x2001;" horiz-adv-x="1454" />
<glyph unicode="&#x2002;" horiz-adv-x="727" />
<glyph unicode="&#x2003;" horiz-adv-x="1454" />
<glyph unicode="&#x2004;" horiz-adv-x="484" />
<glyph unicode="&#x2005;" horiz-adv-x="363" />
<glyph unicode="&#x2006;" horiz-adv-x="242" />
<glyph unicode="&#x2007;" horiz-adv-x="242" />
<glyph unicode="&#x2008;" horiz-adv-x="181" />
<glyph unicode="&#x2009;" horiz-adv-x="290" />
<glyph unicode="&#x200a;" horiz-adv-x="80" />
<glyph unicode="&#x2010;" horiz-adv-x="1087" d="M113 543q0 28 19.5 46.5t47.5 18.5t47 -18.5t19 -46.5t-19 -48t-47 -20t-47.5 20t-19.5 48zM838 543q0 28 19.5 46.5t47.5 18.5t47 -18.5t19 -46.5t-19 -48t-47 -20t-47.5 20t-19.5 48zM596 543q0 27 20 46t48 19t46.5 -18.5t18.5 -46.5t-19 -48t-46 -20q-28 0 -48 20 t-20 48zM354 543q0 27 20 46t48 19t46.5 -18.5t18.5 -46.5t-19 -48t-46 -20q-28 0 -48 20t-20 48z" />
<glyph unicode="&#x2011;" horiz-adv-x="1087" d="M113 543q0 28 19.5 46.5t47.5 18.5t47 -18.5t19 -46.5t-19 -48t-47 -20t-47.5 20t-19.5 48zM838 543q0 28 19.5 46.5t47.5 18.5t47 -18.5t19 -46.5t-19 -48t-47 -20t-47.5 20t-19.5 48zM596 543q0 27 20 46t48 19t46.5 -18.5t18.5 -46.5t-19 -48t-46 -20q-28 0 -48 20 t-20 48zM354 543q0 27 20 46t48 19t46.5 -18.5t18.5 -46.5t-19 -48t-46 -20q-28 0 -48 20t-20 48z" />
<glyph unicode="&#x2012;" horiz-adv-x="1087" d="M113 543q0 28 19.5 46.5t47.5 18.5t47 -18.5t19 -46.5t-19 -48t-47 -20t-47.5 20t-19.5 48zM838 543q0 28 19.5 46.5t47.5 18.5t47 -18.5t19 -46.5t-19 -48t-47 -20t-47.5 20t-19.5 48zM596 543q0 27 20 46t48 19t46.5 -18.5t18.5 -46.5t-19 -48t-46 -20q-28 0 -48 20 t-20 48zM354 543q0 27 20 46t48 19t46.5 -18.5t18.5 -46.5t-19 -48t-46 -20q-28 0 -48 20t-20 48z" />
<glyph unicode="&#x2013;" horiz-adv-x="845" d="M113 543q0 28 19.5 46.5t47.5 18.5t47 -18.5t19 -46.5t-19 -48t-47 -20t-47.5 20t-19.5 48zM596 543q0 27 20 46t48 19t46.5 -18.5t18.5 -46.5t-19 -48t-46 -20q-28 0 -48 20t-20 48zM354 543q0 27 20 46t48 19t46.5 -18.5t18.5 -46.5t-19 -48t-46 -20q-28 0 -48 20 t-20 48z" />
<glyph unicode="&#x2014;" d="M113 543q0 28 19.5 46.5t47.5 18.5t47 -18.5t19 -46.5t-19 -48t-47 -20t-47.5 20t-19.5 48zM1079 543q0 27 20 46t48 19t46.5 -18.5t18.5 -46.5t-19 -48t-46 -20q-28 0 -48 20t-20 48zM838 543q0 28 19.5 46.5t47.5 18.5t47 -18.5t19 -46.5t-19 -48t-47 -20t-47.5 20 t-19.5 48zM596 543q0 27 20 46t48 19t46.5 -18.5t18.5 -46.5t-19 -48t-46 -20q-28 0 -48 20t-20 48zM354 543q0 27 20 46t48 19t46.5 -18.5t18.5 -46.5t-19 -48t-46 -20q-28 0 -48 20t-20 48z" />
<glyph unicode="&#x2018;" horiz-adv-x="483" d="M233 1026q0 28 20 47t48 19t47 -19t19 -47t-19 -48t-47 -20t-48 20t-20 48zM113 784q0 28 19.5 47t47.5 19t47 -19t19 -47t-19 -47.5t-47 -19.5t-47.5 19.5t-19.5 47.5z" />
<glyph unicode="&#x2019;" horiz-adv-x="483" d="M113 1026q0 28 19.5 47t47.5 19t47 -19t19 -47t-19 -48t-47 -20t-47.5 20t-19.5 48zM233 784q0 28 20 47t48 19t47 -19t19 -47t-19 -47.5t-47 -19.5t-48 19.5t-20 47.5z" />
<glyph unicode="&#x201a;" horiz-adv-x="483" d="M233 59q0 28 20 47t48 19t47 -19t19 -47t-19 -47.5t-47 -19.5t-48 19.5t-20 47.5zM113 -182q0 28 19.5 46.5t47.5 18.5t47 -18.5t19 -46.5t-19 -48t-47 -20t-47.5 20t-19.5 48z" />
<glyph unicode="&#x201c;" horiz-adv-x="845" d="M233 1026q0 28 20 47t48 19t47 -19t19 -47t-19 -48t-47 -20t-48 20t-20 48zM475 784q0 28 20 47t48 19t46.5 -19t18.5 -47t-18.5 -47.5t-46.5 -19.5t-48 19.5t-20 47.5zM113 784q0 28 19.5 47t47.5 19t47 -19t19 -47t-19 -47.5t-47 -19.5t-47.5 19.5t-19.5 47.5z M596 1026q0 28 20 47t48 19t46.5 -19t18.5 -47t-19 -48t-46 -20q-28 0 -48 20t-20 48z" />
<glyph unicode="&#x201d;" horiz-adv-x="845" d="M113 1026q0 28 19.5 47t47.5 19t47 -19t19 -47t-19 -48t-47 -20t-47.5 20t-19.5 48zM596 784q0 28 20 47t48 19t46.5 -19t18.5 -47t-18.5 -47.5t-46.5 -19.5t-48 19.5t-20 47.5zM233 784q0 28 20 47t48 19t47 -19t19 -47t-19 -47.5t-47 -19.5t-48 19.5t-20 47.5z M475 1026q0 28 20 47t48 19t46.5 -19t18.5 -47t-19 -48t-46 -20q-28 0 -48 20t-20 48z" />
<glyph unicode="&#x201e;" horiz-adv-x="845" d="M233 59q0 28 20 47t48 19t47 -19t19 -47t-19 -47.5t-47 -19.5t-48 19.5t-20 47.5zM475 -182q0 27 20 46t48 19t46.5 -18.5t18.5 -46.5t-19 -48t-46 -20q-28 0 -48 20t-20 48zM113 -182q0 28 19.5 46.5t47.5 18.5t47 -18.5t19 -46.5t-19 -48t-47 -20t-47.5 20t-19.5 48z M596 59q0 28 20 47t48 19t46.5 -19t18.5 -47t-18.5 -47.5t-46.5 -19.5t-48 19.5t-20 47.5z" />
<glyph unicode="&#x2022;" horiz-adv-x="845" d="M354 784q0 28 20 47t48 19t46.5 -19t18.5 -47t-18.5 -47.5t-46.5 -19.5t-48 19.5t-20 47.5zM354 301q0 28 20 47t48 19t46.5 -19t18.5 -47t-19 -48t-46 -20q-28 0 -48 20t-20 48zM475 422q0 27 20 46t48 19t46.5 -18.5t18.5 -46.5t-19 -48t-46 -20q-28 0 -48 20t-20 48z M233 422q0 27 20 46t48 19t47 -18.5t19 -46.5t-19 -48t-47 -20t-48 20t-20 48zM596 543q0 27 20 46t48 19t46.5 -18.5t18.5 -46.5t-19 -48t-46 -20q-28 0 -48 20t-20 48zM354 543q0 27 20 46t48 19t46.5 -18.5t18.5 -46.5t-19 -48t-46 -20q-28 0 -48 20t-20 48zM113 543 q0 28 19.5 46.5t47.5 18.5t47 -18.5t19 -46.5t-19 -48t-47 -20t-47.5 20t-19.5 48zM475 664q0 27 20 46t48 19t46.5 -18.5t18.5 -46.5t-19 -48t-46 -20q-28 0 -48 20t-20 48zM233 664q0 27 20 46t48 19t47 -18.5t19 -46.5t-19 -48t-47 -20t-48 20t-20 48z" />
<glyph unicode="&#x2026;" horiz-adv-x="1087" d="M113 59q0 28 19.5 47t47.5 19t47 -19t19 -47t-19 -47.5t-47 -19.5t-47.5 19.5t-19.5 47.5zM838 59q0 28 19.5 47t47.5 19t47 -19t19 -47t-19 -47.5t-47 -19.5t-47.5 19.5t-19.5 47.5zM475 59q0 28 20 47t48 19t46.5 -19t18.5 -47t-18.5 -47.5t-46.5 -19.5t-48 19.5 t-20 47.5z" />
<glyph unicode="&#x202f;" horiz-adv-x="290" />
<glyph unicode="&#x2039;" horiz-adv-x="845" d="M596 1026q0 28 20 47t48 19t46.5 -19t18.5 -47t-19 -48t-46 -20q-28 0 -48 20t-20 48zM596 59q0 28 20 47t48 19t46.5 -19t18.5 -47t-18.5 -47.5t-46.5 -19.5t-48 19.5t-20 47.5zM354 301q0 28 20 47t48 19t46.5 -19t18.5 -47t-19 -48t-46 -20q-28 0 -48 20t-20 48z M113 543q0 28 19.5 46.5t47.5 18.5t47 -18.5t19 -46.5t-19 -48t-47 -20t-47.5 20t-19.5 48zM354 784q0 28 20 47t48 19t46.5 -19t18.5 -47t-18.5 -47.5t-46.5 -19.5t-48 19.5t-20 47.5z" />
<glyph unicode="&#x203a;" horiz-adv-x="845" d="M113 1026q0 28 19.5 47t47.5 19t47 -19t19 -47t-19 -48t-47 -20t-47.5 20t-19.5 48zM113 59q0 28 19.5 47t47.5 19t47 -19t19 -47t-19 -47.5t-47 -19.5t-47.5 19.5t-19.5 47.5zM354 301q0 28 20 47t48 19t46.5 -19t18.5 -47t-19 -48t-46 -20q-28 0 -48 20t-20 48z M596 543q0 27 20 46t48 19t46.5 -18.5t18.5 -46.5t-19 -48t-46 -20q-28 0 -48 20t-20 48zM354 784q0 28 20 47t48 19t46.5 -19t18.5 -47t-18.5 -47.5t-46.5 -19.5t-48 19.5t-20 47.5z" />
<glyph unicode="&#x205f;" horiz-adv-x="363" />
<glyph unicode="&#x20ac;" horiz-adv-x="1449" d="M717 1026q0 28 19.5 47t47.5 19t47 -19t19 -47t-19 -48t-47 -20t-47.5 20t-19.5 48zM958 59q0 28 20 47t48 19t47 -19t19 -47t-19 -47.5t-47 -19.5t-48 19.5t-20 47.5zM717 59q0 28 19.5 47t47.5 19t47 -19t19 -47t-19 -47.5t-47 -19.5t-47.5 19.5t-19.5 47.5zM1200 180 q0 28 20 47t48 19t46.5 -19t18.5 -47t-18.5 -47.5t-46.5 -19.5t-48 19.5t-20 47.5zM475 180q0 28 20 47t48 19t46.5 -19t18.5 -47t-18.5 -47.5t-46.5 -19.5t-48 19.5t-20 47.5zM838 422q0 28 19.5 46.5t47.5 18.5t47 -18.5t19 -46.5t-19 -48t-47 -20t-47.5 20t-19.5 48z M596 422q0 27 20 46t48 19t46.5 -18.5t18.5 -46.5t-19 -48t-46 -20q-28 0 -48 20t-20 48zM354 422q0 27 20 46t48 19t46.5 -18.5t18.5 -46.5t-19 -48t-46 -20q-28 0 -48 20t-20 48zM113 422q0 28 19.5 46.5t47.5 18.5t47 -18.5t19 -46.5t-19 -48t-47 -20t-47.5 20t-19.5 48z M838 664q0 28 19.5 46.5t47.5 18.5t47 -18.5t19 -46.5t-19 -48t-47 -20t-47.5 20t-19.5 48zM596 664q0 27 20 46t48 19t46.5 -18.5t18.5 -46.5t-19 -48t-46 -20q-28 0 -48 20t-20 48zM354 664q0 27 20 46t48 19t46.5 -18.5t18.5 -46.5t-19 -48t-46 -20q-28 0 -48 20t-20 48z M113 664q0 28 19.5 46.5t47.5 18.5t47 -18.5t19 -46.5t-19 -48t-47 -20t-47.5 20t-19.5 48zM1200 905q0 28 20 47t48 19t46.5 -19t18.5 -47t-18.5 -47.5t-46.5 -19.5t-48 19.5t-20 47.5zM475 905q0 28 20 47t48 19t46.5 -19t18.5 -47t-18.5 -47.5t-46.5 -19.5t-48 19.5 t-20 47.5zM958 1026q0 28 20 47t48 19t47 -19t19 -47t-19 -48t-47 -20t-48 20t-20 48z" />
<glyph unicode="&#x2122;" d="M113 1026q0 28 19.5 47t47.5 19t47 -19t19 -47t-19 -48t-47 -20t-47.5 20t-19.5 48zM1079 784q0 28 20 47t48 19t46.5 -19t18.5 -47t-18.5 -47.5t-46.5 -19.5t-48 19.5t-20 47.5zM596 784q0 28 20 47t48 19t46.5 -19t18.5 -47t-18.5 -47.5t-46.5 -19.5t-48 19.5t-20 47.5 zM233 784q0 28 20 47t48 19t47 -19t19 -47t-19 -47.5t-47 -19.5t-48 19.5t-20 47.5zM838 905q0 28 19.5 47t47.5 19t47 -19t19 -47t-19 -47.5t-47 -19.5t-47.5 19.5t-19.5 47.5zM1079 1026q0 28 20 47t48 19t46.5 -19t18.5 -47t-19 -48t-46 -20q-28 0 -48 20t-20 48z M596 1026q0 28 20 47t48 19t46.5 -19t18.5 -47t-19 -48t-46 -20q-28 0 -48 20t-20 48zM354 1026q0 28 20 47t48 19t46.5 -19t18.5 -47t-19 -48t-46 -20q-28 0 -48 20t-20 48z" />
<glyph unicode="&#x25fc;" horiz-adv-x="1095" d="M0 1096h1096v-1096h-1096v1096z" />
</font>
</defs>
</svg>
